<svg width="416" height="369" viewBox="0 0 416 369" fill="none" xmlns="http://www.w3.org/2000/svg">
<path d="M192.494 249.839L45.1535 325.253C43.6866 326.004 43.6866 327.222 45.1535 327.972L64.772 337.994C66.2388 338.745 68.6159 338.745 70.0827 337.994L217.424 262.579C218.891 261.828 218.891 260.61 217.424 259.859L197.805 249.838C196.339 249.088 193.961 249.088 192.494 249.839Z" fill="#E0E0E0"/>
<path d="M200.876 310.96L194.329 313.65C193.925 313.816 193.256 313.847 192.831 313.73C191.2 313.277 189.495 312.921 187.748 312.658C187.31 312.592 186.885 312.231 186.802 311.843L185.984 308.016C185.9 307.628 185.473 307.314 185.028 307.314H175.531C175.086 307.314 174.658 307.628 174.575 308.016L173.756 311.843C173.673 312.231 173.248 312.592 172.81 312.658C171.063 312.921 169.359 313.277 167.728 313.73C167.303 313.848 166.634 313.817 166.229 313.651L159.682 310.961C159.279 310.795 158.639 310.821 158.253 311.018L151.794 314.325C151.409 314.522 151.389 314.87 151.751 315.1L156.869 318.367C157.231 318.598 157.265 319.008 156.964 319.299C156.216 320.025 155.608 320.778 155.136 321.548C154.923 321.895 154.418 322.209 153.973 322.233L145.367 322.716C144.923 322.741 144.562 323.082 144.562 323.476V327.735C144.562 328.13 144.923 328.471 145.367 328.496L153.973 328.979C154.418 329.004 154.923 329.317 155.136 329.664C155.608 330.434 156.216 331.187 156.964 331.913C157.265 332.204 157.231 332.614 156.869 332.845L151.751 336.111C151.39 336.341 151.409 336.689 151.794 336.886L158.253 340.194C158.638 340.391 159.278 340.417 159.682 340.25L166.229 337.56C166.633 337.394 167.302 337.363 167.727 337.48C169.358 337.932 171.063 338.289 172.81 338.552C173.249 338.618 173.673 338.98 173.757 339.368L174.575 343.194C174.658 343.583 175.087 343.897 175.531 343.897H185.028C185.473 343.897 185.901 343.583 185.984 343.194L186.803 339.367C186.886 338.98 187.31 338.618 187.749 338.552C189.496 338.288 191.201 337.932 192.832 337.48C193.257 337.363 193.926 337.394 194.33 337.559L200.877 340.249C201.281 340.415 201.921 340.389 202.307 340.192L208.765 336.884C209.151 336.687 209.171 336.34 208.81 336.11L203.691 332.842C203.33 332.612 203.296 332.202 203.596 331.911C204.344 331.186 204.952 330.433 205.424 329.662C205.636 329.316 206.143 329.002 206.587 328.977L215.194 328.493C215.639 328.468 215.999 328.128 215.999 327.733V323.474C215.999 323.079 215.639 322.739 215.194 322.714L206.587 322.231C206.143 322.206 205.637 321.893 205.425 321.547C204.953 320.776 204.345 320.023 203.598 319.298C203.298 319.006 203.332 318.596 203.693 318.366L208.811 315.099C209.172 314.869 209.153 314.522 208.767 314.325L202.308 311.017C201.919 310.82 201.279 310.794 200.876 310.96ZM191.189 320.017C197.216 323.103 197.216 328.106 191.189 331.192C185.163 334.278 175.393 334.279 169.367 331.192C163.342 328.107 163.342 323.102 169.368 320.017C175.394 316.931 185.163 316.931 191.189 320.017Z" fill="#E6E6E6"/>
<path d="M251.228 296.463L246.378 298.457C246.078 298.58 245.583 298.603 245.269 298.516C244.061 298.181 242.798 297.917 241.503 297.722C241.178 297.673 240.863 297.405 240.802 297.117L240.195 294.282C240.134 293.995 239.817 293.762 239.487 293.762H232.452C232.122 293.762 231.804 293.995 231.743 294.282L231.135 297.117C231.074 297.404 230.759 297.672 230.434 297.722C229.14 297.917 227.877 298.181 226.669 298.516C226.355 298.603 225.859 298.58 225.559 298.458L220.709 296.464C220.409 296.341 219.936 296.36 219.65 296.506L214.865 298.957C214.579 299.103 214.565 299.36 214.832 299.531L218.625 301.952C218.893 302.122 218.918 302.427 218.695 302.642C218.141 303.179 217.69 303.737 217.341 304.308C217.184 304.565 216.808 304.797 216.479 304.815L210.102 305.173C209.773 305.192 209.507 305.444 209.507 305.736V308.891C209.507 309.184 209.774 309.436 210.102 309.454L216.479 309.812C216.808 309.831 217.183 310.063 217.341 310.32C217.69 310.891 218.141 311.449 218.695 311.986C218.918 312.202 218.893 312.505 218.625 312.677L214.833 315.096C214.565 315.268 214.58 315.525 214.866 315.671L219.651 318.121C219.936 318.267 220.41 318.286 220.71 318.163L225.56 316.17C225.86 316.047 226.355 316.023 226.669 316.111C227.877 316.446 229.14 316.71 230.435 316.905C230.76 316.953 231.075 317.221 231.136 317.509L231.743 320.344C231.804 320.632 232.121 320.865 232.452 320.865H239.487C239.817 320.865 240.134 320.632 240.196 320.344L240.802 317.509C240.864 317.222 241.178 316.954 241.503 316.905C242.798 316.711 244.061 316.446 245.269 316.111C245.583 316.024 246.079 316.047 246.379 316.17L251.229 318.163C251.528 318.286 252.002 318.267 252.288 318.121L257.073 315.671C257.358 315.525 257.373 315.268 257.105 315.096L253.313 312.676C253.045 312.505 253.02 312.201 253.243 311.986C253.797 311.449 254.248 310.891 254.597 310.32C254.754 310.063 255.129 309.831 255.458 309.812L261.835 309.454C262.164 309.436 262.43 309.184 262.43 308.891V305.736C262.43 305.443 262.163 305.191 261.835 305.173L255.458 304.815C255.129 304.796 254.754 304.565 254.597 304.307C254.248 303.736 253.797 303.179 253.243 302.641C253.021 302.425 253.046 302.121 253.314 301.95L257.106 299.53C257.374 299.359 257.359 299.102 257.074 298.956L252.288 296.505C252.001 296.359 251.528 296.34 251.228 296.463ZM244.052 303.173C248.517 305.46 248.517 309.167 244.052 311.453C239.588 313.739 232.349 313.739 227.885 311.453C223.42 309.167 223.42 305.46 227.885 303.173C232.349 300.887 239.588 300.887 244.052 303.173Z" fill="#E6E6E6"/>
<path d="M206.893 20.3334L65.2712 92.774C63.8077 93.5223 62.6221 95.3437 62.6221 96.8418V327.152C62.6221 328.65 63.8102 330.468 65.2762 331.211L65.8145 331.484C67.2805 332.228 69.655 332.223 71.1177 331.474L212.742 258.939C214.205 258.19 215.391 256.368 215.391 254.87V24.6573C215.391 23.1592 214.203 21.3415 212.737 20.5976L212.198 20.3253C210.731 19.5813 208.357 19.5843 206.893 20.3334Z" fill="#34C0C9"/>
<path opacity="0.45" d="M206.893 20.3334L65.2712 92.774C63.8077 93.5223 62.6221 95.3437 62.6221 96.8418V327.152C62.6221 328.65 63.8102 330.468 65.2762 331.211L65.8145 331.484C67.2805 332.228 69.655 332.223 71.1177 331.474L212.742 258.939C214.205 258.19 215.391 256.368 215.391 254.87V24.6573C215.391 23.1592 214.203 21.3415 212.737 20.5976L212.198 20.3253C210.731 19.5813 208.357 19.5843 206.893 20.3334Z" fill="black"/>
<path d="M215.39 255.038C215.39 257.104 213.755 258.42 211.73 259.453L72.1294 330.943C70.1143 331.975 68.4686 331.141 68.4686 329.066V100.828C68.4686 98.5186 69.858 96.3843 72.1128 95.2286L211.727 23.709C213.355 22.875 215.391 23.9171 215.391 25.585V255.038H215.39Z" fill="#34C0C9"/>
<path opacity="0.3" d="M215.39 255.038C215.39 257.104 213.755 258.42 211.73 259.453L72.1294 330.943C70.1143 331.975 68.4686 331.141 68.4686 329.066V100.828C68.4686 98.5186 69.858 96.3843 72.1128 95.2286L211.727 23.709C213.355 22.875 215.391 23.9171 215.391 25.585V255.038H215.39Z" fill="black"/>
<path d="M215.391 24.6596V25.5821C215.391 23.9179 213.352 22.878 211.722 23.7105L72.1119 95.2323C70.9804 95.802 70.0727 96.6249 69.4512 97.5924C69.4312 97.6197 69.4204 97.6374 69.4104 97.6647L63.3684 94.5696C63.8577 93.819 64.5208 93.1585 65.2746 92.7792L206.893 20.3349C208.361 19.5843 210.736 19.5843 212.194 20.326L212.731 20.6006C214.199 21.3408 215.391 23.1585 215.391 24.6596Z" fill="#34C0C9"/>
<path opacity="0.2" d="M215.391 24.6596V25.5821C215.391 23.9179 213.352 22.878 211.722 23.7105L72.1119 95.2323C70.9804 95.802 70.0727 96.6249 69.4512 97.5924C69.4312 97.6197 69.4204 97.6374 69.4104 97.6647L63.3684 94.5696C63.8577 93.819 64.5208 93.1585 65.2746 92.7792L206.893 20.3349C208.361 19.5843 210.736 19.5843 212.194 20.326L212.731 20.6006C214.199 21.3408 215.391 23.1585 215.391 24.6596Z" fill="black"/>
<path opacity="0.25" d="M211.937 245.524C211.937 247.652 210.254 249.008 208.166 250.071L76.2237 317.642C74.1486 318.705 72.453 317.846 72.453 315.709V112.806C72.453 110.427 73.8841 108.228 76.2062 107.039L208.163 39.4372C209.84 38.5782 211.937 39.6513 211.937 41.3693V43.8534V245.524Z" fill="black"/>
<path d="M75.831 109.571L207.293 42.2472C207.914 41.9291 208.922 41.9291 209.543 42.2472L210.811 42.8967C211.433 43.2147 211.937 43.9889 211.937 44.625V248.472C211.937 249.109 211.433 249.882 210.812 250.201L79.352 317.524C78.7305 317.842 77.7229 317.842 77.1014 317.524L75.831 316.873C75.2095 316.555 74.7053 315.781 74.7053 315.144V111.3C74.7053 110.663 75.2095 109.889 75.831 109.571Z" fill="#F5F5F5"/>
<path d="M79.0834 317.632C78.9536 317.678 78.8146 317.709 78.6674 317.732C78.5983 317.739 78.5201 317.747 78.451 317.755C78.2256 317.77 77.9918 317.762 77.7671 317.732C77.6199 317.709 77.4809 317.678 77.3511 317.632C77.2646 317.601 77.1781 317.563 77.0999 317.525L75.8352 316.879C75.2112 316.556 74.7087 315.788 74.7087 315.15V111.306C74.7087 110.983 74.8302 110.63 75.0382 110.322L78.555 112.12C78.3562 112.435 78.2264 112.789 78.2264 113.104V316.948C78.2264 317.494 78.59 317.763 79.0834 317.632Z" fill="#E0E0E0"/>
<path d="M210.812 42.8956L209.544 42.2462C208.923 41.9281 207.915 41.9281 207.294 42.2462L75.831 109.57C75.2095 109.888 74.7053 110.662 74.7053 111.299V123.887L78.2255 125.701L211.936 57.2254V44.624C211.937 43.9879 211.433 43.2137 210.812 42.8956Z" fill="#34C0C9"/>
<path opacity="0.4" d="M210.812 42.8956L209.544 42.2462C208.923 41.9281 207.915 41.9281 207.294 42.2462L75.831 109.57C75.2095 109.888 74.7053 110.662 74.7053 111.299V123.887L78.2255 125.701L211.936 57.2254V44.624C211.937 43.9879 211.433 43.2137 210.812 42.8956Z" fill="white"/>
<path d="M211.896 44.3221C211.757 43.9147 211.325 43.7841 210.814 44.0453L79.352 111.371C79.04 111.532 78.7538 111.801 78.5549 112.116L75.0381 110.318C75.2369 110.003 75.5231 109.727 75.8351 109.573L207.297 42.2475C207.912 41.925 208.926 41.925 209.541 42.2475L210.815 42.8933C211.342 43.17 211.784 43.7612 211.896 44.3221Z" fill="#34C0C9"/>
<path opacity="0.6" d="M211.896 44.3221C211.757 43.9147 211.325 43.7841 210.814 44.0453L79.352 111.371C79.04 111.532 78.7538 111.801 78.5549 112.116L75.0381 110.318C75.2369 110.003 75.5231 109.727 75.8351 109.573L207.297 42.2475C207.912 41.925 208.926 41.925 209.541 42.2475L210.815 42.8933C211.342 43.17 211.784 43.7612 211.896 44.3221Z" fill="white"/>
<path d="M74.7087 111.302V123.901L78.2256 125.701V113.1C78.2256 112.785 78.3554 112.431 78.5542 112.116L75.0374 110.318C74.8302 110.625 74.7087 110.979 74.7087 111.302Z" fill="#34C0C9"/>
<g opacity="0.25">
<path d="M181.527 50.6755V60.6998C181.527 63.2392 179.573 66.2348 177.095 67.5041L155.22 78.704C154.137 79.2575 153.522 80.3645 152.871 81.5283C152.394 82.3829 151.898 83.2619 151.183 83.9785C149.485 85.6877 145.778 87.47 143.162 88.2109C142.281 88.4633 141.4 88.6426 140.538 88.7482C140.208 88.7969 139.841 88.8375 139.465 88.8788C137.079 89.1637 134.106 89.5216 132.363 90.4175L106.761 103.522C105.991 103.921 105.229 104.116 104.532 104.116C103.99 104.116 103.486 104.003 103.036 103.775C101.99 103.237 101.412 102.171 101.412 100.787V90.7629C101.412 88.2235 103.357 85.2279 105.844 83.9586L114.442 79.5549C114.478 79.5387 114.515 79.5224 114.561 79.5143C114.973 79.3512 115.46 79.4981 115.699 79.856C115.928 80.2058 115.819 80.6619 115.461 80.89C115.433 80.9224 115.397 80.9468 115.36 80.963L106.762 85.3667C104.863 86.3438 103.248 88.8176 103.248 90.7629V100.787C103.248 101.561 103.505 102.13 103.954 102.358C104.403 102.595 105.092 102.497 105.845 102.114L131.446 89.0013C133.501 87.9511 136.677 87.5689 139.218 87.2678C139.594 87.2272 139.952 87.1785 140.282 87.1371C141.034 87.0397 141.824 86.8847 142.612 86.6567C144.934 86.0058 148.384 84.3372 149.807 82.9047C150.367 82.3512 150.779 81.594 151.228 80.8051C151.971 79.47 152.743 78.0944 154.303 77.2966L176.179 66.0967C178.079 65.1204 179.694 62.6459 179.694 60.7005V50.6755C179.694 49.9102 179.437 49.3323 178.987 49.1043C178.538 48.8681 177.84 48.9656 177.097 49.3486L169.646 53.1663C169.398 52.6696 169.077 52.1899 168.71 51.7663L176.179 47.9405C177.528 47.2408 178.858 47.1589 179.905 47.6881C180.949 48.2253 181.527 49.2918 181.527 50.6755Z" fill="black"/>
</g>
<path d="M165.57 50.8607L165.571 50.8622C166.16 50.5552 166.977 50.5951 167.88 51.0578C169.676 51.9773 171.132 54.2142 171.132 56.0533C171.132 56.9788 170.762 57.626 170.167 57.9249L170.168 57.9264L118.267 84.5106L113.669 77.445L165.57 50.8607Z" fill="#37474F"/>
<path d="M115.979 80.9933L170.189 53.2268C169.6 52.3161 168.784 51.5198 167.88 51.0571C167.773 51.0017 167.671 50.9722 167.566 50.9294L114.202 78.2627L115.979 80.9933Z" fill="#455A64"/>
<path d="M115.979 77.6413C114.184 76.7217 112.728 77.4671 112.728 79.3062C112.728 81.1453 114.184 83.3822 115.979 84.3017C117.775 85.2213 119.231 84.4759 119.231 82.6368C119.231 80.7977 117.775 78.5608 115.979 77.6413Z" fill="#263238"/>
<path d="M182.449 51.3884V61.4127C182.449 63.9521 180.495 66.9477 178.017 68.217L156.141 79.4169C155.059 79.9704 154.444 81.0774 153.792 82.2412C153.315 83.0958 152.819 83.9748 152.104 84.6914C150.406 86.4006 146.699 88.1829 144.084 88.9238C143.203 89.1762 142.322 89.3556 141.46 89.4611C141.13 89.5098 140.763 89.5504 140.387 89.5917C138 89.8766 135.028 90.2345 133.285 91.1297L107.683 104.234C106.913 104.633 106.151 104.828 105.453 104.828C104.912 104.828 104.408 104.715 103.958 104.487C102.912 103.95 102.333 102.883 102.333 101.499V91.4751C102.333 88.9356 104.279 85.9401 106.766 84.6707L115.363 80.2671C115.4 80.2509 115.437 80.2346 115.482 80.2265C115.895 80.0634 116.382 80.2103 116.62 80.5682C116.849 80.918 116.74 81.3741 116.381 81.6021C116.353 81.6346 116.317 81.659 116.28 81.6752L107.682 86.0788C105.783 87.0559 104.168 89.5297 104.168 91.4751V101.499C104.168 102.273 104.425 102.843 104.874 103.071C105.324 103.307 106.013 103.209 106.765 102.826L132.366 89.7135C134.421 88.6633 137.596 88.281 140.139 87.9799C140.515 87.9393 140.873 87.8899 141.203 87.8493C141.955 87.7519 142.745 87.5969 143.533 87.3689C145.855 86.7179 149.305 85.0493 150.728 83.6169C151.288 83.0634 151.7 82.3062 152.149 81.5173C152.892 80.1822 153.664 78.8066 155.224 78.0088L177.099 66.8089C178.999 65.8325 180.614 63.358 180.614 61.4127V51.3884C180.614 50.6231 180.357 50.0452 179.907 49.8172C179.458 49.581 178.76 49.6792 178.017 50.0615L170.566 53.8792C170.318 53.3825 169.997 52.9028 169.63 52.4792L177.099 48.6534C178.448 47.953 179.779 47.8718 180.825 48.401C181.871 48.9383 182.449 50.0047 182.449 51.3884Z" fill="#455A64"/>
<path d="M102.239 123.033C102.384 122.959 102.492 122.95 102.564 123.003C102.637 123.057 102.7 123.16 102.755 123.314L106.074 131.74C106.082 131.767 106.087 131.802 106.087 131.844C106.087 131.963 106.05 132.083 105.978 132.205C105.907 132.327 105.82 132.415 105.722 132.465L104.747 132.965C104.567 133.057 104.44 133.076 104.367 133.022C104.295 132.968 104.245 132.906 104.218 132.834L103.636 131.355L99.3549 133.548L98.7725 135.624C98.7459 135.724 98.696 135.837 98.6236 135.965C98.5504 136.093 98.4247 136.203 98.2434 136.296L97.2683 136.795C97.1684 136.846 97.0836 136.847 97.012 136.799C96.9388 136.751 96.903 136.667 96.903 136.549C96.903 136.507 96.908 136.467 96.9163 136.431L100.235 124.606C100.289 124.397 100.353 124.229 100.426 124.101C100.497 123.973 100.606 123.871 100.75 123.798L102.239 123.033ZM102.986 129.684L101.496 125.883L100.005 131.211L102.986 129.684Z" fill="#455A64"/>
<path d="M111.031 118.531C111.698 118.189 112.28 117.997 112.772 117.952C113.263 117.909 113.675 117.994 114.005 118.21C114.333 118.427 114.587 118.761 114.764 119.215C114.939 119.67 115.045 120.224 115.082 120.879C115.117 121.651 115.117 122.442 115.082 123.249C115.045 123.94 114.939 124.603 114.764 125.238C114.587 125.873 114.337 126.467 114.011 127.017C113.686 127.568 113.282 128.071 112.799 128.526C112.316 128.982 111.748 129.377 111.099 129.71L107.684 131.458C107.586 131.508 107.499 131.509 107.427 131.461C107.355 131.413 107.318 131.329 107.318 131.213V120.862C107.318 120.746 107.355 120.625 107.427 120.504C107.499 120.38 107.585 120.294 107.684 120.243L111.031 118.531ZM113.253 121.815C113.235 121.484 113.178 121.194 113.085 120.948C112.989 120.704 112.849 120.52 112.664 120.394C112.479 120.271 112.247 120.219 111.966 120.239C111.686 120.262 111.352 120.371 110.965 120.569L109.149 121.498V128.707L111.032 127.743C111.401 127.553 111.723 127.329 111.994 127.067C112.264 126.805 112.49 126.522 112.67 126.215C112.851 125.91 112.988 125.582 113.084 125.234C113.177 124.887 113.234 124.538 113.252 124.187C113.289 123.378 113.289 122.588 113.253 121.815Z" fill="#455A64"/>
<path d="M119.985 121.988L122.262 113.181C122.288 113.082 122.336 112.97 122.403 112.844C122.47 112.718 122.573 112.621 122.708 112.552L123.738 112.024C123.838 111.973 123.923 111.972 123.995 112.02C124.069 112.07 124.104 112.152 124.104 112.27C124.104 112.292 124.104 112.31 124.104 112.326C124.104 112.341 124.095 112.38 124.077 112.442L121.043 124.073C120.989 124.283 120.925 124.452 120.852 124.58C120.781 124.707 120.672 124.808 120.528 124.882L119.444 125.438C119.299 125.512 119.192 125.522 119.119 125.467C119.046 125.414 118.983 125.31 118.929 125.156L115.895 116.633C115.878 116.589 115.868 116.558 115.868 116.543C115.868 116.527 115.868 116.508 115.868 116.487C115.868 116.369 115.904 116.25 115.977 116.128C116.05 116.004 116.135 115.918 116.235 115.867L117.265 115.339C117.4 115.27 117.501 115.265 117.568 115.321C117.636 115.377 117.684 115.439 117.711 115.512L119.985 121.988Z" fill="#455A64"/>
<path d="M129.304 109.173C129.448 109.099 129.557 109.09 129.629 109.144C129.702 109.197 129.765 109.3 129.819 109.454L133.137 117.88C133.147 117.907 133.151 117.942 133.151 117.985C133.151 118.102 133.115 118.222 133.043 118.344C132.969 118.466 132.884 118.554 132.785 118.605L131.81 119.104C131.629 119.197 131.503 119.215 131.429 119.162C131.358 119.108 131.308 119.045 131.281 118.974L130.699 117.494L126.418 119.687L125.835 121.763C125.808 121.863 125.759 121.977 125.687 122.103C125.614 122.232 125.488 122.341 125.307 122.434L124.332 122.933C124.232 122.984 124.147 122.985 124.074 122.937C124.001 122.89 123.965 122.805 123.965 122.688C123.965 122.645 123.97 122.605 123.979 122.569L127.298 110.744C127.352 110.535 127.415 110.367 127.487 110.238C127.559 110.11 127.668 110.009 127.812 109.935L129.304 109.173ZM130.05 115.825L128.559 112.022L127.069 117.351L130.05 115.825Z" fill="#455A64"/>
<path d="M140.534 114.637C140.38 114.716 140.263 114.727 140.182 114.673C140.1 114.618 140.041 114.574 140.006 114.538L136.213 109.816V116.417C136.213 116.534 136.177 116.655 136.104 116.776C136.031 116.9 135.946 116.986 135.846 117.036L134.75 117.6C134.65 117.65 134.564 117.65 134.492 117.603C134.42 117.555 134.384 117.471 134.384 117.354V107.004C134.384 106.887 134.42 106.766 134.492 106.644C134.564 106.522 134.65 106.434 134.75 106.383L135.698 105.898C135.851 105.82 135.969 105.808 136.049 105.862C136.131 105.917 136.189 105.961 136.226 105.997L140.019 110.719V104.118C140.019 104.001 140.055 103.881 140.127 103.759C140.199 103.636 140.285 103.55 140.385 103.499L141.482 102.937C141.581 102.886 141.666 102.885 141.74 102.933C141.811 102.981 141.848 103.065 141.848 103.182V113.532C141.848 113.649 141.812 113.769 141.74 113.892C141.666 114.015 141.581 114.101 141.482 114.152L140.534 114.637Z" fill="#455A64"/>
<path d="M150.274 98.4352C150.372 98.3842 150.459 98.382 150.531 98.4315C150.603 98.4809 150.64 98.5628 150.64 98.6802V99.8174C150.64 99.9348 150.604 100.056 150.531 100.177C150.46 100.3 150.373 100.386 150.274 100.437L147.836 101.686V110.465C147.836 110.583 147.798 110.703 147.727 110.825C147.655 110.947 147.568 111.035 147.469 111.085L146.372 111.648C146.272 111.699 146.187 111.701 146.114 111.651C146.043 111.604 146.006 111.52 146.006 111.403V102.623L143.567 103.872C143.469 103.922 143.383 103.924 143.31 103.875C143.237 103.828 143.201 103.744 143.201 103.627V102.488C143.201 102.372 143.237 102.251 143.31 102.13C143.382 102.006 143.468 101.92 143.567 101.869L150.274 98.4352Z" fill="#455A64"/>
<path d="M155.488 95.7643C155.632 95.6898 155.741 95.6802 155.813 95.7341C155.886 95.788 155.949 95.892 156.002 96.0448L159.321 104.471C159.33 104.498 159.335 104.533 159.335 104.575C159.335 104.693 159.299 104.814 159.226 104.936C159.155 105.058 159.068 105.146 158.969 105.196L157.993 105.696C157.813 105.789 157.686 105.807 157.614 105.754C157.541 105.7 157.492 105.638 157.465 105.566L156.883 104.087L152.602 106.279L152.019 108.355C151.992 108.456 151.943 108.569 151.871 108.696C151.798 108.825 151.672 108.935 151.491 109.028L150.515 109.527C150.416 109.578 150.331 109.578 150.258 109.53C150.185 109.483 150.149 109.399 150.149 109.281C150.149 109.239 150.154 109.199 150.163 109.162L153.482 97.337C153.536 97.1282 153.599 96.9599 153.671 96.8315C153.744 96.7038 153.852 96.602 153.996 96.5289L155.488 95.7643ZM156.234 102.415L154.743 98.6138L153.253 103.942L156.234 102.415Z" fill="#455A64"/>
<path d="M160.039 97.5821C160.057 96.9319 160.157 96.2957 160.336 95.6758C160.518 95.0537 160.78 94.4662 161.123 93.9112C161.465 93.3563 161.889 92.8456 162.389 92.3814C162.891 91.9172 163.475 91.5127 164.144 91.1703C164.929 90.7688 165.577 90.5563 166.087 90.5364C166.597 90.5142 167.004 90.5954 167.306 90.777C167.609 90.9585 167.822 91.1976 167.943 91.4921C168.065 91.788 168.135 92.0537 168.153 92.2899C168.161 92.4138 168.127 92.5349 168.051 92.6544C167.974 92.774 167.886 92.8596 167.788 92.9105L166.69 93.4714C166.591 93.5223 166.511 93.5341 166.453 93.5053C166.395 93.4773 166.352 93.4367 166.323 93.388C166.306 93.3533 166.259 93.2854 166.183 93.1791C166.105 93.0744 165.984 92.988 165.816 92.9186C165.649 92.8493 165.43 92.822 165.159 92.8374C164.888 92.8537 164.55 92.9659 164.144 93.1747C163.466 93.5208 162.925 94.0153 162.518 94.6559C162.111 95.2965 161.895 95.9872 161.868 96.7267C161.849 97.1422 161.841 97.5813 161.841 98.0455C161.841 98.5119 161.849 98.9415 161.868 99.3378C161.895 100.212 162.112 100.743 162.518 100.936C162.925 101.127 163.466 101.051 164.144 100.703C164.477 100.532 164.784 100.333 165.065 100.104C165.344 99.8758 165.586 99.6123 165.789 99.3156C165.991 99.0197 166.15 98.6854 166.263 98.3127C166.376 97.9392 166.432 97.5238 166.432 97.0632V96.9356L164.78 97.7828C164.68 97.8337 164.595 97.8337 164.522 97.7865C164.451 97.737 164.414 97.6544 164.414 97.537V96.3998C164.414 96.2824 164.45 96.1629 164.522 96.0396C164.595 95.9179 164.68 95.83 164.78 95.7791L167.895 94.1836C167.995 94.1334 168.081 94.1326 168.153 94.1806C168.225 94.2286 168.261 94.312 168.261 94.4293V96.1917C168.261 96.8322 168.175 97.4662 168.003 98.0935C167.832 98.7208 167.575 99.3178 167.232 99.8831C166.888 100.448 166.46 100.972 165.944 101.455C165.43 101.938 164.829 102.355 164.143 102.707C163.456 103.058 162.86 103.257 162.354 103.302C161.847 103.348 161.429 103.262 161.095 103.049C160.761 102.836 160.506 102.505 160.329 102.057C160.153 101.606 160.056 101.067 160.038 100.435C160.029 100.237 160.023 100.016 160.019 99.7724C160.014 99.5304 160.011 99.2787 160.011 99.0219C160.011 98.7665 160.013 98.5156 160.019 98.2662C160.024 98.0175 160.031 97.7902 160.039 97.5821Z" fill="#455A64"/>
<path d="M176.281 94.3275C176.379 94.2766 176.466 94.2758 176.538 94.3238C176.611 94.3732 176.647 94.4551 176.647 94.5732V95.7098C176.647 95.8286 176.611 95.9481 176.538 96.0706C176.466 96.1924 176.38 96.2802 176.281 96.3304L170.334 99.3761C170.235 99.4263 170.149 99.4278 170.077 99.3791C170.005 99.3319 169.968 99.2477 169.968 99.1311V88.7807C169.968 88.6641 170.004 88.5438 170.077 88.422C170.148 88.2988 170.235 88.2124 170.334 88.1615L176.173 85.1711C176.273 85.1202 176.358 85.1195 176.431 85.1682C176.502 85.2161 176.539 85.2995 176.539 85.4161V86.5549C176.539 86.6715 176.503 86.7925 176.431 86.9135C176.359 87.0368 176.273 87.1231 176.173 87.174L171.798 89.4146V91.9622L175.875 89.8736C175.975 89.8235 176.06 89.8227 176.133 89.87C176.204 89.9194 176.241 90.0021 176.241 90.1194V91.2574C176.241 91.3747 176.205 91.495 176.133 91.6168C176.061 91.7386 175.975 91.8257 175.875 91.8758L171.798 93.9644V96.6241L176.281 94.3275Z" fill="#455A64"/>
<path d="M181.577 82.2427C182.182 81.9328 182.716 81.7564 183.176 81.7128C183.637 81.6693 184.02 81.7128 184.327 81.8449C184.635 81.9748 184.867 82.1734 185.025 82.4398C185.182 82.7069 185.271 82.9896 185.289 83.2907C185.298 83.4147 185.264 83.5357 185.187 83.6553C185.11 83.7755 185.022 83.8604 184.924 83.9106L183.975 84.3969C183.822 84.4752 183.707 84.5003 183.63 84.4693C183.554 84.439 183.483 84.3829 183.42 84.2973C183.284 84.1003 183.078 83.9733 182.804 83.9165C182.527 83.8597 182.119 83.9689 181.577 84.2471C181.343 84.3674 181.119 84.5121 180.906 84.6789C180.694 84.8456 180.508 85.0257 180.352 85.2191C180.194 85.4124 180.068 85.6124 179.979 85.8183C179.888 86.0257 179.843 86.2301 179.843 86.4331C179.843 86.6788 179.886 86.8574 179.972 86.9674C180.056 87.0788 180.201 87.1379 180.405 87.146C180.608 87.1534 180.878 87.1202 181.211 87.0456C181.545 86.9711 181.961 86.87 182.458 86.7438C183 86.6043 183.467 86.5275 183.86 86.5135C184.253 86.4988 184.573 86.5608 184.821 86.6951C185.07 86.8294 185.255 87.036 185.377 87.315C185.499 87.5947 185.56 87.9526 185.56 88.3917C185.56 88.8707 185.469 89.3644 185.289 89.867C185.108 90.3718 184.85 90.8559 184.517 91.3194C184.183 91.7851 183.772 92.2279 183.284 92.6485C182.797 93.0692 182.25 93.4338 181.645 93.7445C181.139 94.0042 180.655 94.1791 180.195 94.2699C179.734 94.3622 179.326 94.3629 178.97 94.2729C178.613 94.1836 178.326 94.002 178.11 93.729C177.893 93.4559 177.772 93.0906 177.744 92.6345C177.735 92.5105 177.769 92.3887 177.846 92.2699C177.922 92.1504 178.011 92.0662 178.11 92.0153L179.058 91.529C179.211 91.4507 179.328 91.4234 179.41 91.4456C179.492 91.4677 179.558 91.529 179.612 91.6293C179.675 91.7356 179.753 91.8352 179.843 91.9282C179.934 92.0212 180.055 92.081 180.209 92.1098C180.362 92.1378 180.554 92.1282 180.784 92.0795C181.015 92.0301 181.301 91.9179 181.644 91.7423C181.915 91.6035 182.177 91.4456 182.43 91.2677C182.683 91.0899 182.904 90.8973 183.093 90.6877C183.282 90.4781 183.436 90.2611 183.553 90.0353C183.671 89.8094 183.73 89.5748 183.73 89.3283C183.73 89.0936 183.666 88.9327 183.54 88.8471C183.414 88.763 183.221 88.7342 182.964 88.7578C182.707 88.7836 182.389 88.8449 182.011 88.9423C181.631 89.0419 181.192 89.1423 180.696 89.2471C180.244 89.3497 179.849 89.3998 179.51 89.3962C179.172 89.3947 178.892 89.3216 178.671 89.1777C178.45 89.0345 178.284 88.8183 178.176 88.5253C178.068 88.2338 178.014 87.8486 178.014 87.3674C178.014 86.8862 178.103 86.3977 178.284 85.8995C178.466 85.4006 178.714 84.9261 179.03 84.4767C179.346 84.0257 179.723 83.6058 180.161 83.2161C180.601 82.8257 181.071 82.5018 181.577 82.2427Z" fill="#455A64"/>
<g opacity="0.2">
<path d="M88.5198 148.835L213.465 84.8205C213.993 84.5504 214.42 84.7696 214.42 85.3098V111.757C214.42 112.297 213.992 112.954 213.465 113.223L88.5198 177.238C87.9923 177.508 87.5655 177.289 87.5655 176.75V150.303C87.5647 149.762 87.9923 149.106 88.5198 148.835Z" fill="black"/>
</g>
<path d="M220.097 88.3224C219.801 88.2051 219.404 88.2398 218.976 88.4604L95.4785 151.734C94.5525 152.21 93.7971 153.37 93.7971 154.323V179.4C93.7971 179.855 93.9685 180.187 94.2563 180.352C93.9685 180.186 91.4225 178.909 91.1114 178.744C90.8152 178.585 90.6288 178.254 90.6288 177.784V152.707C90.6288 151.754 91.3843 150.594 92.3178 150.117L215.807 86.8376C216.282 86.5962 216.71 86.5822 217.014 86.7409C217.287 86.8855 219.497 87.9977 220.097 88.3224Z" fill="#34C0C9"/>
<g opacity="0.2">
<path d="M220.097 88.3224C219.497 87.9976 217.287 86.8862 217.014 86.7408C216.71 86.5822 216.282 86.5954 215.807 86.8375L92.3179 150.117C91.852 150.355 91.4301 150.763 91.1248 151.231L94.2897 152.852C94.5942 152.382 95.0152 151.972 95.4786 151.734L218.976 88.4604C219.404 88.239 219.801 88.205 220.097 88.3224Z" fill="white"/>
</g>
<path d="M95.4795 151.734L218.973 88.4604C219.904 87.9836 220.659 88.3703 220.659 89.3238V114.402C220.659 115.355 219.904 116.515 218.973 116.991L95.4795 180.265C94.5485 180.742 93.7939 180.355 93.7939 179.402V154.325C93.7939 153.37 94.5485 152.211 95.4795 151.734Z" fill="#FAFAFA"/>
<path d="M94.2897 152.852L91.1248 151.231C90.8178 151.7 90.6281 152.23 90.6281 152.707V177.784C90.6281 178.254 90.8153 178.585 91.1106 178.744C91.4218 178.91 93.9677 180.188 94.2556 180.353C93.9677 180.187 93.7963 179.856 93.7963 179.4V154.323C93.7972 153.847 93.986 153.319 94.2897 152.852Z" fill="#34C0C9"/>
<path opacity="0.15" d="M94.2897 152.852L91.1248 151.231C90.8178 151.7 90.6281 152.23 90.6281 152.707V177.784C90.6281 178.254 90.8153 178.585 91.1106 178.744C91.4218 178.91 93.9677 180.188 94.2556 180.353C93.9677 180.187 93.7963 179.856 93.7963 179.4V154.323C93.7972 153.847 93.986 153.319 94.2897 152.852Z" fill="black"/>
<path d="M219.726 88.9467C219.876 88.9467 219.88 89.2847 219.88 89.3238V114.402C219.88 115.109 219.274 116.039 218.584 116.394L95.0901 179.668C94.8938 179.768 94.7706 179.779 94.7265 179.779C94.5768 179.779 94.5726 179.441 94.5726 179.402V154.325C94.5726 153.618 95.1783 152.686 95.8689 152.333L219.363 89.0589C219.559 88.9578 219.682 88.9467 219.726 88.9467ZM219.726 88.2559C219.5 88.2559 219.244 88.3216 218.973 88.4604L95.4795 151.734C94.5485 152.211 93.7939 153.37 93.7939 154.324V179.401C93.7939 180.077 94.1732 180.468 94.7265 180.468C94.9528 180.468 95.2091 180.403 95.4795 180.264L218.973 116.99C219.904 116.513 220.659 115.354 220.659 114.4V89.3223C220.659 88.6471 220.279 88.2559 219.726 88.2559Z" fill="#34C0C9"/>
<path d="M117.587 149.568C119.265 150.427 120.302 152.269 120.302 154.892C120.302 160.137 116.151 166.515 111.03 169.137C108.47 170.448 106.152 170.572 104.474 169.713C103.455 169.192 102.537 168.722 101.518 168.2C99.84 167.341 98.8025 165.497 98.8025 162.875C98.8025 157.63 102.954 151.252 108.075 148.63C110.635 147.318 112.953 147.194 114.631 148.054C115.65 148.576 116.568 149.046 117.587 149.568Z" fill="#34C0C9"/>
<path opacity="0.2" d="M117.587 149.568C119.265 150.427 120.302 152.269 120.302 154.892C120.302 160.137 116.151 166.515 111.03 169.137C108.47 170.448 106.152 170.572 104.474 169.713C103.455 169.192 102.537 168.722 101.518 168.2C99.84 167.341 98.8025 165.497 98.8025 162.875C98.8025 157.63 102.954 151.252 108.075 148.63C110.635 147.318 112.953 147.194 114.631 148.054C115.65 148.576 116.568 149.046 117.587 149.568Z" fill="black"/>
<path d="M111.03 169.138C108.47 170.449 106.152 170.573 104.474 169.713C102.796 168.854 101.759 167.012 101.759 164.389C101.759 159.144 105.91 152.766 111.03 150.143C113.59 148.832 115.909 148.708 117.587 149.567C119.265 150.426 120.302 152.269 120.302 154.891C120.302 160.137 116.151 166.515 111.03 169.138Z" fill="#34C0C9"/>
<path d="M115.956 155.937L112.029 157.948V153.304C112.029 152.652 111.582 152.352 111.03 152.635C110.479 152.917 110.032 153.674 110.032 154.327V158.971L106.105 160.982C105.553 161.265 105.107 162.022 105.107 162.674C105.107 163.327 105.553 163.626 106.105 163.344L110.032 161.333V165.977C110.032 166.629 110.479 166.929 111.03 166.646C111.582 166.364 112.029 165.606 112.029 164.954V160.31L115.956 158.299C116.507 158.016 116.954 157.259 116.954 156.607C116.954 155.955 116.507 155.655 115.956 155.937Z" fill="#FAFAFA"/>
<path d="M126.684 147.368L213.642 102.818C214.787 102.231 215.717 100.657 215.717 99.3016C215.717 97.9459 214.788 97.323 213.642 97.9105L126.684 142.461C125.538 143.047 124.609 144.622 124.609 145.977C124.609 147.332 125.538 147.956 126.684 147.368ZM213.642 108.241L126.684 152.791C125.538 153.378 124.609 154.953 124.609 156.308C124.609 157.663 125.538 158.286 126.684 157.699L213.642 113.149C214.787 112.562 215.717 110.987 215.717 109.632C215.717 108.277 214.788 107.654 213.642 108.241Z" fill="#E0E0E0"/>
<g opacity="0.2">
<path d="M88.5198 189.113L213.465 125.098C213.993 124.828 214.42 125.047 214.42 125.588V152.035C214.42 152.575 213.992 153.232 213.465 153.501L88.5198 217.516C87.9923 217.786 87.5655 217.567 87.5655 217.027V190.58C87.5647 190.04 87.9923 189.383 88.5198 189.113Z" fill="black"/>
</g>
<path d="M220.097 128.6C219.801 128.482 219.404 128.517 218.976 128.738L95.4785 192.011C94.5525 192.487 93.7971 193.648 93.7971 194.6V219.677C93.7971 220.133 93.9685 220.464 94.2563 220.63C93.9685 220.464 91.4225 219.186 91.1114 219.021C90.8152 218.862 90.6288 218.531 90.6288 218.061V192.984C90.6288 192.031 91.3843 190.871 92.3178 190.394L215.807 127.115C216.282 126.873 216.71 126.859 217.014 127.018C217.287 127.163 219.497 128.275 220.097 128.6Z" fill="#34C0C9"/>
<g opacity="0.2">
<path d="M220.097 128.599C219.497 128.275 217.287 127.163 217.014 127.018C216.71 126.859 216.282 126.873 215.807 127.115L92.3179 190.394C91.852 190.632 91.4301 191.04 91.1248 191.508L94.2897 193.129C94.5942 192.659 95.0152 192.249 95.4786 192.011L218.976 128.737C219.404 128.517 219.801 128.482 220.097 128.599Z" fill="white"/>
</g>
<path d="M95.4795 192.011L218.973 128.737C219.904 128.261 220.659 128.647 220.659 129.601V154.679C220.659 155.632 219.904 156.792 218.973 157.269L95.4795 220.542C94.5485 221.019 93.7939 220.632 93.7939 219.679V194.601C93.7939 193.648 94.5485 192.488 95.4795 192.011Z" fill="#FAFAFA"/>
<path d="M94.2897 193.129L91.1248 191.508C90.8178 191.977 90.6281 192.507 90.6281 192.984V218.061C90.6281 218.53 90.8153 218.862 91.1106 219.021C91.4218 219.187 93.9677 220.464 94.2556 220.63C93.9677 220.463 93.7963 220.132 93.7963 219.677V194.6C93.7972 194.125 93.986 193.597 94.2897 193.129Z" fill="#34C0C9"/>
<path opacity="0.15" d="M94.2897 193.129L91.1248 191.508C90.8178 191.977 90.6281 192.507 90.6281 192.984V218.061C90.6281 218.53 90.8153 218.862 91.1106 219.021C91.4218 219.187 93.9677 220.464 94.2556 220.63C93.9677 220.463 93.7963 220.132 93.7963 219.677V194.6C93.7972 194.125 93.986 193.597 94.2897 193.129Z" fill="black"/>
<path d="M219.726 129.224C219.876 129.224 219.88 129.562 219.88 129.601V154.679C219.88 155.386 219.274 156.317 218.584 156.671L95.0901 219.945C94.8938 220.046 94.7706 220.056 94.7265 220.056C94.5768 220.056 94.5726 219.718 94.5726 219.679V194.601C94.5726 193.894 95.1783 192.963 95.8689 192.609L219.363 129.335C219.559 129.235 219.682 129.224 219.726 129.224ZM219.726 128.534C219.5 128.534 219.244 128.599 218.973 128.738L95.4795 192.012C94.5485 192.489 93.7939 193.648 93.7939 194.602V219.68C93.7939 220.356 94.1732 220.747 94.7265 220.747C94.9528 220.747 95.2091 220.681 95.4795 220.542L218.973 157.269C219.904 156.792 220.659 155.632 220.659 154.679V129.601C220.659 128.924 220.279 128.534 219.726 128.534Z" fill="#34C0C9"/>
<path d="M117.587 189.845C119.265 190.704 120.302 192.546 120.302 195.169C120.302 200.414 116.151 206.792 111.03 209.414C108.47 210.726 106.152 210.85 104.474 209.991C103.455 209.469 102.537 208.999 101.518 208.477C99.84 207.618 98.8025 205.774 98.8025 203.152C98.8025 197.906 102.954 191.529 108.075 188.907C110.635 187.595 112.953 187.471 114.631 188.331C115.65 188.853 116.568 189.323 117.587 189.845Z" fill="#34C0C9"/>
<path opacity="0.2" d="M117.587 189.845C119.265 190.704 120.302 192.546 120.302 195.169C120.302 200.414 116.151 206.792 111.03 209.414C108.47 210.726 106.152 210.85 104.474 209.991C103.455 209.469 102.537 208.999 101.518 208.477C99.84 207.618 98.8025 205.774 98.8025 203.152C98.8025 197.906 102.954 191.529 108.075 188.907C110.635 187.595 112.953 187.471 114.631 188.331C115.65 188.853 116.568 189.323 117.587 189.845Z" fill="black"/>
<path d="M111.03 209.415C108.47 210.726 106.152 210.85 104.474 209.991C102.796 209.131 101.759 207.289 101.759 204.666C101.759 199.421 105.91 193.043 111.03 190.42C113.59 189.109 115.909 188.985 117.587 189.845C119.265 190.704 120.302 192.546 120.302 195.169C120.302 200.414 116.151 206.793 111.03 209.415Z" fill="#34C0C9"/>
<path d="M115.956 196.214L112.029 198.225V193.581C112.029 192.929 111.582 192.629 111.03 192.912C110.479 193.194 110.032 193.952 110.032 194.604V199.248L106.105 201.259C105.553 201.542 105.107 202.299 105.107 202.952C105.107 203.604 105.553 203.904 106.105 203.621L110.032 201.61V206.254C110.032 206.906 110.479 207.206 111.03 206.923C111.582 206.641 112.029 205.884 112.029 205.231V200.587L115.956 198.576C116.507 198.293 116.954 197.536 116.954 196.884C116.954 196.231 116.507 195.932 115.956 196.214Z" fill="#FAFAFA"/>
<path d="M126.684 187.646L213.642 143.096C214.787 142.509 215.717 140.934 215.717 139.579C215.717 138.224 214.788 137.601 213.642 138.188L126.684 182.738C125.538 183.325 124.609 184.9 124.609 186.255C124.609 187.61 125.538 188.233 126.684 187.646ZM213.642 148.518L126.684 193.068C125.538 193.655 124.609 195.23 124.609 196.585C124.609 197.94 125.538 198.563 126.684 197.976L213.642 153.426C214.787 152.839 215.717 151.264 215.717 149.909C215.717 148.554 214.788 147.931 213.642 148.518Z" fill="#E0E0E0"/>
<g opacity="0.2">
<path d="M88.5198 229.39L213.465 165.375C213.993 165.105 214.42 165.325 214.42 165.865V192.312C214.42 192.852 213.992 193.509 213.465 193.779L88.5198 257.794C87.9923 258.064 87.5655 257.845 87.5655 257.304V230.857C87.5647 230.317 87.9923 229.66 88.5198 229.39Z" fill="black"/>
</g>
<path d="M220.097 168.877C219.801 168.759 219.404 168.794 218.976 169.015L95.4785 232.288C94.5525 232.765 93.7971 233.925 93.7971 234.877V259.954C93.7971 260.409 93.9685 260.741 94.2563 260.907C93.9685 260.741 91.4225 259.463 91.1114 259.298C90.8152 259.139 90.6288 258.808 90.6288 258.338V233.261C90.6288 232.308 91.3843 231.148 92.3178 230.672L215.807 167.392C216.282 167.15 216.71 167.136 217.014 167.295C217.287 167.44 219.497 168.553 220.097 168.877Z" fill="#34C0C9"/>
<g opacity="0.2">
<path d="M220.097 168.877C219.497 168.552 217.287 167.44 217.014 167.295C216.71 167.136 216.282 167.15 215.807 167.392L92.3179 230.671C91.852 230.909 91.4301 231.317 91.1248 231.785L94.2897 233.406C94.5942 232.936 95.0152 232.526 95.4786 232.288L218.976 169.015C219.404 168.794 219.801 168.759 220.097 168.877Z" fill="white"/>
</g>
<path d="M95.4795 232.289L218.973 169.015C219.904 168.539 220.659 168.925 220.659 169.879V194.957C220.659 195.91 219.904 197.07 218.973 197.546L95.4795 260.82C94.5485 261.297 93.7939 260.91 93.7939 259.957V234.879C93.7939 233.925 94.5485 232.766 95.4795 232.289Z" fill="#FAFAFA"/>
<path d="M94.2897 233.407L91.1248 231.786C90.8178 232.255 90.6281 232.784 90.6281 233.262V258.338C90.6281 258.808 90.8153 259.139 91.1106 259.299C91.4218 259.465 93.9677 260.742 94.2556 260.907C93.9677 260.741 93.7963 260.41 93.7963 259.955V234.878C93.7972 234.402 93.986 233.874 94.2897 233.407Z" fill="#34C0C9"/>
<path opacity="0.15" d="M94.2897 233.407L91.1248 231.786C90.8178 232.255 90.6281 232.784 90.6281 233.262V258.338C90.6281 258.808 90.8153 259.139 91.1106 259.299C91.4218 259.465 93.9677 260.742 94.2556 260.907C93.9677 260.741 93.7963 260.41 93.7963 259.955V234.878C93.7972 234.402 93.986 233.874 94.2897 233.407Z" fill="black"/>
<path d="M219.726 169.502C219.876 169.502 219.88 169.84 219.88 169.879V194.957C219.88 195.664 219.274 196.594 218.584 196.949L95.0901 260.222C94.8938 260.324 94.7706 260.334 94.7265 260.334C94.5768 260.334 94.5726 259.996 94.5726 259.957V234.879C94.5726 234.172 95.1783 233.241 95.8689 232.887L219.363 169.613C219.559 169.513 219.682 169.502 219.726 169.502ZM219.726 168.811C219.5 168.811 219.244 168.877 218.973 169.015L95.4795 232.289C94.5485 232.766 93.7939 233.925 93.7939 234.879V259.957C93.7939 260.633 94.1732 261.024 94.7265 261.024C94.9528 261.024 95.2091 260.958 95.4795 260.82L218.973 197.546C219.904 197.069 220.659 195.909 220.659 194.956V169.878C220.659 169.202 220.279 168.811 219.726 168.811Z" fill="#34C0C9"/>
<path d="M117.587 230.122C119.265 230.981 120.302 232.824 120.302 235.447C120.302 240.692 116.151 247.07 111.03 249.693C108.47 251.004 106.152 251.128 104.474 250.269C103.455 249.747 102.537 249.277 101.518 248.755C99.84 247.896 98.8025 246.053 98.8025 243.431C98.8025 238.186 102.954 231.808 108.075 229.185C110.635 227.874 112.953 227.75 114.631 228.61C115.65 229.13 116.568 229.601 117.587 230.122Z" fill="#34C0C9"/>
<path opacity="0.2" d="M117.587 230.122C119.265 230.981 120.302 232.824 120.302 235.447C120.302 240.692 116.151 247.07 111.03 249.693C108.47 251.004 106.152 251.128 104.474 250.269C103.455 249.747 102.537 249.277 101.518 248.755C99.84 247.896 98.8025 246.053 98.8025 243.431C98.8025 238.186 102.954 231.808 108.075 229.185C110.635 227.874 112.953 227.75 114.631 228.61C115.65 229.13 116.568 229.601 117.587 230.122Z" fill="black"/>
<path d="M111.03 249.692C108.47 251.003 106.152 251.127 104.474 250.268C102.796 249.409 101.759 247.566 101.759 244.943C101.759 239.698 105.91 233.32 111.03 230.697C113.59 229.386 115.909 229.262 117.587 230.121C119.265 230.981 120.302 232.823 120.302 235.446C120.302 240.692 116.151 247.07 111.03 249.692Z" fill="#34C0C9"/>
<path d="M115.956 236.492L112.029 238.503V233.859C112.029 233.207 111.582 232.907 111.03 233.19C110.479 233.472 110.032 234.229 110.032 234.882V239.526L106.105 241.537C105.553 241.82 105.107 242.577 105.107 243.229C105.107 243.882 105.553 244.181 106.105 243.899L110.032 241.888V246.532C110.032 247.184 110.479 247.484 111.03 247.201C111.582 246.919 112.029 246.161 112.029 245.509V240.865L115.956 238.854C116.507 238.571 116.954 237.814 116.954 237.161C116.954 236.509 116.507 236.209 115.956 236.492Z" fill="#FAFAFA"/>
<path d="M126.684 227.923L213.642 183.373C214.787 182.786 215.717 181.211 215.717 179.856C215.717 178.502 214.788 177.879 213.642 178.465L126.684 223.015C125.538 223.602 124.609 225.177 124.609 226.532C124.609 227.887 125.538 228.51 126.684 227.923ZM213.642 188.796L126.684 233.346C125.538 233.933 124.609 235.508 124.609 236.863C124.609 238.218 125.538 238.841 126.684 238.254L213.642 193.704C214.787 193.117 215.717 191.542 215.717 190.187C215.717 188.832 214.788 188.208 213.642 188.796Z" fill="#E0E0E0"/>
<g opacity="0.2">
<path d="M88.5198 269.668L213.465 205.653C213.993 205.383 214.42 205.602 214.42 206.143V232.59C214.42 233.13 213.992 233.787 213.465 234.057L88.5198 298.072C87.9923 298.342 87.5655 298.122 87.5655 297.582V271.135C87.5647 270.594 87.9923 269.938 88.5198 269.668Z" fill="black"/>
</g>
<path d="M220.097 209.154C219.801 209.037 219.404 209.072 218.976 209.292L95.4785 272.566C94.5525 273.042 93.7971 274.202 93.7971 275.155V300.232C93.7971 300.688 93.9685 301.019 94.2563 301.184C93.9685 301.018 91.4225 299.741 91.1114 299.576C90.8152 299.417 90.6288 299.086 90.6288 298.616V273.539C90.6288 272.586 91.3843 271.426 92.3178 270.949L215.807 207.67C216.282 207.428 216.71 207.414 217.014 207.573C217.287 207.718 219.497 208.83 220.097 209.154Z" fill="#34C0C9"/>
<g opacity="0.2">
<path d="M220.097 209.154C219.497 208.83 217.287 207.718 217.014 207.573C216.71 207.414 216.282 207.427 215.807 207.669L92.3179 270.949C91.852 271.187 91.4301 271.595 91.1248 272.063L94.2897 273.684C94.5942 273.214 95.0152 272.804 95.4786 272.565L218.976 209.292C219.404 209.072 219.801 209.037 220.097 209.154Z" fill="white"/>
</g>
<path d="M95.4795 272.566L218.973 209.292C219.904 208.816 220.659 209.202 220.659 210.156V235.234C220.659 236.187 219.904 237.347 218.973 237.823L95.4795 301.097C94.5485 301.574 93.7939 301.187 93.7939 300.234V275.157C93.7939 274.202 94.5485 273.043 95.4795 272.566Z" fill="#FAFAFA"/>
<path d="M94.2897 273.684L91.1248 272.063C90.8178 272.532 90.6281 273.061 90.6281 273.539V298.615C90.6281 299.085 90.8153 299.416 91.1106 299.576C91.4218 299.742 93.9677 301.019 94.2556 301.184C93.9677 301.018 93.7963 300.687 93.7963 300.232V275.155C93.7972 274.679 93.986 274.151 94.2897 273.684Z" fill="#34C0C9"/>
<path opacity="0.15" d="M94.2897 273.684L91.1248 272.063C90.8178 272.532 90.6281 273.061 90.6281 273.539V298.615C90.6281 299.085 90.8153 299.416 91.1106 299.576C91.4218 299.742 93.9677 301.019 94.2556 301.184C93.9677 301.018 93.7963 300.687 93.7963 300.232V275.155C93.7972 274.679 93.986 274.151 94.2897 273.684Z" fill="black"/>
<path d="M219.726 209.779C219.876 209.779 219.88 210.117 219.88 210.156V235.234C219.88 235.941 219.274 236.871 218.584 237.226L95.0901 300.5C94.8938 300.601 94.7706 300.611 94.7265 300.611C94.5768 300.611 94.5726 300.273 94.5726 300.234V275.157C94.5726 274.45 95.1783 273.519 95.8689 273.165L219.363 209.891C219.559 209.79 219.682 209.779 219.726 209.779ZM219.726 209.088C219.5 209.088 219.244 209.154 218.973 209.292L95.4795 272.566C94.5485 273.043 93.7939 274.202 93.7939 275.156V300.233C93.7939 300.91 94.1732 301.3 94.7265 301.3C94.9528 301.3 95.2091 301.235 95.4795 301.096L218.973 237.822C219.904 237.345 220.659 236.186 220.659 235.232V210.154C220.659 209.479 220.279 209.088 219.726 209.088Z" fill="#34C0C9"/>
<path d="M117.587 270.4C119.265 271.259 120.302 273.101 120.302 275.724C120.302 280.969 116.151 287.347 111.03 289.969C108.47 291.28 106.152 291.404 104.474 290.545C103.455 290.024 102.537 289.554 101.518 289.032C99.84 288.173 98.8025 286.329 98.8025 283.707C98.8025 278.461 102.954 272.084 108.075 269.462C110.635 268.15 112.953 268.027 114.631 268.886C115.65 269.408 116.568 269.878 117.587 270.4Z" fill="#34C0C9"/>
<path opacity="0.2" d="M117.587 270.4C119.265 271.259 120.302 273.101 120.302 275.724C120.302 280.969 116.151 287.347 111.03 289.969C108.47 291.28 106.152 291.404 104.474 290.545C103.455 290.024 102.537 289.554 101.518 289.032C99.84 288.173 98.8025 286.329 98.8025 283.707C98.8025 278.461 102.954 272.084 108.075 269.462C110.635 268.15 112.953 268.027 114.631 268.886C115.65 269.408 116.568 269.878 117.587 270.4Z" fill="black"/>
<path d="M111.03 289.97C108.47 291.281 106.152 291.405 104.474 290.545C102.796 289.686 101.759 287.844 101.759 285.221C101.759 279.976 105.91 273.598 111.03 270.975C113.59 269.664 115.909 269.54 117.587 270.399C119.265 271.259 120.302 273.101 120.302 275.724C120.302 280.969 116.151 287.347 111.03 289.97Z" fill="#34C0C9"/>
<path d="M115.956 276.769L112.029 278.78V274.136C112.029 273.484 111.582 273.184 111.03 273.467C110.479 273.749 110.032 274.506 110.032 275.159V279.803L106.105 281.814C105.553 282.097 105.107 282.854 105.107 283.506C105.107 284.159 105.553 284.458 106.105 284.176L110.032 282.165V286.809C110.032 287.461 110.479 287.761 111.03 287.478C111.582 287.196 112.029 286.438 112.029 285.786V281.142L115.956 279.131C116.507 278.848 116.954 278.091 116.954 277.439C116.954 276.787 116.507 276.487 115.956 276.769Z" fill="#FAFAFA"/>
<path d="M126.684 268.201L213.642 223.651C214.787 223.064 215.717 221.489 215.717 220.134C215.717 218.779 214.788 218.156 213.642 218.743L126.684 263.293C125.538 263.88 124.609 265.455 124.609 266.81C124.609 268.165 125.538 268.788 126.684 268.201ZM213.642 229.073L126.684 273.623C125.538 274.21 124.609 275.785 124.609 277.14C124.609 278.495 125.538 279.118 126.684 278.531L213.642 233.981C214.787 233.394 215.717 231.819 215.717 230.464C215.717 229.109 214.788 228.486 213.642 229.073Z" fill="#E0E0E0"/>
<path d="M242.462 282.68L248.138 285.586L257.48 280.802V186.945L263.708 183.756L253.024 176.47L247.348 173.564L236.235 192.012L241.911 194.918L242.463 194.636L242.462 282.68Z" fill="#2CE6F2"/>
<path opacity="0.8" d="M242.462 282.68L248.138 285.586L257.48 280.802V186.945L263.708 183.756L253.024 176.47L247.348 173.564L236.235 192.012L241.911 194.918L242.463 194.636L242.462 282.68Z" fill="white"/>
<path d="M248.138 285.586L257.48 280.802V186.945L263.708 183.756L253.024 176.47L241.911 194.918L248.138 191.729V285.586Z" fill="#2CE6F2"/>
<path opacity="0.7" d="M248.138 285.586L257.48 280.802V186.945L263.708 183.756L253.024 176.47L241.911 194.918L248.138 191.729V285.586Z" fill="white"/>
<path d="M242.462 282.68L248.138 285.586V191.729L242.463 194.636L242.462 282.68Z" fill="#2CE6F2"/>
<path opacity="0.5" d="M242.462 282.68L248.138 285.586V191.729L242.463 194.636L242.462 282.68Z" fill="white"/>
<path d="M269.02 270.512L273.273 272.69L280.274 269.105V214.416L284.942 212.026L276.935 206.566L272.681 204.388L264.353 218.213L268.606 220.392L269.02 220.179V270.512Z" fill="#F5F5F5"/>
<path d="M273.273 272.69L280.274 269.105V214.416L284.942 212.026L276.935 206.566L268.606 220.392L273.273 218.002V272.69Z" fill="#EBEBEB"/>
<path d="M269.02 270.512L273.273 272.69V218.002L269.02 220.179V270.512Z" fill="#E0E0E0"/>
<path d="M362.541 276.509C362.541 276.509 366.608 277.177 368.883 279.855C371.157 282.532 376.146 290.529 377.146 291.428C377.146 291.428 376.195 292.849 374.777 293.54L372.073 290.706C371.399 290.192 370.295 288.912 370.283 290.549C370.272 292.187 370.467 293.716 370.662 296.891C370.78 298.818 371.5 302.63 367.676 306.26C364.101 309.654 359.844 311.925 357.233 312.2C355.677 312.364 352.19 312.012 352.429 309.271C352.557 307.817 354.647 302.342 354.977 299.69C355.321 296.937 362.541 276.509 362.541 276.509Z" fill="#263238"/>
<path d="M363.161 277.274C362.654 276.676 361.072 274.177 360.308 273.014C359.545 271.849 356.386 265.737 352.5 256.349C347.497 244.263 338.901 235.253 336.279 230.698C333.525 225.911 330.693 220.385 328.979 215.23L317.851 221.5L303.415 220.986C303.222 222.885 304.038 225.432 305.577 228.416L305.574 228.418C305.588 228.443 305.604 228.469 305.616 228.495C305.756 228.765 305.91 229.043 306.061 229.319C309.14 234.992 314.464 241.88 320.421 248.852C320.469 248.908 320.516 248.964 320.565 249.02C320.635 249.102 320.705 249.185 320.775 249.267C326.516 256.009 332.841 262.875 338.362 268.824L338.369 268.684C344.302 275.054 349.101 280.222 350.794 282.805C355.743 290.352 354.982 297.635 354.916 301.611C354.875 304.096 357.049 304.61 360.032 302.5C366.111 298.201 366.68 292.187 366.711 290.676C366.912 281.12 366.099 280.732 363.161 277.274Z" fill="#FFBDA7"/>
<path d="M303.455 151.01C302.32 158.719 301.206 165.891 300.232 186.318C299.413 203.492 298.566 212.691 300.025 221.166C300.545 224.186 302.3 227.707 305.614 232.142C315.998 246.031 336.353 267.831 336.353 267.831C336.353 267.831 340.895 267.698 346.337 263.608C351.597 259.656 351.746 253.914 351.746 253.914C351.746 253.914 351.165 250.718 342.576 237.907C333.986 225.096 332.709 211.122 332.709 211.122L337.377 156.192C324.354 157.434 309.6 155.398 303.455 151.01Z" fill="#455A64"/>
<path d="M346.338 263.608C351.597 259.656 351.747 253.913 351.747 253.913C351.747 253.913 351.166 250.717 342.577 237.906C333.988 225.095 332.71 211.121 332.71 211.121L336.284 169.069C326.059 167.77 311.824 168.088 311.824 168.088C311.643 174.099 313.206 181.522 322.723 185.866C322.723 185.866 321.413 215.427 321.319 224.072C321.248 230.667 323.591 247.421 324.708 255.002C331.173 262.281 336.353 267.829 336.353 267.829C336.353 267.829 340.895 267.698 346.338 263.608Z" fill="#37474F"/>
<path d="M344.322 293.945C344.322 293.945 347.323 296.655 347.586 300.256C347.85 303.857 347.125 313.677 347.412 315.008C347.412 315.008 345.742 315.801 344.128 315.693L343.6 311.728C343.351 310.914 343.462 310.265 342.446 311.741C341.43 313.217 340.583 314.869 339 317.015C337.745 318.716 335.974 322.733 330.538 324.039C325.455 325.259 319.597 324.677 317.239 323.575C315.834 322.917 313.315 321.879 315.199 319.523C316.198 318.272 321.84 313.24 323.745 311.011C325.724 308.694 344.322 293.945 344.322 293.945Z" fill="#263238"/>
<path d="M330.604 293.562C331.087 284.17 322.164 241.003 325.346 220.864L353.796 221.11C352.069 226.662 351.051 233.129 350.423 238.888C349.824 244.367 351.503 256.971 348.279 270.499C345.774 281.008 344.67 288.175 344.596 289.624C344.521 291.074 344.313 294.154 344.372 294.957C344.713 299.608 343.851 302.236 337.923 309.482C336.778 310.882 333.998 315.425 326.261 316.169C322.463 316.534 320.955 314.944 322.516 312.716C325.012 309.152 330.122 302.956 330.604 293.562Z" fill="#FFBDA7"/>
<path d="M350.423 238.888C350.31 241.02 350.403 243.15 350.48 245.282C350.545 247.414 350.6 249.548 350.616 251.685C350.625 255.958 350.381 260.242 349.782 264.492C349.48 266.616 349.035 268.722 348.546 270.811L347.085 277.055C346.606 279.137 346.155 281.226 345.733 283.32C345.302 285.413 344.875 287.509 344.595 289.625C344.91 285.361 345.725 281.148 346.534 276.949C347.331 272.737 348.524 268.613 349.058 264.397C349.394 262.297 349.591 260.177 349.764 258.058C349.919 255.936 349.982 253.809 350.055 251.681C350.108 249.552 350.114 247.42 350.123 245.286C350.167 243.155 350.146 241.01 350.423 238.888Z" fill="#F0997A"/>
<path d="M303.455 151.01C303.455 151.01 306.741 160.956 310.408 169.963C313.594 177.787 319.555 182.135 325.787 183.895C325.787 183.895 324.246 219.252 323.765 224.176C323.284 229.1 324.834 246.902 326.172 258.615C327.51 270.329 327.92 274.339 327.92 274.339C327.92 274.339 330.693 276.943 338.359 276.971C346.024 276.999 348.411 274.068 348.411 274.068C348.411 274.068 353.054 260.445 353.102 249.801C353.129 243.7 351.622 240.692 352.801 234.63C353.981 228.569 362.945 201.523 364.34 188.741C365.736 175.96 363.199 164.781 353.091 151.86C342.521 158.382 313.255 157.134 303.455 151.01Z" fill="#455A64"/>
<path d="M348.752 153.892C354.223 160.604 362.169 174.493 356.97 194.619C355.492 200.343 354.015 205.867 352.586 211.209C349.239 223.72 346.597 233.601 346.276 237.363C346.098 239.444 346.381 241.415 346.708 243.696C347.221 247.271 347.86 251.721 346.928 258.601C346.059 265.032 344.762 271.797 343.82 276.375C344.143 276.295 344.446 276.209 344.73 276.12C345.667 271.54 346.919 264.957 347.767 258.69C348.71 251.719 348.064 247.218 347.545 243.602C347.224 241.361 346.946 239.426 347.116 237.421C347.432 233.717 350.069 223.86 353.406 211.383C354.836 206.039 356.314 200.514 357.792 194.788C363.028 174.516 355.103 160.465 349.551 153.593C349.289 153.695 349.022 153.796 348.752 153.892Z" fill="#37474F"/>
<path d="M303.245 148.869C303.245 148.869 315.338 153.719 329.568 153.857C345.629 154.012 353.252 149.562 353.252 149.562C353.252 149.562 353.266 151.927 354.795 154.12C354.795 154.12 345.58 159.022 329.618 158.607C313.656 158.192 303.063 153.342 303.063 153.342C303.063 153.342 303.442 151.017 303.245 148.869Z" fill="#37474F"/>
<path d="M319.052 104.972C312.398 106.035 309.224 107.874 304.223 114.99C299.223 122.106 284.084 141.002 284.084 141.002C284.084 141.002 287.498 148.653 299.914 150.638C305.71 143.296 317.156 128.737 317.156 128.737L319.052 104.972Z" fill="#34C0C9"/>
<path opacity="0.3" d="M318.863 104.972C312.209 106.035 309.035 107.874 304.034 114.99C299.034 122.106 283.895 141.002 283.895 141.002C283.895 141.002 287.31 148.653 299.726 150.638C305.521 143.296 316.967 128.737 316.967 128.737L318.863 104.972Z" fill="black"/>
<path d="M355.345 147.084C355.346 148.612 359.727 156.29 362.116 164.567C347.759 180.984 305.241 172.026 302.129 162.787C302.798 151.807 303.37 124.078 306.08 119.062C310.93 110.092 319.104 105.304 319.104 105.304C322.968 104.577 327.001 104.341 328.174 104.236C330.553 104.021 335.421 103.682 341.772 104.545C345.798 105.092 352.411 106.645 352.411 106.645C354.93 108.534 361.918 116.494 360.301 126.087C359.56 130.492 355.335 136.238 355.345 147.084Z" fill="#FAFAFA"/>
<path d="M343.324 103.986L343.266 105.337C343.266 105.337 337.256 118.881 337.061 129.87C336.865 140.86 340.865 183.814 340.865 183.814C340.865 183.814 351.011 182.654 356.668 180.317L357.059 169.921L359.693 179.365C359.693 179.365 363.107 178.413 364.863 176.164C364.863 172.096 363.692 163.617 359.693 154.618C355.693 145.618 355.498 143.974 358.327 135.062C361.155 126.15 363.399 121.997 360.083 115.593C356.766 109.19 352.879 106.271 352.879 106.271L343.324 103.986Z" fill="#8CDDE2"/>
<path d="M326.388 103.986L326.334 105.572C326.334 105.572 320.835 110.57 315.886 116.617C310.938 122.663 311.039 125.081 309.019 134.487C306.999 143.893 306.258 175.255 306.258 175.255C306.258 175.255 301.697 174.126 300.233 173.454C300.233 173.454 301.495 154.98 301.949 148.653C302.404 142.326 303.06 127.814 304.121 123.649C305.181 119.484 304.878 118.543 308.918 113.661C312.958 108.779 319.053 104.972 319.053 104.972L326.388 103.986Z" fill="#8CDDE2"/>
<path d="M318.78 156.969C318.386 155.942 314.909 154 314.157 151.919C313.711 150.686 314.627 148.899 316.108 150.125C319.21 152.697 321.488 153.058 323.527 154.334" fill="#FFBDA7"/>
<path d="M240.452 137.652C239.683 139.971 241.774 144.799 245.173 145.686C245.173 145.686 243.435 147.5 242.512 150.283C241.397 153.646 243.942 157.963 249.171 159.328C254.399 160.692 289.169 169.764 289.169 169.764L294.9 171.327L308.241 131.095L302.472 129.647C302.472 129.647 296.259 112.405 295.983 109.813C295.707 107.221 300.136 97.2905 300.751 95.4352C301.365 93.5799 291.662 90.2921 286.295 96.199C280.927 102.105 278.821 107.603 278.574 114.341L254.397 108.033C249.294 106.702 245.819 110.33 244.972 112.881C243.78 116.475 245.741 119.128 246.818 120.165C246.818 120.165 241.635 119.946 239.982 124.932C239.059 127.715 240.282 131.309 243.711 132.96C243.712 132.959 241.605 134.173 240.452 137.652Z" fill="#FAFAFA"/>
<path d="M300.751 95.4345C301.366 93.5791 291.663 90.2913 286.295 96.1983C280.928 102.105 278.822 107.602 278.574 114.341L278.877 114.711L283.179 115.788C286.825 95.03 296.145 94.3437 300.751 95.4345Z" fill="#E0E0E0"/>
<path d="M293.113 176.668L310.542 181.215L326.025 134.526L308.596 129.978L293.113 176.668Z" fill="#34C0C9"/>
<path opacity="0.2" d="M293.113 176.668L310.542 181.215L326.025 134.526L308.596 129.978L293.113 176.668Z" fill="black"/>
<path d="M243.713 132.96C243.713 132.96 241.606 134.174 240.452 137.652C240.396 137.823 240.356 138.01 240.33 138.21C239.999 140.663 242.025 144.865 245.173 145.686C245.173 145.686 243.435 147.5 242.512 150.283C242.4 150.622 242.326 150.965 242.288 151.318C241.932 154.48 244.465 158.1 249.171 159.327L257.202 161.422C252.496 160.194 249.964 156.576 250.32 153.413C250.357 153.06 250.431 152.717 250.543 152.379C251.466 149.596 253.204 147.782 253.204 147.782C250.057 146.96 248.03 142.758 248.361 140.305C248.388 140.105 248.427 139.919 248.483 139.747C249.637 136.269 251.744 135.055 251.744 135.055C248.315 133.404 247.092 129.81 248.015 127.027C248.028 126.99 248.042 126.948 248.059 126.912C249.746 122.047 254.852 122.259 254.852 122.259C253.775 121.222 251.815 118.569 253.006 114.975C253.055 114.827 253.112 114.675 253.181 114.517C254.265 112.018 257.625 108.874 262.431 110.127L254.4 108.032C249.595 106.778 246.235 109.923 245.15 112.422C245.08 112.58 245.024 112.732 244.975 112.88C243.783 116.474 245.744 119.127 246.82 120.164C246.82 120.164 241.716 119.951 240.028 124.817C240.01 124.853 239.996 124.895 239.985 124.932C239.061 127.715 240.283 131.309 243.713 132.96Z" fill="#E0E0E0"/>
<path d="M289.08 170.032L249.082 159.595C246.562 158.938 244.471 157.555 243.193 155.7C241.988 153.953 241.63 151.949 242.209 150.204C242.928 148.038 244.115 146.463 244.654 145.821C243.2 145.292 241.872 144.041 240.964 142.326C240.07 140.638 239.751 138.773 240.149 137.573C241.035 134.9 242.467 133.529 243.153 132.995C239.761 131.126 238.816 127.462 239.68 124.853C241.023 120.802 244.662 120.05 246.168 119.913C245.18 118.785 243.529 116.248 244.671 112.801C245.061 111.625 246.115 109.95 247.901 108.776C249.258 107.885 251.5 106.986 254.485 107.764L278.274 113.971C278.599 107.034 280.937 101.648 286.049 96.0234C289.863 91.8264 296.131 92.0493 299.361 93.5496C300.651 94.1489 301.269 94.8647 301.053 95.5142C300.903 95.9688 300.53 96.8913 300.058 98.0595C298.673 101.491 296.094 107.88 296.297 109.786C296.553 112.194 302.122 127.752 302.721 129.417L308.633 130.902L295.111 171.677L289.08 170.032ZM302.223 129.875L302.172 129.732C301.919 129.026 295.946 112.431 295.669 109.839C295.453 107.809 297.965 101.588 299.466 97.8706C299.934 96.7105 300.304 95.7946 300.449 95.3555C300.564 95.0079 300.009 94.4817 299.07 94.0448C296.027 92.633 290.131 92.4234 286.542 96.3739C281.435 101.993 279.146 107.369 278.891 114.349L278.878 114.711L254.309 108.301C251.57 107.587 249.518 108.41 248.278 109.225C246.616 110.318 245.637 111.87 245.277 112.959C244.04 116.691 246.322 119.272 247.051 119.974L247.57 120.474L246.805 120.445C246.595 120.427 241.847 120.305 240.286 125.011C239.457 127.511 240.43 131.061 243.863 132.714L244.324 132.937L243.885 133.194C243.865 133.206 241.857 134.409 240.755 137.731C240.398 138.808 240.704 140.518 241.535 142.087C242.457 143.827 243.815 145.041 245.262 145.418L245.728 145.54L245.415 145.869C245.398 145.886 243.709 147.675 242.816 150.363C242.288 151.956 242.621 153.796 243.733 155.41C244.929 157.145 246.892 158.441 249.261 159.06L289.261 169.496L294.688 170.976L307.849 131.287L302.223 129.875Z" fill="#455A64"/>
<path opacity="0.2" d="M293.112 176.668L310.541 181.215L318.282 157.871L300.853 153.323L293.112 176.668Z" fill="black"/>
<path d="M306.366 173.578C306.776 172.341 305.978 171.043 304.583 170.679C303.187 170.315 301.724 171.023 301.313 172.26C300.903 173.498 301.701 174.796 303.096 175.161C304.492 175.524 305.956 174.816 306.366 173.578Z" fill="#F0F0F0"/>
<path d="M323.527 154.334C325.566 155.609 327.667 156.051 331.72 156.211C336.025 156.381 353.094 150.166 353.094 150.166L349.949 130.031C349.949 130.031 346.34 114.809 352.964 106.751C363.526 108.741 364.359 111.507 365.671 115.403C366.677 118.39 367.846 122.273 369.37 135.295C370.738 146.976 370.885 150.04 370.737 155.928C370.609 161.014 366.032 162.648 358.083 164.285C350.135 165.923 345.026 166.53 333.74 168.005C328.313 168.714 325.24 168.387 320.53 168.295C318.193 168.249 316.814 168.048 315.26 167.612C313.706 167.175 312.208 166.496 311.068 165.463C310.853 165.268 310.681 165.061 310.41 164.928C310.151 164.8 309.876 164.704 309.6 164.612C309.076 164.437 308.533 164.28 308.083 163.976C307.606 163.654 307.278 163.201 306.886 162.806C306.703 162.621 306.56 162.42 306.349 162.254C306.136 162.087 305.898 161.947 305.654 161.816C305.027 161.48 304.325 161.175 303.863 160.657C303.433 160.176 303.669 159.674 303.669 159.674C303.669 159.674 302.78 159.354 302.484 159.231C302.068 159.058 301.675 158.845 301.312 158.596C301.169 158.498 301.019 158.375 301.014 158.215C301.012 158.121 301.06 158.032 301.113 157.95C301.965 156.647 303.694 156.656 305.183 156.773C309.056 157.077 311.413 157.986 315.326 157.909C317.454 157.868 318.034 157.822 318.615 157.46C318.815 157.335 318.856 157.17 318.778 156.97" fill="#FFBDA7"/>
<path d="M353.094 150.166C357.611 148.169 361.645 147.321 361.645 147.321C361.645 147.321 358.95 146.38 352.88 148.793L353.094 150.166Z" fill="#F0997A"/>
<path d="M303.809 159.816C304.695 160.171 305.615 160.452 306.534 160.727C307.451 161.004 308.378 161.253 309.295 161.522C309.754 161.649 310.208 161.802 310.685 161.917C311.158 162.028 311.631 162.13 312.11 162.209C313.064 162.375 314.023 162.51 314.991 162.592L313.58 162.279C313.109 162.18 312.639 162.077 312.172 161.967C311.706 161.854 311.238 161.751 310.78 161.625C310.324 161.506 309.873 161.352 309.407 161.218C308.481 160.954 307.55 160.714 306.614 160.492L303.809 159.816Z" fill="#F0997A"/>
<path d="M306.257 162.183C306.867 162.57 307.545 162.919 308.225 163.192C308.907 163.466 309.604 163.705 310.306 163.93C311.011 164.149 311.721 164.355 312.442 164.53C313.161 164.709 313.891 164.862 314.632 164.953C313.924 164.741 313.229 164.508 312.527 164.291L310.428 163.627L308.332 162.96C307.637 162.728 306.936 162.461 306.257 162.183Z" fill="#F0997A"/>
<path d="M352.879 106.271C360.12 107.927 363.353 109.049 364.863 112.219C366.373 115.389 367.117 117.369 368.755 125.953C370.392 134.537 371.584 149.658 371.51 154.347C371.435 159.035 372.03 161.003 366.15 162.925C360.269 164.846 346.944 166.563 346.944 166.563C346.944 166.563 347.465 163.592 346.721 160.092C345.976 156.593 343.52 153.159 343.52 153.159L352.454 149.989C352.454 149.989 349.327 132.028 348.88 128.858C348.432 125.69 347.203 113 352.879 106.271Z" fill="#34C0C9"/>
<path opacity="0.3" d="M352.879 106.271C360.12 107.927 363.353 109.049 364.863 112.219C366.373 115.389 367.117 117.369 368.755 125.953C370.392 134.537 371.584 149.658 371.51 154.347C371.435 159.035 372.03 161.003 366.15 162.925C360.269 164.846 346.944 166.563 346.944 166.563C346.944 166.563 347.465 163.592 346.721 160.092C345.976 156.593 343.52 153.159 343.52 153.159L352.454 149.989C352.454 149.989 349.327 132.028 348.88 128.858C348.432 125.69 347.203 113 352.879 106.271Z" fill="black"/>
<path d="M315.668 85.6309L314.348 85.27C308.417 82.4449 308.716 75.583 310.156 72.0074C313.371 64.0252 323.097 61.037 329.116 60.7455C340.528 60.192 346.103 62.8068 347.28 68.0503C348.827 67.9336 350.952 69.0384 352.235 70.5875C355.042 73.9771 358.381 85.7851 343.585 98.2396L315.668 85.6309Z" fill="#37474F"/>
<path d="M346.335 94.278C348.402 94.5474 349.997 93.588 351.188 92.329C353.832 89.5349 353.967 86.7799 352.597 84.9962C351.472 83.5305 348.819 82.6612 347.035 83.7416C345.128 84.8973 345.105 85.7866 344.421 87.0412C343.717 88.3283 340.873 88.2869 339.971 83.3549C339.13 78.7542 339.366 73.9218 336.724 71.9233C332.778 68.9388 327.845 69.9698 326.406 71.8628C324.757 69.7617 321.854 69.2192 319.306 70.5476C316.806 71.8502 314.927 75.3882 314.418 84.1896C313.899 93.1614 316.513 98.6581 318.89 100.082C320.693 101.161 322.68 101.607 326.468 101.628L326.333 105.573C326.333 105.573 321.207 114.16 321.558 121.823C321.558 121.823 323.651 120.546 333.051 113.256C339.314 108.4 343.267 105.338 343.267 105.338L343.798 92.9585C343.798 92.9585 344.371 94.0219 346.335 94.278Z" fill="#FFBDA7"/>
<path d="M317.06 79.8693L320.777 78.6051C320.419 77.6745 319.297 77.2022 318.27 77.552C317.244 77.9011 316.702 78.9387 317.06 79.8693Z" fill="#263238"/>
<path d="M330.862 78.5837L334.544 80.4841C335.179 79.5948 334.869 78.4487 333.852 77.9239C332.836 77.3992 331.496 77.6952 330.862 78.5837Z" fill="#263238"/>
<path d="M335.811 72.5203C336.705 73.5247 337.356 74.5351 337.22 78.1409C337.164 79.6435 337.292 83.1453 338.426 85.2346C339.419 87.0619 340.448 88.1475 342.642 88.4884C343.739 88.6589 345.59 88.5489 346.601 88.1334C347.379 87.8139 349.566 86.4471 349.299 84.442C348.95 84.7888 348.313 85.2279 347.696 85.4449C347.231 85.608 346.743 85.729 346.243 85.7534C344.757 85.8265 343.341 85.0102 342.508 83.915C341.033 81.977 341.131 79.3623 340.68 77.1395C340.107 74.3137 339.553 71.1078 336.678 69.7071C333.279 68.0517 327.142 68.7868 326.405 71.8635C328.729 69.896 333.51 69.9329 335.811 72.5203Z" fill="#37474F"/>
<path d="M330.703 91.7755L325.144 93.1408C325.514 94.5282 327.216 95.3363 328.96 94.8463C330.48 94.419 331.074 93.1614 330.703 91.7755Z" fill="#B16668"/>
<path d="M327.372 94.9326C327.61 93.5828 328.952 92.5821 330.523 92.6581C330.618 92.6626 330.707 92.6847 330.8 92.6965C330.746 93.6913 330.131 94.5164 328.96 94.8456C328.412 94.9998 327.873 95.0131 327.372 94.9326Z" fill="#F0997A"/>
<path d="M326.406 81.0184L325.234 89.8013L319.863 87.9475L326.406 81.0184Z" fill="#F0997A"/>
<path d="M326.468 101.628C329.968 101.305 333.653 100.847 337.153 99.4876C338.391 99.0064 340.045 96.9835 341.388 94.7348C341.388 94.7348 340.477 99.1481 337.805 100.689C333.743 103.031 326.406 103.587 326.406 103.587L326.468 101.628Z" fill="#F0997A"/>
<path d="M317.987 82.4944C317.696 83.2125 318.261 83.4553 319.04 83.7018C319.82 83.949 320.521 84.1054 320.812 83.3874C321.103 82.6693 320.707 81.8877 319.927 81.6405C319.147 81.394 318.279 81.7763 317.987 82.4944Z" fill="#263238"/>
<path d="M320.664 81.9121C320.326 81.7291 319.926 81.6213 319.542 81.5402C319.164 81.4604 318.765 81.428 318.381 81.4745C317.738 81.5527 317.392 81.6848 317.193 81.7704C317.168 81.7815 317.139 81.859 317.187 81.8545C317.505 81.825 317.786 81.7815 318.247 81.7726C318.634 81.7652 319.172 81.839 319.547 81.9247C320.137 82.059 320.366 82.1291 321.017 82.4265C321.17 82.4959 321.464 82.6435 321.493 82.6634C321.536 82.6936 321.575 82.5896 321.552 82.5571C321.366 82.2818 320.966 82.0752 320.664 81.9121Z" fill="#263238"/>
<path d="M333.109 82.977C333.288 83.7231 332.691 83.8958 331.881 84.0471C331.07 84.1977 330.353 84.2693 330.174 83.5224C329.995 82.7763 330.508 82.0486 331.318 81.8981C332.128 81.7475 332.93 82.2309 333.109 82.977Z" fill="#263238"/>
<path d="M330.544 82.0782C330.908 81.9372 331.32 81.8789 331.713 81.8449C332.099 81.8117 332.5 81.8272 332.872 81.9195C333.499 82.0745 333.821 82.2472 334.005 82.3556C334.029 82.3697 334.045 82.4501 333.998 82.4398C333.687 82.3726 333.416 82.2951 332.961 82.2317C332.577 82.177 332.034 82.1866 331.649 82.2257C331.044 82.2877 330.807 82.3298 330.117 82.546C329.955 82.597 329.641 82.7069 329.609 82.7239C329.563 82.749 329.54 82.6412 329.567 82.6117C329.793 82.3608 330.221 82.2036 330.544 82.0782Z" fill="#263238"/>
<path d="M266.772 165.835C264.447 165.82 264.318 165.601 263.968 164.571C263.618 163.542 263.295 161.537 264.806 159.801C265.823 158.635 266.783 157.413 267.645 157.028C268.507 156.643 269.537 158.107 268.658 159.914C267.272 162.763 268.035 163.23 268.035 163.23C268.035 163.23 269.314 160.608 269.998 159.666C270.683 158.722 272.522 157.382 273.552 156.468C274.581 155.553 276.251 156.317 275.334 158.401C275.334 158.401 276.636 157.249 277.225 156.728C278.549 155.556 279.713 155.618 279.785 157.255C279.802 157.643 279.775 158.15 279.311 158.781C279.311 158.781 280.465 157.369 281.018 157.681C282.604 158.575 282.287 159.703 280.886 163.156C279.693 166.096 280.155 167.595 281.471 168.044L282.322 168.265C282.322 168.265 280.706 168.898 279.148 169.384C278.006 169.739 276.885 169.942 275.891 168.81C275.891 168.81 274.653 170.386 273.492 169.783C272.331 169.18 271.477 167.911 271.477 167.911C271.477 167.911 270.223 168.496 268.978 167.609C267.733 166.723 267.537 165.818 267.537 165.818L266.772 165.835Z" fill="#FFBDA7"/>
<path d="M275.333 158.402C274.769 158.911 274.189 159.356 273.716 159.985C273.266 160.653 273.131 161.359 272.948 162.033C272.629 163.402 272.36 164.782 272.303 166.197C272.903 164.881 273.292 163.531 273.63 162.17C273.795 161.49 273.914 160.792 274.194 160.215C274.519 159.64 274.996 159.038 275.333 158.402Z" fill="#F0997A"/>
<path d="M279.31 158.782C278.628 159.245 278.074 159.892 277.724 160.601C277.353 161.304 277.115 162.043 276.904 162.778C276.513 164.255 276.242 165.748 276.205 167.274C276.786 165.839 277.177 164.377 277.582 162.925C277.991 161.471 278.322 160.039 279.31 158.782Z" fill="#F0997A"/>
<path d="M289.194 41.9295C293.828 45.7184 296.376 50.77 296.809 55.95L296.854 58.3758C296.635 63.2252 294.558 68.0362 290.564 71.879C281.635 80.4708 266.49 81.0176 256.804 73.0974C252.473 69.5558 249.961 64.91 249.299 60.0924L249.121 57.6717C249.079 52.477 251.155 47.2586 255.427 43.1486C264.36 34.5532 279.505 34.0063 289.194 41.9295Z" fill="white"/>
<path d="M253.911 41.9597C244.242 51.2962 244.939 65.8709 255.465 74.4472C264.909 82.1416 279.099 82.4272 288.901 75.6627L296.398 78.2671C297.679 78.7121 298.906 77.5269 298.298 76.4332L294.737 70.0273C301.503 60.7913 299.979 48.2748 290.536 40.5804C280.01 32.0048 263.579 32.6233 253.911 41.9597ZM289.167 41.9036C293.807 45.6852 296.365 50.7323 296.809 55.9124L296.858 58.3382C296.649 63.1876 294.581 68.0023 290.595 71.8509C281.684 80.4568 266.539 81.0265 256.838 73.1218C252.499 69.5868 249.979 64.9455 249.306 60.1285L249.124 57.7079C249.072 52.5131 251.138 47.2918 255.402 43.1752C264.316 34.5657 279.46 33.996 289.167 41.9036Z" fill="#455A64"/>
<path d="M269.439 70.6133C268.428 70.6133 267.458 70.2428 266.764 69.5845L258.457 61.7175C257.074 60.4075 257.15 58.3507 258.627 57.1227C260.105 55.8954 262.424 55.964 263.807 57.2732L269.202 62.3831L281.966 48.0438C283.218 46.6342 285.522 46.3929 287.112 47.5065C288.701 48.6187 288.972 50.6637 287.718 52.0718L272.315 69.3772C271.654 70.1211 270.66 70.5705 269.594 70.6104C269.542 70.6126 269.49 70.6133 269.439 70.6133Z" fill="#8CDDE2"/>
<path d="M397.582 48.6475C397.228 47.984 396.815 47.5479 396.473 47.2719C397.386 46.2844 397.426 44.9228 396.93 43.9959C396.336 42.8837 395.353 42.4431 394.528 42.3169C394.751 41.7081 394.858 40.8394 394.336 39.8638C393.732 38.7317 391.867 37.455 389.805 38.3288L382.091 41.5679C381.458 39.2291 380.233 37.4535 378.086 35.7281C376.122 34.1495 373.606 34.7362 372.479 35.4786C371.583 36.0675 371.736 36.5989 371.843 36.8004C371.928 36.9598 372.126 37.2815 372.38 37.6919C372.986 38.6771 374.408 40.9848 374.451 41.5959C374.498 42.2571 373.833 46.404 373.377 49.0305C373.359 49.1338 373.377 49.2408 373.427 49.336L380.858 63.2562C380.984 63.4909 381.281 63.6053 381.553 63.5374C381.584 63.5293 381.615 63.5197 381.647 63.5056L395.528 57.6762C397.763 56.736 398.367 54.6976 397.648 53.3471C397.366 52.8194 397.021 52.398 396.742 52.105C397.764 51.2047 398.03 49.4918 397.582 48.6475ZM395.594 51.5611C395.413 51.6371 395.288 51.7899 395.262 51.9648C395.234 52.1404 395.309 52.3168 395.459 52.4334C395.465 52.4386 396.126 52.9537 396.576 53.7987C397.055 54.6961 396.544 56.0873 395.019 56.7278L381.673 62.3315L374.574 49.032C374.775 47.8652 375.697 42.463 375.632 41.5317C375.577 40.7516 374.554 39.0328 373.417 37.1886C373.234 36.8919 373.082 36.6447 372.985 36.4786C373.149 36.3126 373.662 35.9952 374.439 35.8535C375.058 35.7399 376.25 35.6742 377.289 36.5081C379.428 38.2269 380.563 39.9966 381.086 42.4261C381.121 42.5863 381.236 42.7221 381.4 42.7959C381.562 42.8689 381.755 42.8748 381.922 42.8025L390.312 39.2786C391.785 38.6601 392.941 39.7066 393.265 40.314C393.849 41.4077 393.29 42.2948 393.105 42.5413C392.973 42.7184 392.973 42.9501 393.107 43.1265C393.241 43.3029 393.481 43.39 393.717 43.3464C393.775 43.3361 395.142 43.1044 395.858 44.4453C396.242 45.1626 396.14 46.2704 395.196 46.9132C395.032 47.0239 394.95 47.2032 394.97 47.384C394.99 47.5656 395.12 47.7265 395.305 47.8062C395.331 47.8172 395.981 48.1065 396.509 49.0962C396.817 49.6733 396.432 51.2098 395.594 51.5611ZM372.287 49.3228C372.146 49.0608 371.798 48.9427 371.498 49.0733L365.45 51.6128C365.308 51.6718 365.199 51.7788 365.146 51.9102C365.094 52.0415 365.102 52.1862 365.169 52.3124L373.817 68.513C373.942 68.7476 374.239 68.862 374.512 68.7941C374.544 68.786 374.575 68.7764 374.606 68.7631L380.654 66.2237C380.796 66.1646 380.905 66.0569 380.959 65.9255C381.01 65.7942 381.002 65.6495 380.935 65.5233L372.287 49.3228ZM374.633 67.5883L366.493 52.3367L371.47 50.2475L379.61 65.4982L374.633 67.5883Z" fill="#E0E0E0"/>
<path d="M23.8177 120.358C23.6662 120.633 23.494 121.017 23.3925 121.473C23.1346 122.639 24.0506 124.107 25.9809 124.445L37.9708 126.535C37.9983 126.54 38.0241 126.543 38.0507 126.543C38.2761 126.549 38.48 126.409 38.5249 126.206L41.1898 114.181C41.2081 114.099 41.1981 114.014 41.1615 113.937C40.2305 111.99 38.8045 108.907 38.6946 108.389C38.5923 107.911 39.1814 105.885 39.4318 105.02C39.5366 104.659 39.6182 104.377 39.6489 104.239C39.6872 104.065 39.6881 103.628 38.8677 103.33C37.8352 102.952 35.7652 102.936 34.5979 104.493C33.3216 106.197 32.7683 107.778 32.7949 109.692L26.1314 108.53C24.3485 108.214 23.192 109.521 22.9748 110.499C22.7876 111.342 23.0622 111.993 23.3675 112.424C22.7585 112.664 22.0971 113.174 21.8849 114.135C21.706 114.936 22.0372 115.979 22.959 116.582C22.7569 116.854 22.5347 117.262 22.4066 117.835C22.2468 118.565 22.8301 119.84 23.8177 120.358ZM23.3318 117.997C23.5206 117.142 23.9583 116.806 23.9766 116.793C24.1014 116.699 24.1663 116.553 24.1413 116.409C24.118 116.266 24.0148 116.142 23.8642 116.085C22.994 115.753 22.6712 114.916 22.8101 114.296C23.0672 113.138 24.1721 113.08 24.2187 113.078C24.41 113.07 24.5764 112.962 24.6405 112.803C24.7054 112.643 24.6546 112.465 24.5132 112.351C24.316 112.193 23.6895 111.606 23.9 110.661C24.0157 110.136 24.6771 109.128 25.9492 109.35L33.1968 110.614C33.3416 110.64 33.4897 110.603 33.5978 110.518C33.7085 110.434 33.7675 110.308 33.7584 110.179C33.6269 108.215 34.112 106.653 35.3833 104.956C36.0006 104.133 36.9341 103.977 37.4367 103.957C38.0673 103.932 38.5324 104.088 38.6963 104.187C38.658 104.332 38.5948 104.549 38.5191 104.809C38.049 106.428 37.638 107.932 37.7678 108.543C37.9234 109.272 39.8245 113.279 40.2363 114.144L37.6912 125.633L26.1631 123.624C24.846 123.394 24.1455 122.409 24.3169 121.634C24.4783 120.904 24.8743 120.393 24.8785 120.388C24.9683 120.272 24.9874 120.123 24.9275 119.992C24.8685 119.862 24.7387 119.766 24.5823 119.738C23.8576 119.613 23.2228 118.494 23.3318 117.997ZM38.9642 127.966C38.9409 128.075 38.9659 128.188 39.0349 128.281C39.1048 128.373 39.2121 128.436 39.3353 128.458L44.5594 129.368C44.586 129.374 44.6127 129.376 44.6385 129.377C44.8639 129.382 45.0678 129.242 45.1127 129.039L48.2136 115.045C48.2369 114.937 48.2119 114.823 48.1428 114.731C48.0729 114.639 47.9648 114.575 47.8425 114.554L42.6184 113.643C42.3579 113.594 42.1158 113.746 42.0651 113.972L38.9642 127.966ZM39.9801 127.718L42.8987 114.544L47.1977 115.293L44.279 128.467L39.9801 127.718Z" fill="#E0E0E0"/>
<path d="M381.084 177.11C380.905 177.311 380.684 177.6 380.508 177.958C380.058 178.875 380.512 180.227 382.029 180.814L391.457 184.451C391.478 184.459 391.499 184.466 391.521 184.47C391.705 184.511 391.901 184.429 391.979 184.269L396.617 174.815C396.648 174.75 396.658 174.679 396.643 174.61C396.275 172.862 395.73 170.099 395.746 169.657C395.759 169.247 396.655 167.677 397.038 167.006C397.198 166.726 397.322 166.508 397.375 166.399C397.441 166.263 397.531 165.904 396.918 165.527C396.146 165.051 394.449 164.707 393.173 165.8C391.778 166.995 391.001 168.206 390.634 169.783L385.395 167.761C383.995 167.215 382.778 168.105 382.4 168.874C382.075 169.536 382.168 170.116 382.331 170.519C381.782 170.619 381.135 170.933 380.765 171.688C380.454 172.318 380.514 173.227 381.149 173.871C380.928 174.062 380.662 174.361 380.44 174.812C380.159 175.385 380.379 176.526 381.084 177.11ZM381.167 175.092C381.496 174.42 381.924 174.214 381.941 174.206C382.063 174.15 382.146 174.04 382.155 173.918C382.165 173.796 382.105 173.678 381.993 173.607C381.346 173.195 381.251 172.456 381.49 171.969C381.937 171.058 382.857 171.187 382.896 171.193C383.055 171.217 383.214 171.155 383.299 171.034C383.385 170.913 383.38 170.759 383.287 170.643C383.157 170.482 382.762 169.899 383.126 169.156C383.328 168.744 384.076 168.021 385.076 168.407L390.775 170.606C390.888 170.651 391.017 170.643 391.123 170.592C391.231 170.539 391.305 170.446 391.325 170.339C391.616 168.703 392.333 167.498 393.723 166.308C394.398 165.73 395.197 165.751 395.613 165.815C396.137 165.896 396.487 166.098 396.602 166.206C396.541 166.319 396.445 166.488 396.33 166.689C395.613 167.944 394.97 169.114 394.952 169.637C394.931 170.261 395.678 173.858 395.841 174.634L391.41 183.667L382.346 180.17C381.311 179.77 380.936 178.849 381.235 178.24C381.516 177.666 381.945 177.309 381.95 177.305C382.047 177.225 382.093 177.105 382.07 176.988C382.049 176.871 381.961 176.771 381.838 176.724C381.27 176.504 380.975 175.483 381.167 175.092ZM391.983 185.788C391.941 185.873 391.939 185.971 391.977 186.057C392.016 186.144 392.091 186.214 392.187 186.251L396.295 187.835C396.317 187.843 396.337 187.85 396.358 187.854C396.542 187.895 396.738 187.813 396.817 187.653L402.213 176.651C402.254 176.565 402.256 176.468 402.219 176.381C402.18 176.294 402.105 176.225 402.008 176.188L397.901 174.603C397.697 174.522 397.466 174.608 397.379 174.786L391.983 185.788ZM392.868 185.746L397.947 175.388L401.328 176.691L396.248 187.049L392.868 185.746Z" fill="#E0E0E0"/>
<path d="M336.738 28.5776C336.765 27.9628 338.156 25.7614 338.366 25.3437C338.577 24.926 336.42 23.8846 334.953 25.1178C333.486 26.351 332.798 27.5791 332.5 29.151L327.062 26.9968C325.914 26.5422 324.971 27.2949 324.682 27.8684C324.275 28.6765 324.64 29.3532 324.855 29.6263C324.855 29.6263 323.65 29.43 323.085 30.5517C322.769 31.1775 322.928 32.0536 323.672 32.5362C323.672 32.5362 323.136 32.762 322.742 33.5443C322.479 34.0661 322.797 35.2557 323.561 35.5583C323.561 35.5583 323.09 35.9347 322.774 36.5605C322.394 37.317 322.836 38.3989 324.012 38.8653C325.189 39.331 333.009 42.4291 333.009 42.4291L337.552 33.4056C337.552 33.4056 336.711 29.1931 336.738 28.5776ZM338.977 33.6572L333.689 44.1582L337.615 45.7102L342.896 35.2092L338.977 33.6572ZM336.468 43.9796C336.042 43.9796 335.701 43.6771 335.701 43.2999C335.701 42.9221 336.042 42.6202 336.468 42.6202C336.894 42.6202 337.235 42.9228 337.235 43.2999C337.235 43.6778 336.894 43.9796 336.468 43.9796Z" fill="#EBEBEB"/>
<path d="M39.4776 48.122L49.7261 67.6303C49.7261 67.6303 66.634 60.6422 69.1766 59.5905C71.7192 58.5396 72.6394 56.1684 71.7816 54.5338C71.0703 53.1803 70.0286 52.3759 70.0286 52.3759C71.6818 51.6925 72.3266 49.0925 71.7342 47.9648C70.8456 46.2733 69.6683 45.7995 69.6683 45.7995C71.2708 44.7257 71.5811 42.8129 70.8698 41.4601C69.596 39.0358 66.9777 39.5007 66.9777 39.5007C67.4361 38.9 68.2032 37.4159 67.2855 35.6683C66.634 34.4284 64.5499 32.8189 62.0689 33.8439L50.3127 38.7037C49.603 35.2912 48.0538 32.6373 44.8107 29.9982C41.5667 27.3584 36.9133 29.6934 37.3876 30.596C37.8618 31.4986 40.9768 36.2498 41.0609 37.5871C41.1441 38.9243 39.4776 48.122 39.4776 48.122ZM27.9153 52.2179L39.8278 74.9218L48.3151 71.4199L36.3858 48.7161L27.9153 52.2179ZM40.56 69.6598C40.545 68.8377 41.2747 68.1691 42.2024 68.1558C43.1292 68.1425 43.8838 68.7905 43.8988 69.6126C43.9138 70.4355 43.1833 71.1041 42.2564 71.1174C41.3288 71.1299 40.575 70.4827 40.56 69.6598Z" fill="#EBEBEB"/>
<path d="M383.181 113.944C382.346 113.944 381.547 113.638 380.974 113.095L374.119 106.603C372.977 105.521 373.04 103.824 374.259 102.812C375.479 101.798 377.393 101.855 378.533 102.936L382.985 107.152L393.517 95.3186C394.55 94.1555 396.451 93.9563 397.764 94.8751C399.075 95.7931 399.299 97.4802 398.264 98.6426L385.554 112.923C385.008 113.536 384.188 113.908 383.308 113.941C383.266 113.943 383.222 113.944 383.181 113.944Z" fill="#EBEBEB"/>
<path d="M34.4257 180.798C33.5912 180.798 32.7916 180.493 32.2184 179.949L25.3635 173.457C24.222 172.376 24.2852 170.679 25.5041 169.666C26.7238 168.653 28.6374 168.71 29.7789 169.791L34.2301 174.007L44.7624 162.173C45.7958 161.01 47.6969 160.811 49.0098 161.73C50.321 162.648 50.5448 164.335 49.5098 165.497L36.7994 179.778C36.2536 180.391 35.4332 180.763 34.5538 180.795C34.5105 180.797 34.4681 180.798 34.4257 180.798Z" fill="#EBEBEB"/>
<path d="M113.58 50.7929C112.449 50.7929 111.356 50.3729 110.583 49.6401L102.689 42.1642C101.142 40.6985 101.227 38.3885 102.879 37.0151C103.68 36.3502 104.731 36.0011 105.821 36.0329C106.917 36.0653 107.934 36.4742 108.683 37.1841L113.313 41.5701L124.994 28.447C125.673 27.6839 126.646 27.2005 127.736 27.0861C128.822 26.9702 129.899 27.2425 130.761 27.8447C131.622 28.4477 132.167 29.3119 132.295 30.2787C132.424 31.2447 132.12 32.1975 131.441 32.9613L116.803 49.4069C116.061 50.2408 114.95 50.7449 113.753 50.7884C113.7 50.7921 113.64 50.7929 113.58 50.7929ZM105.684 37.1384C104.956 37.1384 104.267 37.3797 103.733 37.8232C102.582 38.7797 102.523 40.3878 103.601 41.4077L111.495 48.8836C112.032 49.3929 112.793 49.6859 113.58 49.6859L113.697 49.6836C114.535 49.6526 115.309 49.3021 115.824 48.722L130.463 32.2757C130.936 31.7436 131.147 31.0809 131.058 30.4086C130.969 29.7362 130.59 29.134 129.99 28.7148C129.389 28.2949 128.643 28.1089 127.884 28.1857C127.127 28.2647 126.449 28.6012 125.976 29.1333L113.397 43.2653L107.774 37.9406C107.252 37.4461 106.544 37.1613 105.781 37.1391C105.748 37.1391 105.716 37.1384 105.684 37.1384Z" fill="#E0E0E0"/>
</svg>
