<svg width="247" height="278" viewBox="0 0 247 278" fill="none" xmlns="http://www.w3.org/2000/svg">
<path d="M148.84 263.558H55.9019C47.1379 263.558 39.9679 256.388 39.9679 247.624V16.2926C39.9679 7.52865 47.1379 0.358643 55.9019 0.358643H148.84C157.604 0.358643 164.774 7.52865 164.774 16.2926V247.624C164.774 256.388 157.604 263.558 148.84 263.558Z" fill="#1F223F"/>
<path d="M159.359 29.6907H45.3839V229.866H159.359V29.6907Z" fill="#E2E5F4"/>
<path d="M118.474 16.8685H96.8589C96.2939 16.8685 95.8359 16.4105 95.8359 15.8455C95.8359 15.2805 96.2939 14.8225 96.8589 14.8225H118.474C119.039 14.8225 119.497 15.2805 119.497 15.8455C119.497 16.4105 119.039 16.8685 118.474 16.8685Z" fill="#E2E5F4"/>
<path d="M87.7029 17.2796C88.4949 17.2796 89.1369 16.6376 89.1369 15.8456C89.1369 15.0536 88.4949 14.4116 87.7029 14.4116C86.911 14.4116 86.2689 15.0536 86.2689 15.8456C86.2689 16.6376 86.911 17.2796 87.7029 17.2796Z" fill="#E2E5F4"/>
<path d="M109.45 252.746C113.362 248.833 113.362 242.49 109.45 238.577C105.537 234.665 99.1933 234.665 95.2807 238.577C91.3681 242.49 91.3681 248.833 95.2807 252.746C99.1934 256.659 105.537 256.659 109.45 252.746Z" fill="#E2E5F4"/>
<path d="M102.371 256.498C96.3949 256.498 91.533 251.636 91.533 245.66C91.533 239.684 96.3949 234.823 102.371 234.823C108.347 234.823 113.208 239.685 113.208 245.66C113.209 251.637 108.347 256.498 102.371 256.498ZM102.371 236.46C97.2979 236.46 93.17 240.587 93.17 245.661C93.17 250.734 97.2979 254.862 102.371 254.862C107.444 254.862 111.572 250.734 111.572 245.661C111.572 240.587 107.445 236.46 102.371 236.46Z" fill="#BBC3E1"/>
<path d="M145.004 107.913H59.7379C58.4509 107.913 57.4069 106.869 57.4069 105.582V85.7787C57.4069 84.4917 58.4509 83.4478 59.7379 83.4478H145.004C146.291 83.4478 147.335 84.4917 147.335 85.7787V105.582C147.335 106.87 146.292 107.913 145.004 107.913Z" fill="#B8C2E3"/>
<path d="M145.004 140.561H59.7379C58.4509 140.561 57.4069 139.517 57.4069 138.23V118.427C57.4069 117.14 58.4509 116.096 59.7379 116.096H145.004C146.291 116.096 147.335 117.14 147.335 118.427V138.23C147.335 139.518 146.292 140.561 145.004 140.561Z" fill="#B8C2E3"/>
<path d="M145.004 173.209H59.7379C58.4509 173.209 57.4069 172.166 57.4069 170.878V151.075C57.4069 149.788 58.4509 148.744 59.7379 148.744H145.004C146.291 148.744 147.335 149.788 147.335 151.075V170.878C147.335 172.166 146.292 173.209 145.004 173.209Z" fill="#B8C2E3"/>
<path d="M145.004 205.858H59.7379C58.4509 205.858 57.4069 204.814 57.4069 203.527V183.723C57.4069 182.436 58.4509 181.392 59.7379 181.392H145.004C146.291 181.392 147.335 182.436 147.335 183.723V203.526C147.335 204.814 146.292 205.858 145.004 205.858Z" fill="#B8C2E3"/>
<path d="M91.7869 47.8787H112.986L110.644 29.6907H94.1459L91.7869 47.8787Z" fill="#FCFBFF"/>
<path d="M70.7399 47.8787H91.7869L94.1459 29.6907H77.7659L70.7399 47.8787Z" fill="#366764"/>
<path d="M49.6169 47.8787H70.7399L77.7659 29.6907H61.3269L49.6169 47.8787Z" fill="#FCFBFF"/>
<path d="M61.3269 29.6907L49.6169 47.8787H28.4939L45.1529 29.6907H61.3269Z" fill="#366764"/>
<path d="M134.042 47.8787H112.995L110.636 29.6907H127.016L134.042 47.8787Z" fill="#366764"/>
<path d="M155.165 47.8787H134.042L127.016 29.6907H143.455L155.165 47.8787Z" fill="#FCFBFF"/>
<path d="M143.455 29.6907L155.165 47.8787H176.288L159.629 29.6907H143.455Z" fill="#366764"/>
<path d="M28.4929 47.8787V58.2787C28.4929 64.1117 33.2219 68.8397 39.0549 68.8397C44.8879 68.8397 49.6169 64.1107 49.6169 58.2787V47.8787H28.4929Z" fill="#386D6A"/>
<path d="M70.7399 47.8787V58.2787C70.7399 64.1117 75.4679 68.8397 81.3009 68.8397C87.1339 68.8397 91.8629 64.1107 91.8629 58.2787V47.8787H70.7399Z" fill="#386D6A"/>
<path d="M112.919 47.8787V58.2787C112.919 64.1117 117.648 68.8397 123.48 68.8397C129.313 68.8397 134.042 64.1107 134.042 58.2787V47.8787H112.919Z" fill="#386D6A"/>
<path d="M155.165 47.8787V58.2787C155.165 64.1117 159.894 68.8397 165.726 68.8397C171.559 68.8397 176.288 64.1107 176.288 58.2787V47.8787H155.165Z" fill="#386D6A"/>
<path d="M49.6169 47.8787V58.2787C49.6169 64.1117 54.3449 68.8397 60.1779 68.8397C66.0109 68.8397 70.7399 64.1107 70.7399 58.2787V47.8787H49.6169Z" fill="#E4CFCD"/>
<path d="M91.8289 47.8787V58.2787C91.8289 64.1117 96.557 68.8397 102.39 68.8397C108.223 68.8397 112.952 64.1107 112.952 58.2787V47.8787H91.8289Z" fill="#E4CFCD"/>
<path d="M134.042 47.8787V58.2787C134.042 64.1117 138.771 68.8397 144.603 68.8397C150.436 68.8397 155.165 64.1107 155.165 58.2787V47.8787H134.042Z" fill="#E4CFCD"/>
<path d="M213.257 202.1C212.692 202.1 212.234 201.642 212.234 201.077C212.234 190.321 203.499 166.645 194.168 166.645C184.837 166.645 176.102 190.321 176.102 201.077C176.102 201.642 175.644 202.1 175.079 202.1C174.514 202.1 174.056 201.642 174.056 201.077C174.056 195.371 176.393 186.281 179.74 178.971C182.197 173.604 187.339 164.6 194.168 164.6C200.997 164.6 206.139 173.604 208.596 178.971C211.942 186.281 214.28 195.372 214.28 201.077C214.28 201.642 213.822 202.1 213.257 202.1Z" fill="#1F213C"/>
<path d="M226.146 263.029H152.886C150.272 263.029 148.154 260.91 148.154 258.297V187.818H226.146V263.029Z" fill="#419C97"/>
<path d="M170.629 200.259C170.629 201.678 169.479 202.828 168.06 202.828C166.641 202.828 165.492 201.678 165.492 200.259C165.492 198.841 166.642 197.691 168.06 197.691C169.48 197.69 170.629 198.84 170.629 200.259Z" fill="#366764"/>
<path d="M208.807 200.259C208.807 201.678 207.657 202.828 206.238 202.828C204.82 202.828 203.67 201.678 203.67 200.259C203.67 198.841 204.82 197.691 206.238 197.691C207.657 197.69 208.807 198.84 208.807 200.259Z" fill="#366764"/>
<path d="M206.239 201.282C205.674 201.282 205.216 200.824 205.216 200.259C205.216 189.503 196.481 165.827 187.15 165.827C177.819 165.827 169.084 189.503 169.084 200.259C169.084 200.824 168.626 201.282 168.061 201.282C167.496 201.282 167.038 200.824 167.038 200.259C167.038 194.553 169.375 185.463 172.722 178.153C175.179 172.786 180.321 163.782 187.15 163.782C193.979 163.782 199.121 172.786 201.578 178.153C204.924 185.463 207.262 194.554 207.262 200.259C207.262 200.824 206.804 201.282 206.239 201.282Z" fill="#0B001C"/>
<path d="M229.855 258.507L226.146 263.029V187.818L229.705 191.324L229.855 258.507Z" fill="#227873"/>
<path d="M65.8461 196.323C65.2811 196.323 64.8231 195.865 64.8231 195.3C64.8231 184.544 56.0881 160.868 46.7571 160.868C37.4261 160.868 28.6911 184.544 28.6911 195.3C28.6911 195.865 28.2331 196.323 27.6681 196.323C27.1031 196.323 26.6451 195.865 26.6451 195.3C26.6451 189.594 28.9821 180.504 32.3291 173.194C34.7861 167.827 39.9281 158.823 46.7571 158.823C53.5861 158.823 58.7281 167.827 61.1851 173.194C64.5311 180.504 66.8691 189.595 66.8691 195.3C66.8681 195.865 66.4101 196.323 65.8461 196.323Z" fill="#1F213C"/>
<path d="M78.7341 277.709H5.47607C2.86207 277.709 0.742065 275.59 0.742065 272.975V182.041H78.7341V277.709Z" fill="#E1BF2F"/>
<path d="M23.2181 194.481C23.2181 195.9 22.0681 197.05 20.6491 197.05C19.2301 197.05 18.0801 195.9 18.0801 194.481C18.0801 193.062 19.2301 191.912 20.6491 191.912C22.0681 191.913 23.2181 193.063 23.2181 194.481Z" fill="#C68820"/>
<path d="M61.3951 194.481C61.3951 195.9 60.2451 197.05 58.8261 197.05C57.4071 197.05 56.2581 195.9 56.2581 194.481C56.2581 193.062 57.4081 191.912 58.8261 191.912C60.2441 191.912 61.3951 193.063 61.3951 194.481Z" fill="#C68820"/>
<path d="M58.8271 195.504C58.2621 195.504 57.8041 195.046 57.8041 194.481C57.8041 183.725 49.0691 160.049 39.7381 160.049C30.4061 160.049 21.6721 183.725 21.6721 194.481C21.6721 195.046 21.2141 195.504 20.6491 195.504C20.0841 195.504 19.6261 195.046 19.6261 194.481C19.6261 188.775 21.9631 179.685 25.3101 172.375C27.7671 167.008 32.9091 158.004 39.7381 158.004C46.5671 158.004 51.7091 167.008 54.1661 172.375C57.5121 179.685 59.8501 188.776 59.8501 194.481C59.8501 195.046 59.3921 195.504 58.8271 195.504Z" fill="#0B001C"/>
<path d="M82.4431 273.187L78.7341 277.709V182.04L82.2941 185.546L82.4431 273.187Z" fill="#C68820"/>
<path d="M242.009 145.489H137.2C134.863 145.489 132.952 143.577 132.952 141.241V77.6047C132.952 75.2677 134.864 73.3567 137.2 73.3567H242.009C244.345 73.3567 246.257 75.2687 246.257 77.6047V141.241C246.257 143.578 244.346 145.489 242.009 145.489Z" fill="#E1BE2F"/>
<path d="M246.257 81.0647H132.952V98.0987H246.257V81.0647Z" fill="#252046"/>
<path d="M241.618 100.906H137.886V112.725H241.618V100.906Z" fill="#E2E5F4"/>
<path d="M237.374 117.502H142.129V119.323H237.374V117.502Z" fill="#E2E5F4"/>
<path d="M237.374 120.614H142.129V122.435H237.374V120.614Z" fill="#E2E5F4"/>
<path d="M204.204 123.725H142.129V125.546H204.204V123.725Z" fill="#E2E5F4"/>
<path d="M237.374 129.949H142.129V131.769H237.374V129.949Z" fill="#E2E5F4"/>
<path d="M237.374 133.061H142.129V134.881H237.374V133.061Z" fill="#E2E5F4"/>
<path d="M170.646 136.172H142.129V137.993H170.646V136.172Z" fill="#E2E5F4"/>
<path d="M246.257 81.0647H132.952V98.0987H246.257V81.0647Z" fill="#1F223F"/>
<g opacity="0.55">
<path d="M230.238 73.3567L132.952 138.466V134.881L224.882 73.3567H230.238Z" fill="#EEE5F5"/>
</g>
<g opacity="0.55">
<path d="M246.232 94.1186L169.474 145.489H164.118L246.257 90.5166L246.232 94.1186Z" fill="#EEE5F5"/>
</g>
<g opacity="0.55">
<path d="M213.558 73.3567L132.952 127.303V120.052L202.725 73.3567H213.558Z" fill="#EEE5F5"/>
</g>
</svg>
