<svg width="506" height="505" viewBox="0 0 506 505" fill="none" xmlns="http://www.w3.org/2000/svg">
<path d="M33.255 440.966C23.6985 441.541 15.8866 434.663 15.8866 425.632V100.113C15.8866 91.081 23.6985 84.0251 33.255 84.3821L484.344 101.235C491.652 101.508 497.574 108.114 497.574 115.962V398.803C497.574 406.651 491.652 413.392 484.344 413.831L33.255 440.966Z" fill="url(#paint0_linear_373_10)"/>
<path d="M327.347 476.996C320.137 474.413 314.748 467.803 313.228 459.678L302.734 403.574L212.967 407.018L201.919 465.466C200.372 473.651 206.566 481.864 213.699 484.878L251.256 500.752C258.241 503.704 265.75 504.88 273.213 504.191L352.584 496.856C354.904 496.641 356.765 494.671 357.035 492.144C357.305 489.616 358.931 486.778 356.718 485.985L327.347 476.996Z" fill="url(#paint1_linear_373_10)"/>
<path d="M328.235 473.584C321.032 471.033 315.649 464.506 314.131 456.484L303.647 401.085L216.068 404.489L205.031 462.202C203.486 470.285 207.575 478.39 214.701 481.367L252.22 497.041C259.199 499.956 266.7 501.117 274.155 500.436L353.446 493.194C355.764 492.982 357.623 491.037 357.893 488.541C358.163 486.045 356.768 483.689 354.558 482.906L328.235 473.584Z" fill="url(#paint2_linear_373_10)"/>
<path d="M36.8265 440.966C27.27 441.541 19.4582 434.663 19.4582 425.632V100.113C19.4582 91.081 27.2702 84.0251 36.8265 84.3821L487.915 101.235C495.224 101.508 501.145 108.114 501.145 115.962V398.803C501.145 406.651 495.224 413.392 487.915 413.831L36.8265 440.966Z" fill="url(#paint3_linear_373_10)"/>
<path d="M487.915 107.888L36.8267 91.9708C31.7166 91.7905 27.5639 95.555 27.5639 100.379V353.639V425.18C27.5639 430.005 31.7168 433.674 36.8267 433.377L487.915 407.179C491.832 406.951 495 403.355 495 399.146V334.507V115.76C495 111.55 491.832 108.026 487.915 107.888Z" fill="url(#paint4_linear_373_10)"/>
<path d="M36.8265 405.702C34.8368 405.803 33.2168 404.357 33.2168 402.48V100.565C33.2168 98.6887 34.8368 97.2161 36.8265 97.2835L487.915 112.545C489.443 112.597 490.684 113.976 490.684 115.618V379.799C490.684 381.441 489.443 382.84 487.915 382.918L36.8265 405.702Z" fill="white"/>
<path d="M472.553 366.639L56.6134 385.446V142.405L472.553 151.394V366.639Z" fill="url(#paint5_linear_373_10)"/>
<path d="M472.553 144.041L56.6134 134.103V113.346L472.553 125.658V144.041Z" fill="url(#paint6_linear_373_10)"/>
<path d="M440.962 134.005C440.962 135.317 439.959 136.355 438.719 136.323C437.479 136.291 436.473 135.199 436.473 133.885C436.473 132.57 437.479 131.532 438.719 131.566C439.958 131.6 440.962 132.692 440.962 134.005Z" fill="white"/>
<path d="M450.168 134.251C450.168 135.56 449.17 136.595 447.937 136.563C446.704 136.531 445.704 135.442 445.704 134.131C445.704 132.821 446.704 131.786 447.937 131.82C449.17 131.854 450.168 132.942 450.168 134.251Z" fill="white"/>
<path d="M459.321 134.496C459.321 135.801 458.329 136.833 457.103 136.801C455.877 136.769 454.883 135.684 454.883 134.377C454.883 133.07 455.877 132.038 457.103 132.072C458.329 132.105 459.321 133.19 459.321 134.496Z" fill="white"/>
<g opacity="0.68">
<path d="M388.37 327.849L65.6857 338.281V148.719L388.37 155.148V327.849Z" fill="white"/>
</g>
<path opacity="0.68" d="M468.11 205.354L394.013 204.995V155.26L468.11 156.737V205.354Z" fill="white"/>
<path d="M468.11 214.26L394.013 214.105V210.381L468.11 210.62V214.26Z" fill="white"/>
<path d="M440.54 220.544L394.013 220.538V216.814L440.54 216.873V220.544Z" fill="white"/>
<path opacity="0.68" d="M468.11 276.674L394.013 277.953V228.219L468.11 228.057V276.674Z" fill="white"/>
<path d="M468.11 285.58L394.013 287.064V283.34L468.11 281.94V285.58Z" fill="white"/>
<path d="M440.54 292.474L394.013 293.497V289.772L440.54 288.803V292.474Z" fill="white"/>
<path opacity="0.68" d="M468.11 347.995L394.013 350.912V301.178L468.11 299.377V347.995Z" fill="white"/>
<path d="M468.11 356.901L394.013 360.023V356.299L468.11 353.26V356.901Z" fill="white"/>
<path d="M440.54 364.404L394.013 366.455V362.731L440.54 360.733V364.404Z" fill="white"/>
<path d="M288.993 351.104L65.6857 359.638V347.176L288.993 339.41V351.104Z" fill="white"/>
<path d="M388.37 347.307L356.51 348.524V337.061L388.37 335.953V347.307Z" fill="white"/>
<path d="M351.588 348.712L319.011 349.957V338.366L351.588 337.233V348.712Z" fill="white"/>
<path d="M167.849 370.37L65.6857 374.698V368.467L167.849 364.314V370.37Z" fill="white"/>
<path d="M47.6978 472.88L45.5915 470.607C42.233 466.984 42.5012 461.281 46.1916 457.881L190.882 324.551L204.09 340.016L60.3938 473.258C56.7294 476.656 51.0457 476.491 47.6978 472.88Z" fill="url(#paint7_linear_373_10)"/>
<path d="M336.453 196.03C299.958 149.78 235.243 142.312 191.985 180.96C147.932 220.318 144.379 290.941 183.917 337.029C222.528 382.036 286.951 385.493 327.966 346.327C368.272 307.839 372.117 241.229 336.453 196.03ZM196.499 325.399C163.571 286.752 166.577 227.724 203.305 194.728C239.478 162.23 293.808 168.228 324.595 206.991C354.792 245.011 351.58 301.208 317.493 333.592C282.903 366.455 228.779 363.285 196.499 325.399Z" fill="url(#paint8_linear_373_10)"/>
<path opacity="0.3" d="M190.882 324.551L172.433 341.551C174.138 349.31 173.093 354.721 171.318 358.561C164.639 373.006 145.596 369.826 130.273 390.343C122.584 400.638 126.074 403.186 118.278 411.53C105.39 425.326 94.2698 420.055 82.9351 432.422C71.4703 444.932 75.7187 458.103 67.5354 461.466C64.0345 462.905 58.487 462.447 49.2176 455.092L46.1916 457.881C42.5012 461.281 42.233 466.984 45.5916 470.608L47.6978 472.879C51.0457 476.491 56.7294 476.656 60.3938 473.258L204.09 340.016L190.882 324.551Z" fill="url(#paint9_linear_373_10)"/>
<path d="M341.741 198.966C305.246 152.715 240.532 145.247 197.273 183.896C153.22 223.253 149.668 293.876 189.206 339.965C227.816 384.971 292.239 388.428 333.255 349.263C373.561 310.774 377.406 244.164 341.741 198.966ZM201.788 328.334C168.86 289.687 171.866 230.659 208.594 197.663C244.767 165.165 299.096 171.163 329.884 209.926C360.081 247.946 356.869 304.143 322.782 336.527C288.191 369.39 234.067 366.22 201.788 328.334Z" fill="url(#paint10_linear_373_10)"/>
<path d="M337.555 202.836C303.073 159.237 242.032 152.301 201.286 188.775C159.836 225.881 156.475 292.39 193.663 335.845C230.028 378.337 290.81 381.704 329.559 344.768C367.675 308.436 371.296 245.498 337.555 202.836ZM201.788 328.334C168.86 289.687 171.866 230.659 208.594 197.663C244.767 165.165 299.096 171.163 329.884 209.926C360.081 247.946 356.869 304.143 322.782 336.527C288.191 369.39 234.067 366.22 201.788 328.334Z" fill="url(#paint11_linear_373_10)"/>
<path d="M209.62 123.815C215.378 126.824 222.611 124.059 225.776 117.639C228.94 111.219 226.837 103.576 221.078 100.567C220.78 100.411 220.476 100.28 220.17 100.155C221.239 96.6027 222.045 93.0228 222.586 89.4416C222.916 89.4407 223.247 89.4348 223.583 89.4038C230.152 88.7997 235.365 82.5836 235.226 75.5194C235.088 68.4553 229.65 63.2183 223.081 63.8224C222.737 63.8543 222.4 63.9099 222.064 63.9714C221.378 60.4707 220.437 57.0512 219.25 53.7417C219.552 53.5596 219.853 53.3715 220.147 53.1597C225.766 49.1046 227.562 41.1027 224.157 35.2872C220.752 29.4716 213.436 28.0447 207.817 32.0996C207.529 32.3075 207.258 32.5318 206.99 32.7597C204.77 30.2336 202.335 27.8925 199.7 25.7561C199.885 25.4434 200.067 25.1267 200.231 24.794C203.395 18.3743 207.53 11.3618 201.727 8.44612C188.301 1.70142 182.542 7.47832 179.378 13.898C179.214 14.2307 179.072 14.5683 178.937 14.9066C175.706 13.9787 172.434 13.3373 169.143 12.9837C169.163 12.6268 169.179 12.2692 169.172 11.9072C169.033 4.8434 171.068 1.0203 164.474 0.889522C150.095 0.604276 145.245 7.0313 145.383 14.0949C145.39 14.4642 145.421 14.8252 145.456 15.1839C142.161 16.1515 138.925 17.3887 135.775 18.8846C135.625 18.5696 135.47 18.2564 135.292 17.952C131.887 12.1365 124.572 10.7096 118.952 14.765C113.333 18.8203 111.537 26.8219 114.942 32.6375C115.116 32.9356 115.308 33.214 115.502 33.4889C113.013 36.0524 110.683 38.8356 108.53 41.8213C108.251 41.6415 107.968 41.4657 107.67 41.3098C101.912 38.3011 94.6785 41.066 91.5142 47.4857C88.3499 53.9055 90.4527 61.5488 96.2112 64.5575C96.5095 64.7136 96.8141 64.8444 97.1195 64.9698C96.0504 68.5219 95.2444 72.1019 94.7041 75.683C94.3739 75.6841 94.0429 75.6898 93.7067 75.7206C87.1373 76.3249 81.9247 82.541 82.0634 89.6053C82.2022 96.6695 87.6402 101.906 94.2094 101.302C94.5525 101.27 94.8898 101.215 95.225 101.153C95.9118 104.654 96.8525 108.073 98.0394 111.383C97.7374 111.565 97.4367 111.753 97.143 111.965C91.5235 116.02 89.728 124.022 93.1328 129.837C96.5377 135.653 107.807 138.353 113.426 134.298C113.714 134.09 110.032 132.593 110.299 132.365C112.52 134.891 114.955 137.232 117.589 139.369C117.404 139.681 117.223 139.998 117.059 140.331C113.895 146.75 115.998 154.394 121.756 157.402C127.515 160.411 134.748 157.646 137.912 151.227C138.076 150.894 138.217 150.556 138.353 150.218C141.583 151.146 144.856 151.787 148.147 152.141C148.127 152.498 148.111 152.855 148.118 153.218C148.257 160.281 153.695 165.518 160.264 164.914C166.833 164.31 172.045 158.094 171.906 151.03C171.899 150.661 171.869 150.3 171.833 149.941C175.129 148.973 178.365 147.736 181.514 146.24C181.664 146.555 181.82 146.869 181.997 147.172C185.402 152.988 192.718 154.415 198.337 150.36C203.957 146.304 205.752 138.303 202.348 132.487C202.173 132.189 201.982 131.911 201.788 131.636C204.277 129.073 206.607 126.289 208.76 123.304C209.039 123.483 209.321 123.659 209.62 123.815ZM137.843 124.766C116.935 113.842 109.3 86.0905 120.789 62.7819C132.278 39.4734 158.54 29.4342 179.447 40.3585C200.355 51.2828 207.99 79.034 196.501 102.343C185.012 125.651 158.75 135.69 137.843 124.766Z" fill="#366764"/>
<path d="M223.583 89.404C230.152 88.7996 235.365 82.5834 235.226 75.5194C235.088 68.4554 229.65 63.2184 223.081 63.8227C222.737 63.8543 222.4 63.9104 222.064 63.9717C221.378 60.471 220.437 57.0517 219.25 53.742C219.552 53.5601 219.853 53.3718 220.147 53.1598C225.766 49.1047 232.718 39.3078 228.752 33.8826C221.224 23.586 213.436 28.045 207.817 32.0999C207.529 32.3078 207.258 32.5321 206.991 32.7596C204.77 30.2334 202.335 27.8927 199.701 25.7561C199.886 25.4434 200.067 25.1268 200.231 24.7943C201.953 21.3005 202.104 17.4487 200.966 14.1743C195.539 24.0125 190.186 33.8921 184.928 43.8254C201.608 56.4049 206.922 81.2006 196.501 102.343C187.67 120.259 170.112 130.321 152.965 129.064C152.201 131.106 151.45 133.16 150.631 135.183C148.41 140.672 145.886 146.048 143.358 151.417C144.948 151.726 146.546 151.968 148.147 152.141C148.127 152.498 148.111 152.855 148.118 153.217C148.256 160.281 152.423 166.282 164.329 165.63C170.915 165.269 172.045 158.094 171.906 151.029C171.899 150.66 171.869 150.3 171.833 149.941C175.129 148.973 178.364 147.736 181.514 146.24C181.664 146.555 181.819 146.868 181.997 147.172C185.402 152.988 197.21 155.457 202.83 151.401C208.45 147.346 205.752 138.303 202.348 132.487C202.173 132.189 201.982 131.911 201.788 131.636C204.277 129.072 206.607 126.289 208.76 123.304C209.039 123.484 209.321 123.659 209.62 123.815C215.378 126.824 222.611 124.059 225.776 117.639C228.94 111.219 226.837 103.576 221.079 100.567C220.78 100.411 220.476 100.28 220.17 100.155C221.239 96.603 222.045 93.0229 222.586 89.4421C222.916 89.4407 223.247 89.4348 223.583 89.404Z" fill="#366764"/>
<path d="M215.813 124.539C221.571 127.548 228.804 124.783 231.969 118.363C235.133 111.943 233.03 104.3 227.271 101.291C226.973 101.135 226.669 101.004 226.363 100.879C227.433 97.3266 228.238 93.7467 228.778 90.1655C229.109 90.1647 229.44 90.1588 229.776 90.1278C236.345 89.5236 241.558 83.3075 241.419 76.2434C241.28 69.1791 235.843 63.9424 229.273 64.5465C228.93 64.5782 228.593 64.634 228.257 64.6955C227.571 61.1949 226.63 57.7755 225.443 54.4658C225.745 54.2838 226.046 54.0956 226.34 53.8838C231.959 49.8287 233.755 41.8269 230.35 36.0111C226.945 30.1956 219.629 28.7684 214.01 32.8235C213.722 33.0314 213.451 33.2559 213.183 33.4835C210.963 30.9574 208.528 28.6165 205.893 26.4799C206.078 26.1672 206.259 25.8504 206.424 25.518C209.588 19.0982 207.485 11.4549 201.727 8.44617C195.968 5.43728 188.735 8.20244 185.57 14.622C185.407 14.9546 185.265 15.2922 185.129 15.6308C181.899 14.7029 178.626 14.0613 175.335 13.7076C175.356 13.3506 175.372 12.9932 175.365 12.6311C175.226 5.56717 169.788 0.330483 163.219 0.934648C156.65 1.53863 151.437 7.75506 151.576 14.8189C151.583 15.188 151.613 15.549 151.649 15.9076C148.354 16.8754 145.118 18.1124 141.968 19.6085C141.819 19.2933 141.663 18.9803 141.485 18.676C138.081 12.8604 130.765 11.4335 125.145 15.4888C119.526 19.5442 117.73 27.5459 121.135 33.3614C121.309 33.6593 121.5 33.938 121.695 34.2129C119.206 36.7762 116.876 39.5593 114.722 42.545C114.444 42.3653 114.161 42.1894 113.863 42.0337C108.104 39.0248 100.871 41.79 97.707 48.2095C94.5426 54.6292 96.6455 62.2726 102.404 65.2813C102.702 65.4372 103.007 65.5681 103.312 65.6934C102.243 69.2455 101.437 72.8254 100.897 76.4066C100.567 76.4077 100.236 76.4134 99.8993 76.444C93.3303 77.0485 88.1175 83.2646 88.2564 90.3286C88.3952 97.3927 93.8332 102.629 100.402 102.025C100.745 101.994 101.083 101.938 101.418 101.876C102.105 105.377 103.046 108.796 104.232 112.106C103.93 112.288 103.629 112.476 103.336 112.688C97.7163 116.743 95.921 124.745 99.3256 130.561C102.73 136.377 110.046 137.804 115.665 133.749C115.954 133.541 116.224 133.316 116.492 133.088C118.713 135.615 121.148 137.956 123.782 140.092C123.597 140.405 123.416 140.722 123.252 141.054C120.088 147.474 122.191 155.117 127.949 158.126C133.707 161.135 140.941 158.37 144.105 151.95C144.269 151.618 144.41 151.28 144.546 150.941C147.776 151.869 151.049 152.511 154.34 152.864C154.32 153.221 154.304 153.579 154.311 153.941C154.45 161.005 159.887 166.242 166.457 165.637C173.026 165.033 178.238 158.817 178.099 151.753C178.092 151.384 178.062 151.023 178.027 150.665C181.322 149.697 184.558 148.46 187.707 146.964C187.857 147.279 188.013 147.592 188.191 147.895C191.595 153.711 198.911 155.138 204.53 151.083C210.15 147.028 211.945 139.026 208.541 133.21C208.366 132.912 208.175 132.634 207.981 132.359C210.47 129.796 212.8 127.012 214.953 124.027C215.232 124.207 215.514 124.383 215.813 124.539ZM144.036 125.49C123.128 114.565 115.493 86.8144 126.982 63.5059C138.471 40.1975 164.733 30.1581 185.64 41.0826C206.548 52.0071 214.183 79.7581 202.695 103.067C191.205 126.375 164.943 136.414 144.036 125.49Z" fill="url(#paint12_linear_373_10)"/>
<path d="M94.6494 227.315C98.8795 229.525 104.193 227.494 106.518 222.778C108.842 218.062 107.297 212.448 103.067 210.237C102.848 210.123 102.624 210.026 102.4 209.934C103.185 207.325 103.777 204.695 104.174 202.064C104.417 202.064 104.66 202.059 104.907 202.037C109.733 201.593 113.562 197.026 113.46 191.837C113.358 186.648 109.364 182.801 104.538 183.244C104.286 183.268 104.038 183.309 103.792 183.354C103.287 180.782 102.596 178.27 101.724 175.839C101.946 175.705 102.167 175.567 102.383 175.411C106.511 172.433 107.83 166.554 105.329 162.282C102.828 158.01 97.4536 156.962 93.3256 159.941C93.114 160.093 92.9151 160.258 92.7184 160.426C91.0874 158.57 89.2985 156.85 87.3632 155.281C87.4992 155.051 87.6322 154.818 87.7527 154.574C90.0772 149.858 93.1149 144.706 88.8517 142.565C78.9895 137.61 74.7587 141.854 72.4341 146.57C72.3137 146.814 72.2099 147.062 72.1102 147.311C69.7372 146.629 67.3331 146.158 64.9155 145.898C64.9305 145.636 64.9421 145.373 64.9371 145.107C64.835 139.918 66.33 137.11 61.4861 137.014C50.923 136.804 47.36 141.525 47.4619 146.714C47.4673 146.986 47.4894 147.251 47.5154 147.514C45.095 148.225 42.7178 149.134 40.404 150.233C40.294 150.001 40.1798 149.771 40.0491 149.548C37.5479 145.276 32.174 144.228 28.0456 147.207C23.9175 150.186 22.5985 156.064 25.0997 160.336C25.2276 160.555 25.3681 160.759 25.5107 160.961C23.6826 162.844 21.9707 164.889 20.3891 167.082C20.1843 166.95 19.9769 166.821 19.7578 166.706C15.5277 164.496 10.2141 166.527 7.88961 171.243C5.56508 175.959 7.10986 181.574 11.34 183.784C11.5592 183.899 11.783 183.995 12.0072 184.087C11.2219 186.697 10.6298 189.326 10.233 191.957C9.99056 191.958 9.74725 191.962 9.50032 191.985C4.67441 192.429 0.845257 196.995 0.947181 202.184C1.04928 207.374 5.04387 211.22 9.8696 210.777C10.1217 210.753 10.3695 210.713 10.6158 210.667C11.1204 213.239 11.8113 215.751 12.6831 218.182C12.4613 218.316 12.2403 218.454 12.0247 218.61C7.89653 221.588 6.57775 227.467 9.07878 231.739C11.58 236.011 19.8581 237.994 23.9863 235.015C24.1978 234.863 21.4927 233.763 21.6893 233.595C23.3205 235.451 25.1092 237.171 27.0444 238.74C26.9086 238.97 26.7753 239.203 26.655 239.447C24.3304 244.163 25.8753 249.778 30.1054 251.988C34.3355 254.198 39.6491 252.167 41.9736 247.451C42.094 247.207 42.1977 246.959 42.2975 246.71C44.6705 247.392 47.0746 247.863 49.4924 248.123C49.4774 248.385 49.4658 248.648 49.4708 248.914C49.5727 254.103 53.5675 257.95 58.393 257.506C63.2186 257.062 67.0481 252.496 66.9458 247.306C66.9405 247.035 66.9185 246.77 66.8922 246.507C69.3129 245.796 71.69 244.887 74.0037 243.788C74.1137 244.019 74.2279 244.25 74.3586 244.473C76.8598 248.745 82.2337 249.793 86.3619 246.814C90.4901 243.835 91.809 237.957 89.3078 233.685C89.1796 233.466 89.0393 233.262 88.8969 233.06C90.7247 231.177 92.4367 229.132 94.0185 226.939C94.2229 227.072 94.4302 227.201 94.6494 227.315ZM41.9218 228.014C26.5632 219.989 20.9544 199.603 29.394 182.48C37.8336 165.358 57.126 157.983 72.4847 166.008C87.8434 174.033 93.4523 194.419 85.0127 211.541C76.5729 228.664 57.2805 236.039 41.9218 228.014Z" fill="#366764"/>
<path d="M104.907 202.037C109.733 201.593 113.562 197.026 113.46 191.837C113.358 186.648 109.364 182.801 104.538 183.245C104.286 183.268 104.038 183.309 103.792 183.354C103.287 180.782 102.596 178.271 101.724 175.839C101.946 175.706 102.167 175.567 102.383 175.412C106.511 172.433 111.617 165.236 108.704 161.251C103.174 153.687 97.4535 156.962 93.3255 159.941C93.1138 160.094 92.915 160.258 92.7184 160.426C91.0873 158.57 89.2985 156.85 87.363 155.281C87.499 155.051 87.6321 154.819 87.7525 154.575C89.0176 152.008 89.1289 149.178 88.2926 146.773C84.3059 154 80.3733 161.258 76.5111 168.555C88.7641 177.796 92.6679 196.011 85.0127 211.542C78.5257 224.703 65.627 232.095 53.0312 231.171C52.4697 232.671 51.9184 234.18 51.3168 235.666C49.6848 239.698 47.8307 243.648 45.9741 247.592C47.1421 247.818 48.3154 247.997 49.4919 248.123C49.4768 248.385 49.4653 248.648 49.4703 248.914C49.5722 254.103 52.633 258.512 61.3789 258.032C66.217 257.767 67.0476 252.496 66.9455 247.307C66.9401 247.036 66.9181 246.771 66.892 246.507C69.3126 245.797 71.6899 244.888 74.0035 243.789C74.1136 244.02 74.2278 244.25 74.3584 244.473C76.8596 248.746 85.5339 250.559 89.6621 247.58C93.7904 244.601 91.8089 237.958 89.3077 233.686C89.1794 233.467 89.0391 233.262 88.8967 233.06C90.7246 231.177 92.4367 229.133 94.0183 226.94C94.223 227.072 94.4305 227.201 94.6496 227.315C98.8797 229.526 104.193 227.494 106.518 222.778C108.842 218.063 107.298 212.448 103.067 210.238C102.848 210.123 102.624 210.027 102.4 209.935C103.185 207.325 103.777 204.695 104.174 202.065C104.417 202.064 104.66 202.059 104.907 202.037Z" fill="#366764"/>
<path d="M99.1988 227.847C103.429 230.057 108.742 228.026 111.067 223.31C113.391 218.594 111.847 212.979 107.617 210.769C107.397 210.654 107.174 210.558 106.95 210.466C107.735 207.857 108.327 205.227 108.724 202.596C108.966 202.595 109.21 202.591 109.457 202.568C114.282 202.124 118.112 197.558 118.01 192.369C117.908 187.179 113.913 183.332 109.087 183.776C108.835 183.8 108.588 183.841 108.341 183.886C107.837 181.314 107.146 178.802 106.274 176.371C106.496 176.237 106.717 176.099 106.932 175.943C111.06 172.965 112.379 167.086 109.878 162.814C107.377 158.542 102.003 157.494 97.875 160.473C97.6633 160.626 97.4645 160.79 97.2678 160.958C95.6368 159.102 93.8479 157.382 91.9125 155.813C92.0485 155.583 92.1816 155.351 92.3022 155.106C94.6267 150.39 93.082 144.776 88.8519 142.565C84.6218 140.355 79.3082 142.386 76.9837 147.102C76.8632 147.346 76.7594 147.595 76.6597 147.843C74.2869 147.161 71.8828 146.69 69.4652 146.43C69.4802 146.168 69.4918 145.906 69.4867 145.64C69.3846 140.45 65.39 136.603 60.5642 137.047C55.7387 137.491 51.9094 142.058 52.0113 147.247C52.0166 147.518 52.0386 147.783 52.0649 148.046C49.6444 148.757 47.2672 149.666 44.9534 150.765C44.8434 150.534 44.7292 150.304 44.5987 150.08C42.0977 145.808 36.7234 144.76 32.5952 147.739C28.467 150.718 27.1482 156.596 29.6493 160.868C29.7775 161.087 29.9176 161.292 30.0602 161.494C28.2322 163.377 26.5202 165.421 24.9384 167.615C24.7337 167.483 24.5262 167.353 24.307 167.239C20.0769 165.029 14.7633 167.06 12.439 171.776C10.1145 176.492 11.6592 182.107 15.8893 184.317C16.1086 184.431 16.3322 184.527 16.5566 184.62C15.7713 187.229 15.1792 189.859 14.7824 192.49C14.5399 192.491 14.2966 192.495 14.0493 192.517C9.22379 192.961 5.39446 197.528 5.49638 202.717C5.5983 207.906 9.59307 211.753 14.4186 211.309C14.6708 211.286 14.9186 211.245 15.1648 211.2C15.6692 213.771 16.3604 216.283 17.2322 218.715C17.0103 218.848 16.7894 218.987 16.5737 219.142C12.4456 222.121 11.1268 227.999 13.6278 232.272C16.129 236.544 21.5031 237.592 25.6311 234.613C25.8428 234.46 26.0418 234.296 26.2383 234.128C27.8696 235.984 29.6582 237.704 31.5936 239.273C31.4577 239.503 31.3245 239.736 31.2041 239.98C28.8797 244.696 30.4245 250.311 34.6546 252.521C38.8847 254.731 44.1982 252.7 46.5228 247.984C46.6432 247.74 46.7469 247.492 46.8467 247.243C49.2197 247.925 51.624 248.396 54.0416 248.656C54.0266 248.918 54.0148 249.181 54.02 249.447C54.1223 254.636 58.1167 258.483 62.9422 258.039C67.7678 257.595 71.5971 253.029 71.495 247.84C71.4898 247.568 71.4677 247.303 71.4416 247.04C73.8621 246.329 76.2392 245.42 78.553 244.321C78.6631 244.552 78.7775 244.783 78.9081 245.006C81.4092 249.278 86.7833 250.326 90.9115 247.347C95.0396 244.368 96.3586 238.49 93.8576 234.218C93.7293 233.999 93.589 233.795 93.4464 233.593C95.2745 231.71 96.9864 229.665 98.5682 227.472C98.7722 227.603 98.9797 227.732 99.1988 227.847ZM46.4714 228.546C31.1127 220.52 25.5038 200.134 33.9436 183.012C42.3833 165.89 61.6755 158.515 77.0342 166.54C92.3929 174.565 98.0018 194.951 89.5622 212.073C81.1223 229.196 61.8301 236.571 46.4714 228.546Z" fill="url(#paint13_linear_373_10)"/>
<path d="M466.835 311.332L481.46 480.298C481.681 482.856 479.955 485.131 477.621 485.352L398.495 493.743C393.761 494.003 391.256 491.359 391.043 488.702L377.006 313.273C376.799 310.683 379.15 308.242 383.827 308.065L462.228 306.878C464.547 306.832 466.619 308.836 466.835 311.332Z" fill="url(#paint14_linear_373_10)"/>
<path d="M470.429 310.913L485.186 480.889C485.41 483.463 483.675 485.752 481.327 485.975L399.223 493.776C396.706 494.016 394.467 492.023 394.253 489.35L380.091 312.862C379.882 310.257 381.76 308.086 384.258 308.036L465.794 306.433C468.127 306.387 470.211 308.402 470.429 310.913Z" fill="url(#paint15_linear_373_10)"/>
<path d="M468.604 320.292L482.252 477.841C482.46 480.243 480.839 482.376 478.644 482.581L401.453 489.798C399.11 490.017 397.026 488.159 396.826 485.67L383.696 322.455C383.5 320.024 385.247 317.991 387.574 317.936L464.272 316.119C466.453 316.067 468.401 317.945 468.604 320.292Z" fill="white"/>
<path d="M468.604 320.292C468.401 317.945 466.453 316.067 464.272 316.119L387.574 317.936C385.248 317.991 383.5 320.024 383.696 322.455L385.575 345.814L470.632 343.699L468.604 320.292Z" fill="url(#paint16_linear_373_10)"/>
<path d="M427.653 312.35C427.727 313.236 427.109 313.97 426.272 313.988C425.435 314.007 424.696 313.303 424.622 312.416C424.548 311.529 425.167 310.795 426.004 310.778C426.841 310.76 427.578 311.464 427.653 312.35Z" fill="url(#paint17_linear_373_10)"/>
<path d="M438.261 408.392L399.884 410.343L394.585 354.498L433.176 353.484L438.261 408.392Z" fill="url(#paint18_linear_373_10)"/>
<path d="M466.724 406.945L444.179 408.091L439.126 353.328L461.795 352.732L466.724 406.945Z" fill="url(#paint19_linear_373_10)"/>
<path d="M470.697 450.638L404.153 455.344L400.573 417.609L467.365 413.999L470.697 450.638Z" fill="url(#paint20_linear_373_10)"/>
<path d="M472.771 473.446L406.382 478.832L404.778 461.928L471.278 457.031L472.771 473.446Z" fill="url(#paint21_linear_373_10)"/>
<g opacity="0.48">
<path d="M450.702 427.599C442.742 398.966 419.535 401.829 412.595 375.957C406.895 354.708 420.038 343.506 412.066 325.716C408.316 317.35 401.747 311.692 394.935 307.826L384.258 308.036C381.759 308.085 379.882 310.256 380.091 312.862L394.252 489.35C394.467 492.023 396.706 494.015 399.223 493.776L466.541 487.38C462.236 481.758 458.152 474.877 455.318 466.613C449.318 449.119 455.103 443.432 450.702 427.599Z" fill="white"/>
</g>
<defs>
<linearGradient id="paint0_linear_373_10" x1="66.2172" y1="269.733" x2="146.261" y2="261.611" gradientUnits="userSpaceOnUse">
<stop offset="0.0036" stop-color="#26264F"/>
<stop offset="1" stop-color="#23B7AE"/>
</linearGradient>
<linearGradient id="paint1_linear_373_10" x1="236.741" y1="521.353" x2="254.361" y2="496.839" gradientUnits="userSpaceOnUse">
<stop stop-color="#444B8C"/>
<stop offset="0.9964" stop-color="#26264F"/>
</linearGradient>
<linearGradient id="paint2_linear_373_10" x1="288.047" y1="514.945" x2="260.604" y2="370.251" gradientUnits="userSpaceOnUse">
<stop stop-color="#444B8C"/>
<stop offset="0.9964" stop-color="#26264F"/>
</linearGradient>
<linearGradient id="paint3_linear_373_10" x1="352.035" y1="114.719" x2="486.971" y2="-72.3304" gradientUnits="userSpaceOnUse">
<stop stop-color="#444B8C"/>
<stop offset="0.9964" stop-color="#26264F"/>
</linearGradient>
<linearGradient id="paint4_linear_373_10" x1="295.656" y1="137.367" x2="124.458" y2="665.485" gradientUnits="userSpaceOnUse">
<stop stop-color="#444B8C"/>
<stop offset="0.9964" stop-color="#26264F"/>
</linearGradient>
<linearGradient id="paint5_linear_373_10" x1="304.457" y1="169.87" x2="144.917" y2="489.382" gradientUnits="userSpaceOnUse">
<stop offset="0.0036" stop-color="#34C0C9"/>
<stop offset="1" stop-color="#455A64"/>
</linearGradient>
<linearGradient id="paint6_linear_373_10" x1="264.26" y1="131.449" x2="254.747" y2="207.936" gradientUnits="userSpaceOnUse">
<stop stop-color="#34C0C9"/>
<stop offset="1" stop-color="#FB6FBB"/>
</linearGradient>
<linearGradient id="paint7_linear_373_10" x1="43.2382" y1="400.126" x2="204.09" y2="400.126" gradientUnits="userSpaceOnUse">
<stop stop-color="#FFC444"/>
<stop offset="0.9964" stop-color="#F36F56"/>
</linearGradient>
<linearGradient id="paint8_linear_373_10" x1="156.453" y1="264.762" x2="360.886" y2="264.762" gradientUnits="userSpaceOnUse">
<stop stop-color="#FFC444"/>
<stop offset="0.9964" stop-color="#F36F56"/>
</linearGradient>
<linearGradient id="paint9_linear_373_10" x1="43.2383" y1="400.126" x2="204.09" y2="400.126" gradientUnits="userSpaceOnUse">
<stop stop-color="#FFC444"/>
<stop offset="0.9964" stop-color="#F36F56"/>
</linearGradient>
<linearGradient id="paint10_linear_373_10" x1="331.905" y1="359.888" x2="235.31" y2="236.147" gradientUnits="userSpaceOnUse">
<stop stop-color="#FFC444"/>
<stop offset="0.9964" stop-color="#F36F56"/>
</linearGradient>
<linearGradient id="paint11_linear_373_10" x1="167.841" y1="267.767" x2="360.679" y2="267.767" gradientUnits="userSpaceOnUse">
<stop stop-color="#FFC444"/>
<stop offset="0.9964" stop-color="#F36F56"/>
</linearGradient>
<linearGradient id="paint12_linear_373_10" x1="88.254" y1="83.2863" x2="241.422" y2="83.2863" gradientUnits="userSpaceOnUse">
<stop stop-color="#366764"/>
<stop offset="0.9964" stop-color="#78F4F5"/>
</linearGradient>
<linearGradient id="paint13_linear_373_10" x1="5.49408" y1="197.543" x2="118.011" y2="197.543" gradientUnits="userSpaceOnUse">
<stop stop-color="#366764"/>
<stop offset="0.9964" stop-color="#78F4F5"/>
</linearGradient>
<linearGradient id="paint14_linear_373_10" x1="373.91" y1="398.169" x2="484.323" y2="402.161" gradientUnits="userSpaceOnUse">
<stop stop-color="#444B8C"/>
<stop offset="0.9964" stop-color="#26264F"/>
</linearGradient>
<linearGradient id="paint15_linear_373_10" x1="420.778" y1="427.248" x2="438.469" y2="384.599" gradientUnits="userSpaceOnUse">
<stop stop-color="#444B8C"/>
<stop offset="0.9964" stop-color="#26264F"/>
</linearGradient>
<linearGradient id="paint16_linear_373_10" x1="404.755" y1="365.692" x2="464.51" y2="281.487" gradientUnits="userSpaceOnUse">
<stop stop-color="#366764"/>
<stop offset="1" stop-color="#78F4F5"/>
</linearGradient>
<linearGradient id="paint17_linear_373_10" x1="428.703" y1="305.974" x2="320.277" y2="561.503" gradientUnits="userSpaceOnUse">
<stop stop-color="#FFC444"/>
<stop offset="0.9964" stop-color="#F36F56"/>
</linearGradient>
<linearGradient id="paint18_linear_373_10" x1="407.402" y1="365.171" x2="456.54" y2="464.478" gradientUnits="userSpaceOnUse">
<stop offset="0.0036" stop-color="#366764"/>
<stop offset="1" stop-color="#78F4F5"/>
</linearGradient>
<linearGradient id="paint19_linear_373_10" x1="426.595" y1="332.005" x2="483.157" y2="446.316" gradientUnits="userSpaceOnUse">
<stop offset="0.0036" stop-color="#366764"/>
<stop offset="1" stop-color="#78F4F5"/>
</linearGradient>
<linearGradient id="paint20_linear_373_10" x1="412.474" y1="391.963" x2="451.623" y2="471.082" gradientUnits="userSpaceOnUse">
<stop offset="0.0036" stop-color="#366764"/>
<stop offset="1" stop-color="#78F4F5"/>
</linearGradient>
<linearGradient id="paint21_linear_373_10" x1="423.361" y1="439.559" x2="449.466" y2="492.317" gradientUnits="userSpaceOnUse">
<stop offset="0.0036" stop-color="#366764"/>
<stop offset="1" stop-color="#34C0C9"/>
</linearGradient>
</defs>
</svg>
