<svg xmlns="http://www.w3.org/2000/svg" xml:space="preserve" viewBox="0 0 181.44504 164.84946">
  <g transform="translate(-61.994309 -66.634828) scale(.22065)">
    <g fill="#4e6bb9" transform="translate(-60 -50) scale(1.00283)">
      <path d="M365 351h777a18 18 0 0 1 18 18v16a18 18 0 0 1-18 18H358a18 18 0 0 1-18-18v-9a25 25 0 0 1 25-25z"/>
      <rect width="820" height="52" x="340" y="1044" rx="25" ry="25"/>
      <rect width="52" height="589" x="340" y="507" rx="25" ry="25"/>
      <rect width="52" height="745" x="1108" y="351" rx="25" ry="25"/>
    </g>
    <path fill="#4460a8" d="M562 487h121L491 676c40 43 83 82 125 124h1l99-180h1l51 90c-30 56-85 152-86 156H562c-63-64-127-126-191-189Zm227 0h20c11 23 204 371 209 377l-101 1-168-301c16.14721-29.8462 26.97997-51.1578 40-77z"/>
    <path fill="#6e92f2" d="M716 620h1l51 90c-2 5-32 55-86 156H581c44-83 90-164 135-246ZM562 487h121l-103 1c-78.92746 79.91986-112.6992 193.9933-90 304L371 677Zm227 0h20c15 30 25 45 46 84-24 19-49 46-65 66l-41-73c13.59034-25.71183 26.33578-50.31395 40-77z"/>
    <path fill="#4460a8" d="M753 685h1l14 25c-72 132-85 151-86 156h-1c0-4 11-90 72-181z"/>
    <path fill="#4e6bb9" d="M307 302h777c26 1 25 52 0 52H300c-26 0-26-49 7-52z"/>
    <rect width="820" height="52" x="340" y="1044" fill="#4e6bb9" rx="25" ry="25" transform="translate(-58 -49)"/>
    <rect width="52" height="589" x="340" y="507" fill="#4e6bb9" rx="25" ry="25" transform="translate(-58 -49)"/>
    <rect width="52" height="745" x="1108" y="351" fill="#4e6bb9" rx="25" ry="25" transform="translate(-58 -49)"/>
  </g>
</svg>