<?xml version="1.0" encoding="UTF-8"?>
<svg id="Warstwa_1" xmlns="http://www.w3.org/2000/svg" viewBox="0 0 841.89 595.28">
  <defs>
    <style>
      .cls-1 {
        letter-spacing: 0em;
      }

      .cls-2 {
        fill: #728cc7;
      }

      .cls-3 {
        letter-spacing: -.02em;
      }

      .cls-4 {
        letter-spacing: -.06em;
      }

      .cls-5 {
        letter-spacing: -.07em;
      }

      .cls-6 {
        font-family: Arial-Black, Arial;
        font-size: 24px;
        font-weight: 800;
      }

      .cls-6, .cls-7 {
        fill: #fff;
      }

      .cls-8 {
        fill: #4561aa;
      }

      .cls-7 {
        font-family: ArialMT, Arial;
        font-size: 23px;
      }

      .cls-9 {
        fill: #4f6bb2;
      }
    </style>
  </defs>
  <rect width="841.89" height="595.28"/>
  <g>
    <g>
      <path class="cls-9" d="M336.6,159.74h189.27c2.42,0,4.38,1.96,4.38,4.38v3.9c0,2.42-1.96,4.38-4.38,4.38h-190.98c-2.42,0-4.38-1.96-4.38-4.38v-2.19c0-3.36,2.73-6.09,6.09-6.09h0Z"/>
      <rect class="cls-9" x="330.51" y="328.55" width="199.75" height="12.67" rx="6.09" ry="6.09"/>
      <rect class="cls-9" x="330.51" y="197.74" width="12.67" height="143.48" rx="6.09" ry="6.09"/>
      <rect class="cls-9" x="517.59" y="159.74" width="12.67" height="181.48" rx="6.09" ry="6.09"/>
    </g>
    <path class="cls-8" d="M398.77,204.68h29.39l-46.64,45.91c9.72,10.44,20.16,19.92,30.36,30.12h.24l24.05-43.72h.24l12.39,21.86c-7.29,13.6-20.65,36.92-20.89,37.89h-29.15c-15.3-15.55-30.85-30.61-46.39-45.91l46.39-46.15ZM453.91,204.68h4.86c2.67,5.59,49.55,90.12,50.77,91.57l-24.53.24-40.81-73.11c3.92-7.25,6.55-12.43,9.72-18.7Z"/>
    <path class="cls-2" d="M436.18,236.98h.24l12.39,21.86c-.49,1.21-7.77,13.36-20.89,37.89h-24.53c10.69-20.16,21.86-39.84,32.79-59.75ZM398.77,204.68h29.39l-25.02.24c-19.17,19.41-27.38,47.12-21.86,73.84l-28.91-27.93,46.39-46.15ZM453.91,204.68h4.86c3.64,7.29,6.07,10.93,11.17,20.4-5.83,4.62-11.9,11.17-15.79,16.03l-9.96-17.73c3.3-6.25,6.4-12.22,9.72-18.7Z"/>
    <path class="cls-8" d="M445.17,252.77h.24l3.4,6.07c-17.49,32.06-20.65,36.68-20.89,37.89h-.24c0-.97,2.67-21.86,17.49-43.97Z"/>
    <path class="cls-9" d="M336.83,159.74h188.74c6.32.24,6.07,12.63,0,12.63h-190.44c-6.32,0-6.32-11.9,1.7-12.63Z"/>
    <rect class="cls-9" x="330.76" y="328.07" width="199.18" height="12.63" rx="6.07" ry="6.07"/>
    <rect class="cls-9" x="330.76" y="197.63" width="12.63" height="143.07" rx="6.07" ry="6.07"/>
    <rect class="cls-9" x="517.31" y="159.74" width="12.63" height="180.96" rx="6.07" ry="6.07"/>
  </g>
  <text class="cls-7" transform="translate(325.13 423.47)"><tspan x="0" y="0">ww</tspan><tspan class="cls-4" x="33.22" y="0">w</tspan><tspan x="48.56" y="0">.klaudiuszde</tspan><tspan class="cls-5" x="176.42" y="0">v</tspan><tspan class="cls-1" x="186.21" y="0">.pl</tspan></text>
  <text class="cls-6" transform="translate(231.26 389.22)"><tspan x="0" y="0">ST</tspan><tspan class="cls-3" x="34.66" y="0">R</tspan><tspan x="52.92" y="0">ONY WWW | SKLEPY | SEO</tspan></text>
</svg>