<?xml version="1.0" standalone="no"?>
<!DOCTYPE svg PUBLIC "-//W3C//DTD SVG 20010904//EN"
 "http://www.w3.org/TR/2001/REC-SVG-20010904/DTD/svg10.dtd">
<svg version="1.0" xmlns="http://www.w3.org/2000/svg"
 width="960.000000pt" height="960.000000pt" viewBox="0 0 960.000000 960.000000"
 preserveAspectRatio="xMidYMid meet">

<g transform="translate(0.000000,960.000000) scale(0.100000,-0.100000)"
fill="#000000" stroke="none">
<path d="M5103 7829 c-8 -49 -7 -62 4 -66 20 -8 46 5 40 21 -3 7 -9 34 -12 60
-4 25 -11 46 -15 46 -4 0 -12 -27 -17 -61z"/>
<path d="M5087 7743 c-4 -3 -7 -17 -7 -29 0 -20 -8 -24 -57 -33 -64 -12 -104
-30 -110 -47 -2 -6 10 -24 27 -40 16 -16 30 -32 30 -36 0 -3 -22 -14 -49 -23
-27 -9 -52 -23 -55 -31 -9 -23 11 -53 39 -60 21 -5 44 -39 33 -49 -1 -2 -48
-8 -103 -15 -226 -26 -318 -63 -625 -253 -251 -155 -382 -227 -600 -335 -102
-51 -311 -157 -465 -238 -154 -80 -316 -163 -360 -184 -44 -21 -152 -73 -240
-115 -418 -202 -436 -210 -687 -296 -54 -19 -98 -38 -98 -43 0 -10 -7 -11 210
39 91 20 193 47 227 60 35 12 63 19 63 15 0 -8 -69 -61 -150 -114 -39 -26 -42
-31 -23 -34 34 -5 187 64 292 131 132 87 175 110 254 142 154 61 163 52 52
-54 -41 -39 -75 -73 -75 -76 0 -34 250 97 483 254 118 79 216 136 223 129 2
-3 -12 -20 -33 -38 -21 -18 -60 -54 -88 -79 -106 -99 -235 -196 -367 -274 -75
-45 -135 -83 -134 -85 5 -5 162 56 213 82 60 31 120 74 208 148 38 32 110 79
159 105 50 25 118 66 150 90 33 23 61 41 64 39 2 -2 -2 -14 -8 -26 -6 -12 -9
-24 -6 -27 6 -6 101 75 226 194 l75 71 170 57 c94 30 205 73 248 94 42 21 77
36 77 33 0 -12 -95 -93 -155 -132 -33 -22 -89 -74 -125 -116 -70 -82 -118
-123 -232 -196 -97 -63 -124 -85 -115 -94 13 -13 248 123 361 210 27 21 77 51
110 68 123 61 145 80 228 193 45 61 102 135 128 165 90 106 192 241 187 246
-10 11 -53 -21 -139 -101 -95 -89 -265 -207 -394 -273 -84 -43 -287 -116 -306
-110 -9 3 156 165 267 263 131 115 359 282 444 325 25 12 81 33 125 46 96 27
324 60 335 48 4 -5 15 -36 25 -68 13 -44 28 -68 55 -90 37 -32 70 -65 210
-209 80 -82 198 -172 303 -230 26 -14 100 -45 165 -68 134 -47 194 -75 275
-130 31 -21 80 -48 110 -60 100 -39 158 -106 136 -155 -10 -22 -118 -74 -153
-74 -8 0 -29 -13 -47 -29 l-33 -30 25 -25 c35 -35 120 -64 275 -91 171 -31
172 -31 300 -81 110 -43 402 -128 633 -185 67 -16 166 -48 219 -69 53 -22 131
-49 172 -61 164 -45 264 -69 268 -65 11 11 -76 49 -173 75 -60 15 -140 43
-179 60 -128 59 -218 89 -416 140 -180 47 -391 112 -564 174 -38 14 -131 39
-207 56 -222 48 -250 77 -118 121 114 38 135 58 119 113 -16 55 -79 105 -194
154 -38 16 -101 50 -140 75 -94 61 -130 78 -265 128 -63 23 -149 59 -190 81
-121 63 -280 189 -386 306 -103 115 -134 164 -134 216 l0 33 98 -4 c305 -11
484 -64 862 -259 253 -131 360 -201 566 -374 50 -42 125 -98 166 -125 368
-238 410 -263 441 -264 36 0 34 13 -5 41 -93 67 108 -19 215 -91 67 -45 185
-97 259 -115 88 -21 98 -19 63 11 -21 19 -24 24 -10 19 74 -25 255 -61 307
-60 43 0 7 22 -159 100 -98 45 -261 123 -363 173 -102 49 -329 159 -505 244
-333 160 -540 271 -729 390 -135 86 -332 185 -447 226 -141 50 -145 52 -130
62 12 7 11 16 -6 52 -24 50 -57 83 -73 73 -6 -4 -33 1 -59 11 -48 17 -49 17
-76 -4 -15 -12 -41 -22 -57 -22 -18 0 -39 -10 -54 -25 -15 -15 -36 -25 -54
-25 -27 0 -30 3 -30 30 0 25 6 32 35 44 23 10 35 22 35 34 0 25 -15 37 -67 53
-48 14 -55 34 -19 51 28 12 38 31 30 53 -7 17 -31 26 -98 34 -46 6 -50 9 -58
39 -7 26 -13 32 -37 32 -15 0 -31 -3 -34 -7z m171 -100 c58 -14 8 -21 -143
-21 -161 1 -212 11 -117 23 26 3 54 8 62 10 18 5 166 -4 198 -12z m-48 -112
c31 -5 71 -16 90 -23 31 -13 17 -14 -141 -14 -96 1 -194 -3 -218 -8 -34 -6
-42 -5 -39 5 11 34 198 58 308 40z m399 -129 c56 -28 50 -40 -17 -31 -32 5
-72 13 -88 20 -27 10 -27 12 -9 19 33 14 78 11 114 -8z"/>
<path d="M3290 7317 c0 -68 4 -79 26 -70 10 4 14 23 14 69 0 57 -2 64 -20 64
-18 0 -20 -7 -20 -63z"/>
<path d="M3080 7275 c0 -23 69 -95 86 -88 20 8 18 15 -22 61 -36 43 -64 54
-64 27z"/>
<path d="M3476 7253 c-40 -42 -45 -63 -17 -63 19 0 81 68 81 89 0 22 -30 10
-64 -26z"/>
<path d="M3257 7166 c-99 -36 -138 -140 -84 -229 33 -54 72 -77 133 -77 116 0
195 116 151 222 -29 70 -127 111 -200 84z"/>
<path d="M2964 7076 c-9 -23 -4 -26 59 -33 37 -4 57 -2 62 7 11 18 -5 28 -62
36 -44 5 -54 4 -59 -10z"/>
<path d="M3580 7080 c-40 -4 -55 -9 -55 -20 0 -11 14 -16 55 -18 65 -3 94 10
70 30 -10 9 -32 12 -70 8z"/>
<path d="M2635 6840 c-27 -11 -74 -20 -102 -20 -45 0 -57 -4 -85 -31 -22 -20
-26 -28 -13 -23 11 5 58 9 105 9 47 0 98 6 113 13 41 17 88 15 139 -8 37 -16
51 -18 84 -9 21 6 66 9 99 5 l60 -5 -30 24 c-33 27 -97 41 -142 31 -19 -5 -44
0 -74 13 -55 25 -90 25 -154 1z"/>
<path d="M6160 6855 c0 -21 80 -112 144 -164 39 -32 78 -66 85 -75 7 -9 39
-30 70 -48 31 -17 88 -61 126 -97 70 -66 225 -158 245 -146 21 13 7 26 -100
101 -61 42 -123 92 -138 111 -62 81 -83 100 -123 112 -23 7 -58 28 -78 48 -20
19 -52 43 -72 53 -30 16 -86 55 -146 103 -7 5 -13 6 -13 2z"/>
<path d="M5203 6667 c-54 -55 -75 -86 -91 -132 -12 -33 -40 -95 -63 -137 -22
-43 -38 -78 -36 -78 3 0 23 24 46 54 23 30 59 66 80 80 43 30 58 57 71 127 5
28 24 69 45 98 54 75 26 69 -52 -12z"/>
<path d="M4324 6562 c-71 -71 -146 -138 -166 -151 -65 -39 -40 -58 30 -22 20
10 46 29 57 41 11 13 44 38 73 57 33 21 65 54 86 86 46 72 68 117 58 117 -5 0
-67 -58 -138 -128z"/>
<path d="M2420 6651 c-14 -5 -53 -9 -87 -10 -75 -1 -155 -30 -203 -72 -19 -17
-27 -28 -17 -25 102 33 147 38 270 33 111 -5 127 -4 116 9 -10 12 -2 14 53 14
36 0 86 -6 111 -14 26 -8 47 -11 47 -6 0 4 -28 22 -62 40 -50 27 -75 34 -132
36 -39 2 -82 -1 -96 -5z"/>
<path d="M5500 6479 c-16 -35 -27 -71 -24 -81 5 -18 -10 -50 -51 -107 -14 -19
-25 -40 -25 -47 0 -24 29 -15 46 14 9 15 30 46 45 70 21 30 29 55 29 85 0 23
5 59 11 80 17 62 2 55 -31 -14z"/>
<path d="M5641 6371 c-23 -49 -31 -81 -30 -114 2 -37 -4 -57 -28 -96 -40 -64
-49 -91 -30 -91 8 0 21 9 28 19 8 10 32 40 54 66 l39 47 1 119 c1 65 1 119 0
119 -1 0 -16 -31 -34 -69z"/>
<path d="M4675 6074 c-71 -58 -150 -122 -175 -143 -25 -21 -112 -94 -195 -161
-82 -68 -188 -156 -235 -195 -151 -126 -220 -176 -235 -167 -8 4 -34 6 -59 4
-36 -3 -46 -8 -46 -21 0 -29 11 -31 52 -10 22 11 42 19 44 16 5 -5 -177 -91
-350 -163 -86 -37 -131 -60 -118 -62 20 -3 458 75 473 84 9 5 79 -27 79 -36 0
-8 -82 -23 -240 -45 -118 -17 -258 -43 -274 -53 -16 -9 27 -21 82 -21 l52 -1
0 -50 c0 -49 1 -50 30 -50 42 0 40 -28 -2 -32 l-33 -3 -8 -90 c-4 -49 -6 -137
-5 -195 l3 -105 87 -3 88 -3 2 253 3 253 43 3 42 3 0 -255 0 -256 85 0 c50 0
85 -4 85 -10 0 -6 -109 -10 -307 -10 -168 0 -304 -2 -302 -4 14 -13 287 -18
1254 -26 600 -5 1092 -9 1095 -10 8 -2 -110 -49 -177 -71 -59 -20 -72 -20
-280 -10 -120 6 -247 16 -283 21 -139 20 -292 23 -417 6 -147 -19 -332 -20
-723 -2 -292 14 -296 15 -409 50 -62 19 -116 37 -118 40 -8 8 7 26 21 26 10 0
15 46 20 196 4 108 4 200 -1 205 -4 4 -64 13 -133 20 l-125 12 -114 106 c-225
209 -342 312 -351 309 -5 -2 -119 -112 -253 -245 l-244 -243 48 0 49 0 0 -239
0 -239 -132 -4 c-104 -4 -145 -9 -186 -26 -130 -51 -180 -132 -156 -252 8 -39
24 -47 304 -152 273 -103 280 -106 287 -139 5 -26 12 -29 107 -52 143 -35 644
-168 811 -215 77 -22 295 -82 485 -132 190 -51 454 -123 588 -161 518 -147
554 -148 1192 -43 118 20 265 46 326 59 94 21 304 60 514 96 123 21 413 59
540 70 130 11 435 7 560 -7 30 -4 52 -4 49 0 -9 9 -217 54 -341 72 -269 40
-806 -11 -1433 -136 -239 -48 -243 -49 -390 -71 -181 -27 -432 -36 -561 -19
-115 14 -233 39 -354 74 -85 24 -445 120 -763 202 -659 171 -802 207 -962 244
-280 64 -258 56 -249 93 27 129 125 183 349 194 125 6 353 -15 565 -52 300
-52 267 -42 275 -83 10 -55 14 -56 48 -18 l32 36 166 6 c207 9 229 5 261 -44
58 -86 111 -118 216 -133 37 -5 128 -23 202 -39 206 -44 308 -51 632 -44 199
5 337 3 456 -6 137 -10 192 -10 286 0 64 7 118 15 120 19 3 4 -48 15 -112 25
-64 9 -173 29 -242 43 -110 23 -151 26 -340 27 -118 0 -303 -1 -410 -3 -185
-4 -204 -2 -365 27 -207 38 -318 65 -349 85 -25 17 -53 68 -62 116 -14 70 40
172 108 204 56 26 272 57 403 57 69 0 201 -11 310 -25 336 -44 441 -34 707 64
263 96 477 135 748 135 227 0 321 -21 630 -141 320 -125 468 -157 710 -156
143 0 503 33 516 46 3 2 -21 7 -53 10 -32 3 -178 19 -325 36 -147 17 -274 31
-283 31 -13 0 -15 21 -15 140 l0 140 30 0 c30 0 30 1 30 55 l0 55 -32 1 c-18
1 -44 4 -58 8 -25 7 -25 7 -3 13 20 5 22 13 25 79 l3 74 55 5 c42 4 62 12 85
34 l30 28 -307 304 c-169 167 -315 304 -324 304 -10 0 -70 -11 -133 -24 -219
-46 -452 -89 -457 -83 -3 2 -6 18 -7 33 -3 27 -5 29 -42 25 -51 -4 -55 -7 -55
-40 0 -37 -14 -47 -77 -56 -46 -6 -56 -12 -89 -53 -21 -26 -69 -83 -108 -127
-38 -44 -78 -89 -88 -101 -15 -17 -16 -25 -6 -52 15 -38 8 -47 -37 -44 l-35 3
0 -50 c0 -42 3 -49 18 -45 9 2 141 20 292 39 236 31 279 40 302 58 14 12 128
117 253 232 125 116 234 214 241 218 8 5 23 2 36 -8 36 -24 546 -535 539 -539
-3 -2 -20 -3 -38 -2 -33 1 -53 20 -424 384 -81 79 -98 92 -110 80 -34 -32
-303 -281 -387 -358 -105 -97 -87 -91 -337 -109 -77 -6 -195 -16 -263 -22
l-122 -12 6 -161 c4 -88 11 -167 17 -174 13 -17 10 -19 -45 -27 l-48 -7 0 262
0 261 21 -6 c13 -4 19 -3 16 2 -4 6 -64 29 -134 53 -70 23 -132 47 -138 52
-16 16 49 0 208 -53 167 -55 157 -52 157 -39 0 5 -47 40 -105 77 -57 38 -105
71 -105 74 0 4 16 10 35 13 43 8 44 18 3 48 -18 12 -136 103 -263 202 -434
339 -832 646 -837 646 -2 0 -61 -48 -133 -106z m363 -151 c125 -97 265 -206
312 -241 47 -36 126 -98 175 -137 50 -39 138 -108 197 -152 l106 -80 -53 -7
-54 -6 -156 122 c-308 242 -719 558 -742 572 -8 4 -52 -25 -114 -76 -56 -46
-175 -141 -265 -213 -256 -205 -416 -335 -454 -371 -33 -32 -38 -33 -92 -27
-32 3 -58 10 -58 14 0 5 4 9 10 9 9 0 98 68 246 187 39 32 129 105 200 162
304 246 494 402 499 411 3 6 8 10 11 10 3 0 107 -80 232 -177z m-284 -209 c14
-5 16 -33 16 -210 l0 -204 -75 0 -75 0 0 170 0 169 53 40 c56 44 57 44 81 35z
m213 -36 l63 -43 0 -168 0 -168 -77 3 -78 3 -3 195 c-1 107 0 200 2 207 9 21
28 15 93 -29z m-417 -238 l0 -140 -150 0 -150 0 1 38 c0 36 3 39 147 139 81
56 148 102 150 103 1 0 2 -63 2 -140z m766 -4 c62 -41 72 -52 77 -83 4 -20 4
-40 1 -45 -3 -4 -70 -8 -150 -8 l-144 0 0 140 0 140 73 -48 c39 -26 104 -69
143 -96z m-1126 -152 l0 -44 635 0 634 0 7 49 6 49 32 -8 c17 -5 50 -14 74
-20 l42 -11 -2 -172 -3 -172 -37 -3 -38 -3 0 40 c0 40 -1 41 -35 41 l-35 0 0
75 0 75 -640 0 -640 0 0 -54 c0 -29 -3 -81 -6 -115 l-7 -61 -69 0 -68 0 2 172
3 171 65 22 c36 12 68 20 73 18 4 -2 7 -24 7 -49z m3020 -79 c13 -14 22 -26
19 -27 -2 -2 -69 -1 -149 2 l-145 5 29 23 c25 19 40 22 126 22 90 0 98 -2 120
-25z m-4430 -20 l23 -25 -138 0 -138 0 23 25 c22 23 30 25 115 25 85 0 93 -2
115 -25z m4535 -80 l28 -25 -258 0 -259 0 28 29 28 30 203 -4 c201 -4 203 -4
230 -30z m-4445 -10 l23 -25 -228 0 -228 0 23 25 c23 25 24 25 205 25 181 0
182 0 205 -25z m1678 -247 l-3 -273 -145 0 -145 0 -3 273 -2 272 150 0 150 0
-2 -272z m220 0 l-3 -273 -72 -3 -73 -4 0 276 0 276 75 0 75 0 -2 -272z m264
2 c2 -173 -1 -271 -7 -273 -5 -2 -40 -5 -77 -6 l-68 -2 0 275 0 276 75 0 74 0
3 -270z m366 -2 l-3 -273 -147 -3 -148 -3 0 275 0 276 150 0 150 0 -2 -272z
m462 -10 c0 -123 -3 -233 -6 -245 -5 -18 -14 -23 -40 -23 l-34 0 0 245 0 245
40 0 40 0 0 -222z m1559 177 l26 -25 -351 0 c-193 0 -354 3 -357 6 -4 4 4 16
18 28 24 20 32 21 332 19 l307 -3 25 -25z m-4456 -3 l21 -22 -319 0 -318 0 21
23 c21 22 23 22 297 21 269 -1 277 -1 298 -22z m2567 -32 c0 -27 -3 -30 -30
-30 -27 0 -30 3 -30 30 0 27 3 30 30 30 27 0 30 -3 30 -30z m1954 -26 c9 -3
16 -15 16 -27 0 -20 -3 -20 -170 -13 -118 5 -170 4 -170 -3 0 -7 23 -11 55
-11 l55 0 0 -95 0 -95 -55 0 c-42 0 -55 -3 -55 -15 0 -13 26 -15 171 -15 l170
0 -3 -22 c-3 -23 -5 -23 -170 -26 l-167 -2 -3 -58 c-2 -31 -7 -57 -13 -57 -6
0 -11 76 -13 203 l-2 202 -100 0 -100 0 -1 -137 c-1 -76 0 -148 1 -160 1 -15
-4 -23 -14 -23 -9 0 -16 7 -16 15 0 10 -10 15 -29 15 -39 0 -61 9 -61 26 0 11
-16 14 -65 14 -36 0 -65 4 -65 10 0 6 42 9 106 9 80 -1 108 2 115 12 11 17 9
18 -116 21 l-100 3 -3 28 -3 27 110 0 c92 0 111 3 111 15 0 12 -19 15 -110 15
l-110 0 0 30 0 30 110 0 c103 0 110 1 110 20 0 19 -7 20 -110 20 l-110 0 0 25
0 25 394 0 c217 0 401 -3 410 -6z m-4446 -25 c-3 -20 -10 -22 -73 -24 -38 -1
-75 2 -81 7 -7 5 -70 7 -140 6 l-129 -3 3 -100 c1 -55 0 -119 -3 -143 l-6 -42
-172 2 -172 3 0 30 0 30 160 0 160 0 0 110 0 110 -157 -4 c-137 -3 -158 -1
-158 12 0 8 6 18 13 20 6 3 180 6 385 6 l373 1 -3 -21z m1140 -21 l-3 -33 -67
-3 -68 -3 0 35 0 36 71 0 70 0 -3 -32z m1437 -3 l0 -30 -72 -3 -73 -3 0 36 0
36 73 -3 72 -3 0 -30z m675 -80 l0 -95 -45 0 -45 0 0 95 0 95 45 0 45 0 0 -95z
m135 0 l0 -90 -50 0 -50 0 -3 79 c-4 105 -2 108 55 104 l48 -3 0 -90z m-3845
-13 c0 -49 -2 -91 -5 -94 -3 -2 -24 -2 -47 1 l-43 6 1 50 c0 28 1 67 2 88 l2
37 45 0 45 0 0 -88z m565 -14 c9 -121 4 -210 -12 -216 -10 -3 -13 32 -13 152
0 87 4 156 9 156 5 0 12 -42 16 -92z m-705 47 c0 -25 -1 -25 -85 -25 -84 0
-85 0 -85 25 0 25 1 25 85 25 84 0 85 0 85 -25z m584 19 c9 -3 16 -15 16 -25
0 -17 -8 -19 -80 -19 -72 0 -80 2 -80 19 0 11 6 22 13 24 18 8 113 8 131 1z
m4476 -24 l0 -30 -100 0 c-99 0 -100 0 -100 24 0 28 14 32 128 35 l72 1 0 -30z
m-3400 -15 c0 -32 -2 -35 -30 -35 -28 0 -30 3 -30 35 0 32 2 35 30 35 28 0 30
-3 30 -35z m82 30 c2 -3 3 -18 0 -35 -4 -25 -9 -30 -33 -30 -26 0 -29 3 -29
35 0 32 3 35 28 35 16 0 31 -2 34 -5z m1343 -30 c0 -25 -4 -30 -27 -33 -26 -3
-28 -1 -28 33 0 34 2 36 28 33 23 -3 27 -8 27 -33z m90 0 c0 -27 -4 -30 -32
-33 -32 -3 -33 -2 -33 33 0 35 1 36 33 33 28 -3 32 -6 32 -33z m-2885 -129 c0
-110 -3 -135 -15 -140 -13 -5 -15 14 -15 134 0 118 2 140 15 140 13 0 15 -22
15 -134z m-290 64 l0 -30 -85 0 c-83 0 -85 0 -85 24 0 28 14 32 113 35 l57 1
0 -30z m603 -1 c7 -27 -5 -31 -94 -27 -57 2 -74 6 -75 18 -1 27 7 30 85 30 71
0 79 -2 84 -21z m1137 -9 l0 -30 -70 0 -70 0 0 30 0 30 70 0 70 0 0 -30z
m1440 0 l0 -30 -75 0 -75 0 0 30 0 30 75 0 75 0 0 -30z m980 -5 c0 -32 -2 -35
-30 -35 -28 0 -30 3 -30 35 0 32 2 35 30 35 28 0 30 -3 30 -35z m900 0 l0 -25
-100 0 -100 0 0 25 0 25 100 0 100 0 0 -25z m-4467 -55 c5 0 5 -4 2 -10 -8
-12 -152 -13 -159 -1 -11 17 11 22 79 17 38 -3 74 -5 78 -6z m1067 -26 c0 -34
-1 -35 -32 -32 -54 5 -53 68 2 68 28 0 30 -3 30 -36z m85 1 c0 -27 -4 -30 -32
-33 -32 -3 -33 -2 -33 33 0 35 1 36 33 33 28 -3 32 -6 32 -33z m1345 0 c0 -32
-2 -35 -30 -35 -28 0 -30 3 -30 35 0 32 2 35 30 35 28 0 30 -3 30 -35z m85 0
c0 -27 -4 -30 -32 -33 -32 -3 -33 -2 -33 33 0 35 1 36 33 33 28 -3 32 -6 32
-33z m-1429 -72 c-3 -27 -5 -28 -75 -31 l-71 -3 0 31 0 30 74 0 75 0 -3 -27z
m1432 0 c-3 -28 -4 -28 -75 -30 l-73 -1 0 29 0 29 76 0 75 0 -3 -27z m-2489
-74 c57 -11 174 -45 260 -76 86 -30 230 -81 321 -112 229 -81 352 -129 370
-146 12 -13 7 -15 -42 -15 -127 0 -579 109 -933 225 -55 18 -160 50 -234 71
l-134 38 39 14 c95 34 179 34 353 1z m-477 -50 c102 -20 183 -40 258 -64 74
-23 319 -96 540 -159 63 -19 180 -51 260 -71 80 -21 149 -42 155 -47 20 -18
-183 -7 -305 16 -204 39 -506 84 -635 95 -110 8 -136 15 -310 76 -104 37 -214
74 -242 82 -29 9 -53 19 -53 23 0 8 115 48 155 53 61 8 126 7 177 -4z m-434
-105 c99 -20 413 -125 406 -136 -3 -4 -13 -8 -22 -8 -64 0 -219 -116 -248
-187 l-14 -32 -77 29 c-128 47 -385 146 -427 164 -36 15 -38 18 -32 49 22 111
202 164 414 121z"/>
<path d="M2384 5353 c-175 -179 -205 -205 -218 -194 -14 12 -16 10 -16 -8 0
-11 -5 -21 -10 -21 -6 0 -15 -11 -20 -24 -5 -14 -26 -43 -46 -65 l-36 -41 28
0 c25 0 69 40 284 255 140 140 256 255 259 255 10 0 373 -330 457 -416 38 -38
47 -42 120 -52 81 -12 228 -26 241 -23 5 0 8 14 9 31 1 26 -3 30 -32 36 -19 3
-49 3 -68 0 -34 -6 -34 -6 -40 39 -8 47 -3 65 17 65 7 0 49 14 94 31 l82 32
-77 83 c-42 46 -84 84 -93 84 -10 0 -176 32 -370 70 -195 39 -356 70 -358 70
-3 0 -96 -93 -207 -207z"/>
<path d="M1891 5090 c-27 -37 -32 -52 -28 -82 5 -35 1 -41 -44 -82 l-50 -45
43 -3 43 -3 -57 -58 c-32 -32 -58 -60 -58 -63 0 -2 20 -4 45 -4 25 0 45 -4 45
-9 0 -13 -74 -77 -111 -96 -43 -23 -25 -38 40 -34 28 2 51 2 51 -1 0 -2 -15
-19 -32 -37 -43 -44 -29 -53 82 -52 129 1 186 11 182 31 -2 12 8 18 38 23 47
8 50 15 12 37 -15 9 -35 25 -45 36 -17 19 -17 20 23 26 43 7 52 21 20 31 -25
8 -80 53 -80 66 0 5 18 9 40 9 22 0 40 2 40 4 0 3 -24 27 -52 55 -41 38 -50
53 -41 62 9 9 6 21 -14 52 -16 26 -21 42 -14 46 7 5 5 20 -8 46 -10 22 -23 51
-28 65 -10 24 -10 24 -42 -20z"/>
<path d="M7929 5084 c-12 -27 -22 -64 -23 -82 -1 -19 -13 -47 -29 -67 -32 -41
-33 -45 -7 -45 11 0 20 -5 20 -11 0 -18 -59 -87 -91 -106 -34 -20 -22 -33 34
-33 20 0 37 -4 37 -8 0 -13 -55 -62 -97 -87 -37 -23 -37 -24 -13 -29 14 -3 41
-7 60 -8 l35 -3 -62 -61 -61 -60 66 -17 c104 -25 316 -42 392 -31 l65 10 -39
17 c-51 23 -99 59 -125 96 l-20 28 69 -5 c39 -2 70 -1 70 4 -1 5 -24 24 -53
43 -29 19 -62 47 -75 62 l-24 29 59 1 58 0 -30 22 c-44 32 -115 108 -115 123
0 8 12 11 38 9 20 -1 40 -1 44 1 3 2 -18 27 -48 56 -30 28 -54 57 -54 64 0 24
-31 109 -46 123 -11 12 -16 7 -35 -35z"/>
<path d="M3357 4974 c-4 -4 -7 -97 -7 -206 l0 -199 43 3 42 3 3 198 2 197 -24
0 c-13 0 -31 2 -38 5 -8 3 -17 2 -21 -1z"/>
<path d="M4440 4279 c146 -12 180 -19 199 -38 39 -39 33 -213 -9 -255 -14 -15
-39 -21 -102 -25 l-83 -6 75 -5 c106 -7 131 -1 154 39 24 42 33 167 17 228
-18 65 -42 73 -208 72 l-138 -2 95 -8z"/>
<path d="M3186 3336 c-73 -81 -76 -85 -56 -96 12 -6 29 -9 38 -5 41 15 192
118 192 130 0 15 -60 55 -82 55 -9 0 -50 -38 -92 -84z"/>
<path d="M5627 3164 l-49 -15 7 -97 c5 -78 -6 -386 -28 -727 -2 -35 1 -40 21
-43 12 -2 46 2 76 8 64 13 66 18 66 171 0 82 3 99 15 99 9 0 20 -12 26 -27 25
-67 77 -159 111 -198 60 -69 138 -77 226 -23 43 26 42 48 -2 48 -59 0 -106 52
-186 208 l-43 83 29 29 c37 37 142 100 166 100 45 0 -2 45 -59 56 -18 4 -41 0
-59 -9 -33 -17 -111 -98 -164 -169 -19 -26 -39 -48 -44 -48 -5 0 -6 34 -3 78
18 231 30 460 24 475 -8 21 -63 22 -130 1z"/>
<path d="M3150 3161 c-65 -12 -111 -34 -155 -72 -50 -44 -75 -100 -75 -169 0
-100 43 -158 201 -273 84 -61 126 -106 135 -143 27 -106 -78 -196 -193 -165
-45 12 -96 59 -123 111 -28 54 -43 64 -64 41 -28 -31 -45 -91 -35 -120 12 -31
31 -46 99 -79 49 -23 67 -26 155 -26 124 1 193 24 260 90 58 56 78 102 78 184
1 108 -36 159 -205 279 -137 97 -165 141 -131 208 51 105 209 88 269 -28 20
-39 36 -36 62 10 53 95 1 142 -168 155 -36 3 -85 1 -110 -3z"/>
<path d="M4205 3090 c-33 -13 -47 -37 -49 -79 -1 -46 22 -77 65 -86 96 -21
166 88 99 155 -21 21 -77 26 -115 10z"/>
<path d="M5195 3025 c-30 -30 -32 -64 -4 -99 41 -52 129 -16 129 54 0 65 -77
93 -125 45z"/>
<path d="M3560 2811 c-25 -9 -44 -23 -42 -30 10 -46 12 -210 4 -336 -5 -82 -7
-152 -6 -154 6 -6 53 -5 106 3 l47 7 6 57 c21 196 120 372 186 331 11 -6 13
-30 9 -106 -8 -171 -6 -216 15 -250 24 -41 57 -58 115 -58 72 0 162 67 132 97
-8 8 -15 8 -26 -1 -8 -7 -27 -11 -43 -9 -43 5 -49 36 -36 209 14 177 6 216
-52 243 -45 22 -63 20 -121 -9 -63 -31 -96 -65 -138 -144 l-33 -62 1 113 1
113 -40 2 c-22 1 -60 -6 -85 -16z"/>
<path d="M4192 2813 c-38 -13 -43 -18 -36 -37 4 -11 10 -114 13 -228 l6 -207
29 -30 c52 -54 126 -51 196 7 25 21 32 33 26 47 -5 14 -9 16 -18 7 -7 -7 -25
-12 -40 -12 -47 0 -51 29 -40 245 7 120 7 196 1 207 -12 23 -75 23 -137 1z"/>
<path d="M4620 2809 c-58 -26 -116 -82 -143 -139 -18 -37 -22 -63 -22 -147 0
-96 1 -103 30 -145 65 -93 207 -128 324 -78 47 21 121 87 121 109 0 22 -22 20
-60 -5 -55 -37 -123 -43 -177 -16 -31 16 -45 32 -62 71 -27 64 -27 69 7 77 51
11 157 47 193 65 111 55 117 171 13 215 -51 21 -170 18 -224 -7z m134 -51 c19
-27 20 -67 4 -103 -13 -29 -62 -58 -117 -70 l-34 -7 6 50 c6 52 27 103 55 135
22 24 67 22 86 -5z"/>
<path d="M5008 2787 c-2 -21 0 -41 5 -44 8 -5 68 -1 211 13 l59 6 -24 -33
c-38 -55 -159 -208 -226 -288 -63 -74 -68 -86 -57 -128 6 -22 9 -22 153 -20
80 1 187 -2 238 -7 102 -9 98 -12 106 64 2 24 0 25 -58 25 -33 0 -99 -4 -147
-8 -62 -6 -88 -5 -88 3 0 11 156 220 242 323 38 47 48 66 48 96 l0 37 -229 0
-229 -1 -4 -38z"/>
<path d="M6315 2801 c-33 -16 -69 -38 -81 -48 -56 -49 -104 -166 -104 -253 0
-231 216 -304 344 -116 22 33 27 36 32 20 25 -80 70 -124 127 -124 37 0 89 23
115 50 25 27 19 55 -8 40 -37 -20 -60 -12 -76 27 -14 32 -14 56 -2 202 7 91
13 175 13 186 0 22 -39 30 -210 41 -86 5 -93 4 -150 -25z m190 -45 c17 -12 18
-19 7 -110 -14 -112 -40 -187 -79 -228 -53 -55 -116 -28 -129 57 -14 95 13
210 62 261 26 29 38 34 76 34 24 0 53 -6 63 -14z"/>
<path d="M4997 2144 c-42 -13 -47 -17 -41 -37 8 -25 6 -217 -2 -265 -4 -20
-18 -41 -35 -54 -39 -29 -38 -52 1 -46 l29 4 -2 -106 c-2 -88 1 -111 16 -133
37 -57 108 -59 167 -6 l35 30 -33 -5 c-24 -4 -37 -1 -52 14 -17 17 -20 34 -20
113 0 50 3 109 6 129 6 33 10 37 45 43 23 4 43 15 49 25 19 36 12 41 -40 34
l-51 -7 6 84 c3 46 8 103 10 126 3 29 0 47 -11 58 -18 18 -16 18 -77 -1z"/>
<path d="M4310 2117 c-62 -14 -80 -40 -34 -51 l27 -7 -7 -152 c-3 -84 -9 -214
-13 -289 l-6 -137 29 -12 c45 -17 246 -6 322 19 118 38 198 132 222 259 15 76
8 173 -16 232 -23 58 -91 115 -162 135 -69 19 -276 21 -362 3z m295 -61 c21
-11 53 -41 70 -64 30 -43 30 -45 30 -175 0 -125 -2 -135 -28 -190 -37 -75 -86
-109 -166 -115 -96 -7 -94 -10 -86 257 9 289 12 304 50 312 41 8 83 0 130 -25z"/>
<path d="M6184 2092 c-37 -24 -39 -93 -4 -112 31 -16 76 -11 95 10 24 27 24
79 0 96 -20 15 -73 18 -91 6z"/>
<path d="M3270 1889 l-35 -10 0 -160 0 -160 50 3 50 3 7 50 c12 98 62 195 99
195 18 0 19 -8 19 -104 0 -91 3 -107 22 -131 19 -25 26 -27 70 -23 44 5 88 29
88 49 0 4 -15 5 -34 2 -45 -7 -50 10 -41 131 6 75 4 99 -9 123 -35 69 -126 42
-183 -54 -14 -24 -26 -43 -26 -43 -1 0 -2 30 -2 67 0 76 -6 81 -75 62z"/>
<path d="M3815 1895 c-5 -2 -22 -6 -37 -9 -74 -17 -128 -104 -129 -212 -1 -64
1 -70 30 -96 53 -47 146 -32 184 29 12 20 24 15 31 -13 14 -54 104 -62 151
-13 l20 21 -27 -6 c-18 -4 -32 -1 -44 11 -15 15 -16 31 -10 130 3 62 7 118 9
124 3 18 -143 46 -178 34z m68 -47 c15 -12 15 -19 -1 -100 -24 -116 -65 -164
-106 -122 -18 18 -22 126 -6 168 21 57 74 82 113 54z"/>
<path d="M6187 1888 c-31 -8 -37 -14 -30 -27 4 -9 8 -87 8 -175 l0 -158 28
-24 c37 -31 92 -32 137 -1 49 32 49 46 1 40 -37 -5 -40 -4 -47 22 -4 16 -4 91
0 168 8 175 4 182 -97 155z"/>
<path d="M5335 1881 c-102 -26 -162 -100 -172 -210 -14 -154 133 -255 279
-192 157 68 184 316 42 389 -29 15 -113 22 -149 13z m72 -50 c31 -29 47 -101
40 -185 -6 -85 -27 -133 -61 -142 -61 -15 -87 38 -88 173 0 98 10 133 44 157
29 21 40 20 65 -3z"/>
<path d="M5672 1875 c-29 -13 -32 -18 -25 -37 4 -13 7 -101 5 -195 l-3 -173
35 0 c69 0 82 12 88 77 6 65 58 201 88 228 10 9 27 15 37 13 16 -3 18 -16 19
-129 2 -141 9 -164 60 -185 40 -17 75 -11 121 20 46 29 43 45 -7 39 -36 -5
-40 -3 -50 21 -6 16 -7 73 -3 144 5 98 3 123 -11 149 -42 82 -167 35 -224 -84
-9 -18 -18 -33 -21 -33 -3 0 -6 35 -6 77 l0 78 -35 2 c-19 2 -50 -4 -68 -12z"/>
</g>
</svg>
