<svg width="419" height="378" viewBox="0 0 419 378" fill="none" xmlns="http://www.w3.org/2000/svg">
<path d="M329.056 192.362C378.604 192.362 418.771 149.44 418.771 96.4934C418.771 43.5465 378.604 0.62455 329.056 0.62455C279.508 0.62455 239.342 43.5465 239.342 96.4934C239.342 149.44 279.508 192.362 329.056 192.362Z" fill="#E5F1FF"/>
<path d="M134.974 338.214C155.452 316.332 155.452 280.854 134.974 258.972C114.497 237.09 81.2964 237.09 60.8189 258.972C40.3415 280.854 40.3415 316.332 60.8189 338.214C81.2964 360.096 114.497 360.096 134.974 338.214Z" fill="#E5F1FF"/>
<path d="M97.2004 32.5845C70.7251 32.5845 49.2634 55.5196 49.2634 83.811C49.2634 112.102 70.7261 135.038 97.2004 135.038C123.676 135.038 145.138 112.102 145.138 83.811C145.137 55.5196 123.675 32.5845 97.2004 32.5845ZM97.2004 116.562C80.2736 116.562 66.5519 101.899 66.5519 83.811C66.5519 65.7231 80.2736 51.0601 97.2004 51.0601C114.127 51.0601 127.849 65.7231 127.849 83.811C127.849 101.899 114.126 116.562 97.2004 116.562Z" fill="#A9CCEA"/>
<path d="M278.309 360.095C278.309 363.341 275.846 365.973 272.808 365.973H133.711C130.673 365.973 128.211 363.341 128.211 360.095C128.211 356.848 130.673 354.217 133.711 354.217H183.09L189.9 340.78H201.688H204.832H216.619L223.43 354.217H272.808C275.846 354.217 278.309 356.848 278.309 360.095Z" fill="#0F3157"/>
<path d="M213.507 328.604H190.717V335.742H213.507V328.604Z" fill="#FF4D6B"/>
<path d="M213.507 316.846H190.717V323.985H213.507V316.846Z" fill="#FF4D6B"/>
<path d="M383.565 292.69C379.601 294.317 375.296 295.207 370.797 295.207C351.115 295.207 335.158 278.157 335.158 257.123C335.158 236.09 351.114 219.039 370.797 219.039C390.48 219.039 406.435 236.09 406.435 257.123C406.435 262.759 405.289 268.109 403.234 272.921" stroke="#FF4D6B" stroke-width="1.1276" stroke-miterlimit="10" stroke-linecap="round" stroke-linejoin="round"/>
<path d="M282.937 78.3317H277.247C276.066 72.9294 274.078 67.8612 271.415 63.2822L275.438 58.9837C277.172 57.1304 277.172 54.1254 275.438 52.2722L266.5 42.721C264.765 40.8678 261.953 40.8678 260.219 42.721L256.196 47.0185C251.912 44.1733 247.169 42.0486 242.114 40.7874V34.707C242.114 32.0863 240.126 29.9616 237.673 29.9616H225.034C222.581 29.9616 220.593 32.0863 220.593 34.707V40.7874C215.537 42.0486 210.794 44.1744 206.509 47.0185L202.487 42.721C200.753 40.8678 197.94 40.8678 196.206 42.721L187.269 52.2722C185.535 54.1254 185.535 57.1304 187.269 58.9837L191.292 63.2822C188.629 67.8601 186.641 72.9283 185.46 78.3317H179.77C177.317 78.3317 175.329 80.4564 175.329 83.0771V96.5838C175.329 99.2045 177.317 101.329 179.77 101.329H185.46C186.64 106.731 188.629 111.8 191.291 116.379L187.269 120.677C185.535 122.531 185.535 125.536 187.269 127.389L196.206 136.94C197.94 138.793 200.753 138.793 202.487 136.94L206.509 132.642C210.793 135.488 215.536 137.612 220.593 138.875V144.955C220.593 147.576 222.581 149.7 225.034 149.7H237.673C240.126 149.7 242.114 147.576 242.114 144.955V138.875C247.169 137.612 251.912 135.488 256.197 132.642L260.22 136.94C261.954 138.793 264.766 138.793 266.501 136.94L275.439 127.389C277.173 125.536 277.173 122.531 275.439 120.677L271.416 116.379C274.079 111.801 276.067 106.733 277.248 101.329H282.938C285.391 101.329 287.379 99.2045 287.379 96.5838V83.0771C287.378 80.4553 285.39 78.3317 282.937 78.3317ZM231.354 113.923C218.902 113.923 208.808 103.137 208.808 89.8299C208.808 76.5242 218.902 65.7376 231.354 65.7376C243.805 65.7376 253.901 76.5242 253.901 89.8299C253.901 103.137 243.807 113.923 231.354 113.923Z" fill="#289DF2"/>
<path d="M46.6887 313.638C40.0683 313.638 34.7013 307.903 34.7013 300.827V100.351C34.7013 93.275 40.0683 87.5399 46.6897 87.5399H359.831C366.451 87.5399 371.82 93.275 371.82 100.35V300.826C371.82 307.901 366.453 313.637 359.831 313.637H46.6887V313.638Z" fill="#0F3775"/>
<path d="M94.057 115.512H59.2824V123.7H94.057V115.512Z" fill="#284D89"/>
<path d="M135.903 115.512H101.129V123.7H135.903V115.512Z" fill="#284D89"/>
<path d="M241.995 115.512H207.22V123.7H241.995V115.512Z" fill="#284D89"/>
<path d="M348.086 115.512H313.312V123.7H348.086V115.512Z" fill="#284D89"/>
<path d="M202.799 115.512H140.618V123.7H202.799V115.512Z" fill="#FF4D6B"/>
<path d="M308.301 115.512H246.12V123.7H308.301V115.512Z" fill="#2889DB"/>
<path d="M65.5693 109.004H59.4789V112.993H65.5693V109.004Z" fill="#2889DB"/>
<path d="M123.035 130.418H59.4789V134.407H123.035V130.418Z" fill="white"/>
<path d="M78.3397 137.452H59.4789V141.441H78.3397V137.452Z" fill="white"/>
<path d="M126.768 284.936H67.8283C63.4336 284.936 59.8719 281.129 59.8719 276.433V162.434C59.8719 157.738 63.4346 153.932 67.8283 153.932H126.768C131.163 153.932 134.724 157.739 134.724 162.434V276.433C134.724 281.129 131.163 284.936 126.768 284.936Z" fill="#284D89"/>
<path d="M94.3517 173.142H69.3023V177.236H94.3517V173.142Z" fill="white"/>
<path d="M94.3517 182.274H69.3023V186.368H94.3517V182.274Z" fill="white"/>
<path d="M94.3517 191.406H69.3023V195.5H94.3517V191.406Z" fill="white"/>
<path d="M84.6265 229.511H69.3023V233.605H84.6265V229.511Z" fill="white"/>
<path d="M84.6265 238.643H69.3023V242.737H84.6265V238.643Z" fill="white"/>
<path d="M110.952 238.643H95.6282V242.737H110.952V238.643Z" fill="white"/>
<path d="M78.9292 219.119H69.3023V223.213H78.9292V219.119Z" fill="white"/>
<path d="M115.667 219.119H110.559V223.213H115.667V219.119Z" fill="white"/>
<path d="M108.595 219.119H82.2682V223.213H108.595V219.119Z" fill="#FF4D6B"/>
<path d="M72.9862 203.688H69.3023V207.783H72.9862V203.688Z" fill="#2889DB"/>
<path d="M72.9862 210.93H69.3023V215.025H72.9862V210.93Z" fill="#FF4D6B"/>
<path d="M89.7343 243.577H88.3585L91.6494 238.328H93.0251L89.7343 243.577Z" fill="white"/>
<path d="M126.179 250.61H69.3023V254.074H126.179V250.61Z" fill="#282E5C"/>
<path d="M126.179 258.483H69.3023V261.947H126.179V258.483Z" fill="#282E5C"/>
<path d="M399.756 208.096H243.37C239.463 208.096 236.297 204.713 236.297 200.538V155.191C236.297 151.016 239.463 147.633 243.37 147.633H399.756C403.663 147.633 406.829 151.016 406.829 155.191V200.538C406.828 204.713 403.662 208.096 399.756 208.096Z" fill="#289DF2"/>
<path d="M286.985 186.683C286.985 186.683 295.629 164.009 320.384 169.467C345.138 174.925 357.712 204.737 389.54 180.385" stroke="white" stroke-width="1.1276" stroke-miterlimit="10"/>
<path d="M367.143 187.942H363.606V191.721H367.143V187.942Z" fill="#289DF2" stroke="white" stroke-width="1.1276" stroke-miterlimit="10"/>
<path d="M291.308 168.417H336.101" stroke="white" stroke-width="0.5638" stroke-miterlimit="10"/>
<path d="M342.978 190.882H387.772" stroke="white" stroke-width="0.5638" stroke-miterlimit="10"/>
<path d="M313.705 166.528H310.168V170.307H313.705V166.528Z" fill="#289DF2" stroke="white" stroke-width="1.1276" stroke-miterlimit="10"/>
<path d="M266.16 223.633H232.368C229.547 223.633 227.26 221.189 227.26 218.175V164.009C227.26 160.994 229.548 158.551 232.368 158.551H266.16C268.981 158.551 271.268 160.995 271.268 164.009V218.175C271.268 221.189 268.981 223.633 266.16 223.633Z" fill="#284D89"/>
<path d="M259.185 167.788H234.136V171.479H259.185V167.788Z" fill="white"/>
<path d="M259.185 176.02H234.136V179.711H259.185V176.02Z" fill="white"/>
<path d="M243.566 184.253H234.136V187.944H243.566V184.253Z" fill="white"/>
<path d="M250.443 192.77H234.136V196.461H250.443V192.77Z" fill="#289DF2"/>
<path d="M245.137 201.003H234.136V204.694H245.137V201.003Z" fill="#289DF2"/>
<path d="M245.137 209.235H234.136V212.926H245.137V209.235Z" fill="white"/>
<path d="M379.323 139.446H397.006" stroke="#284D89" stroke-width="2.2552" stroke-miterlimit="10" stroke-linecap="round" stroke-linejoin="round"/>
<path d="M339.595 246.06L333.492 251.164L324.736 252.865C324.736 252.865 316.511 252.297 315.714 252.297C314.918 252.297 309.347 247.477 309.347 247.477L298.998 243.508L291.834 246.343L283.344 244.358L270.608 243.507L258.403 248.611L248.32 250.312L239.299 253.431L229.216 254.283L218.338 245.21L208.255 243.224L197.907 249.462L189.682 252.297L180.344 252.014L168.575 259.669H161.557L149.706 264.111" stroke="#FF5C66" stroke-width="1.0152" stroke-miterlimit="10"/>
<path d="M149.883 264.301H339.859" stroke="#F7F7F7" stroke-width="0.2538" stroke-miterlimit="10"/>
<path d="M149.972 261.748H148.027V266.852H149.972V261.748Z" fill="#F7F7F7"/>
<path d="M340.656 261.748H338.71V266.852H340.656V261.748Z" fill="#F7F7F7"/>
<path d="M339.682 264.301V247.193" stroke="#F7F7F7" stroke-width="0.2538" stroke-miterlimit="10"/>
<path d="M340.744 246.343C340.744 247.23 340.07 247.95 339.24 247.95C338.41 247.95 337.737 247.23 337.737 246.343C337.737 245.456 338.41 244.737 339.24 244.737C340.07 244.737 340.744 245.456 340.744 246.343Z" fill="#F7F7F7"/>
<path d="M150.864 275.2V269.293H151.544V271.473H151.602C151.652 271.396 151.721 271.298 151.81 271.179C151.9 271.058 152.029 270.95 152.196 270.856C152.365 270.76 152.594 270.712 152.883 270.712C153.256 270.712 153.584 270.805 153.869 270.992C154.154 271.178 154.376 271.443 154.535 271.785C154.695 272.127 154.775 272.531 154.775 272.996C154.775 273.465 154.695 273.872 154.535 274.216C154.376 274.558 154.155 274.824 153.872 275.012C153.589 275.199 153.263 275.292 152.894 275.292C152.61 275.292 152.382 275.245 152.211 275.151C152.039 275.055 151.908 274.946 151.815 274.825C151.723 274.702 151.652 274.6 151.602 274.519H151.521V275.2H150.864ZM151.533 272.985C151.533 273.319 151.582 273.614 151.68 273.87C151.778 274.124 151.921 274.323 152.11 274.467C152.298 274.609 152.529 274.681 152.802 274.681C153.086 274.681 153.324 274.606 153.514 274.456C153.707 274.304 153.851 274.1 153.947 273.844C154.045 273.586 154.094 273.3 154.094 272.985C154.094 272.673 154.046 272.392 153.95 272.142C153.856 271.891 153.712 271.692 153.52 271.545C153.33 271.397 153.09 271.323 152.802 271.323C152.525 271.323 152.292 271.393 152.104 271.534C151.915 271.672 151.773 271.866 151.677 272.116C151.581 272.365 151.533 272.654 151.533 272.985ZM157.673 275.292C157.246 275.292 156.878 275.198 156.569 275.009C156.261 274.819 156.024 274.554 155.856 274.213C155.691 273.871 155.608 273.473 155.608 273.019C155.608 272.565 155.691 272.165 155.856 271.819C156.024 271.471 156.256 271.2 156.554 271.006C156.854 270.81 157.204 270.712 157.604 270.712C157.835 270.712 158.063 270.75 158.288 270.827C158.513 270.904 158.717 271.029 158.902 271.202C159.087 271.373 159.234 271.6 159.343 271.883C159.453 272.165 159.508 272.514 159.508 272.927V273.215H156.093V272.627H158.815C158.815 272.377 158.765 272.154 158.665 271.958C158.567 271.762 158.427 271.607 158.244 271.493C158.064 271.38 157.85 271.323 157.604 271.323C157.333 271.323 157.098 271.391 156.9 271.525C156.704 271.658 156.553 271.831 156.448 272.044C156.342 272.258 156.289 272.487 156.289 272.731V273.123C156.289 273.458 156.347 273.741 156.462 273.974C156.579 274.205 156.742 274.381 156.949 274.502C157.157 274.621 157.398 274.681 157.673 274.681C157.852 274.681 158.014 274.656 158.158 274.606C158.304 274.554 158.43 274.477 158.536 274.375C158.641 274.271 158.723 274.142 158.781 273.988L159.438 274.173C159.369 274.396 159.253 274.592 159.089 274.761C158.926 274.929 158.724 275.059 158.484 275.154C158.243 275.246 157.973 275.292 157.673 275.292ZM162.47 270.77V271.346H160.174V270.77H162.47ZM160.843 269.708H161.524V273.931C161.524 274.123 161.552 274.267 161.607 274.363C161.665 274.457 161.738 274.521 161.827 274.554C161.917 274.584 162.012 274.6 162.112 274.6C162.187 274.6 162.249 274.596 162.297 274.588C162.345 274.579 162.383 274.571 162.412 274.565L162.551 275.177C162.504 275.194 162.44 275.211 162.357 275.229C162.275 275.248 162.17 275.257 162.043 275.257C161.851 275.257 161.662 275.216 161.478 275.133C161.295 275.051 161.143 274.925 161.022 274.756C160.903 274.586 160.843 274.373 160.843 274.115V269.708ZM164.797 275.304C164.517 275.304 164.262 275.251 164.033 275.145C163.804 275.037 163.623 274.882 163.488 274.681C163.353 274.477 163.286 274.231 163.286 273.942C163.286 273.688 163.336 273.483 163.436 273.325C163.536 273.165 163.67 273.04 163.837 272.95C164.004 272.86 164.189 272.792 164.391 272.748C164.595 272.702 164.799 272.665 165.005 272.639C165.274 272.604 165.492 272.578 165.66 272.561C165.829 272.541 165.952 272.51 166.029 272.465C166.108 272.421 166.147 272.344 166.147 272.235V272.212C166.147 271.927 166.069 271.706 165.914 271.548C165.76 271.391 165.526 271.312 165.213 271.312C164.888 271.312 164.633 271.383 164.448 271.525C164.264 271.667 164.134 271.819 164.059 271.981L163.413 271.75C163.528 271.481 163.682 271.271 163.874 271.121C164.069 270.969 164.28 270.864 164.509 270.804C164.74 270.743 164.967 270.712 165.19 270.712C165.332 270.712 165.495 270.729 165.68 270.764C165.866 270.796 166.046 270.865 166.219 270.969C166.394 271.072 166.539 271.229 166.655 271.439C166.77 271.648 166.828 271.929 166.828 272.281V275.2H166.147V274.6H166.113C166.066 274.696 165.99 274.799 165.882 274.908C165.774 275.018 165.631 275.111 165.452 275.188C165.273 275.265 165.055 275.304 164.797 275.304ZM164.901 274.692C165.17 274.692 165.397 274.639 165.582 274.533C165.768 274.428 165.909 274.291 166.003 274.124C166.099 273.957 166.147 273.781 166.147 273.596V272.973C166.118 273.008 166.055 273.039 165.957 273.068C165.861 273.095 165.749 273.119 165.622 273.14C165.497 273.16 165.375 273.177 165.256 273.192C165.139 273.206 165.043 273.217 164.97 273.227C164.794 273.25 164.628 273.287 164.474 273.339C164.322 273.389 164.199 273.465 164.105 273.567C164.013 273.667 163.967 273.804 163.967 273.977C163.967 274.213 164.054 274.392 164.229 274.513C164.406 274.632 164.63 274.692 164.901 274.692ZM172.281 270.77V271.346H169.985V270.77H172.281ZM170.655 269.708H171.335V273.931C171.335 274.123 171.363 274.267 171.419 274.363C171.477 274.457 171.55 274.521 171.638 274.554C171.728 274.584 171.824 274.6 171.924 274.6C171.999 274.6 172.06 274.596 172.108 274.588C172.156 274.579 172.195 274.571 172.224 274.565L172.362 275.177C172.316 275.194 172.251 275.211 172.169 275.229C172.086 275.248 171.981 275.257 171.854 275.257C171.662 275.257 171.474 275.216 171.289 275.133C171.106 275.051 170.954 274.925 170.833 274.756C170.714 274.586 170.655 274.373 170.655 274.115V269.708ZM175.115 275.292C174.688 275.292 174.32 275.198 174.01 275.009C173.703 274.819 173.465 274.554 173.298 274.213C173.133 273.871 173.05 273.473 173.05 273.019C173.05 272.565 173.133 272.165 173.298 271.819C173.465 271.471 173.698 271.2 173.996 271.006C174.296 270.81 174.646 270.712 175.046 270.712C175.277 270.712 175.504 270.75 175.729 270.827C175.954 270.904 176.159 271.029 176.344 271.202C176.528 271.373 176.675 271.6 176.785 271.883C176.895 272.165 176.949 272.514 176.949 272.927V273.215H173.534V272.627H176.257C176.257 272.377 176.207 272.154 176.107 271.958C176.009 271.762 175.869 271.607 175.686 271.493C175.505 271.38 175.292 271.323 175.046 271.323C174.775 271.323 174.54 271.391 174.342 271.525C174.146 271.658 173.995 271.831 173.889 272.044C173.783 272.258 173.731 272.487 173.731 272.731V273.123C173.731 273.458 173.788 273.741 173.904 273.974C174.021 274.205 174.183 274.381 174.391 274.502C174.599 274.621 174.84 274.681 175.115 274.681C175.294 274.681 175.455 274.656 175.6 274.606C175.746 274.554 175.872 274.477 175.977 274.375C176.083 274.271 176.165 274.142 176.223 273.988L176.88 274.173C176.811 274.396 176.695 274.592 176.531 274.761C176.368 274.929 176.166 275.059 175.925 275.154C175.685 275.246 175.415 275.292 175.115 275.292ZM181.123 271.762L180.511 271.935C180.473 271.833 180.416 271.734 180.341 271.638C180.268 271.54 180.168 271.459 180.041 271.395C179.914 271.332 179.752 271.3 179.554 271.3C179.283 271.3 179.057 271.363 178.876 271.488C178.697 271.611 178.608 271.767 178.608 271.958C178.608 272.127 178.669 272.261 178.792 272.359C178.915 272.457 179.108 272.539 179.369 272.604L180.027 272.765C180.423 272.862 180.718 273.009 180.912 273.207C181.107 273.403 181.204 273.656 181.204 273.965C181.204 274.219 181.131 274.446 180.984 274.646C180.84 274.846 180.638 275.004 180.379 275.119C180.119 275.234 179.817 275.292 179.473 275.292C179.021 275.292 178.647 275.194 178.351 274.998C178.055 274.802 177.868 274.515 177.789 274.138L178.435 273.977C178.496 274.215 178.613 274.394 178.784 274.513C178.957 274.632 179.183 274.692 179.462 274.692C179.779 274.692 180.031 274.625 180.217 274.49C180.406 274.354 180.5 274.19 180.5 274C180.5 273.846 180.446 273.717 180.338 273.613C180.231 273.508 180.065 273.429 179.842 273.377L179.104 273.204C178.698 273.108 178.4 272.959 178.21 272.757C178.021 272.553 177.927 272.298 177.927 271.992C177.927 271.742 177.997 271.521 178.138 271.329C178.28 271.137 178.473 270.986 178.717 270.876C178.964 270.767 179.242 270.712 179.554 270.712C179.992 270.712 180.336 270.808 180.586 271C180.838 271.193 181.017 271.446 181.123 271.762ZM184.155 270.77V271.346H181.859V270.77H184.155ZM182.528 269.708H183.209V273.931C183.209 274.123 183.237 274.267 183.293 274.363C183.35 274.457 183.423 274.521 183.512 274.554C183.602 274.584 183.697 274.6 183.797 274.6C183.872 274.6 183.934 274.596 183.982 274.588C184.03 274.579 184.068 274.571 184.097 274.565L184.236 275.177C184.19 275.194 184.125 275.211 184.042 275.229C183.96 275.248 183.855 275.257 183.728 275.257C183.536 275.257 183.347 275.216 183.163 275.133C182.98 275.051 182.828 274.925 182.707 274.756C182.588 274.586 182.528 274.373 182.528 274.115V269.708Z" fill="#F7F7F7"/>
<path d="M311.912 271.672H193.752V273.94H311.912V271.672Z" fill="#28385E"/>
<path d="M266.275 271.672H193.752V273.94H266.275V271.672Z" fill="#FF4D6B"/>
<path d="M251.859 276.019H193.752V278.287H251.859V276.019Z" fill="#28385E"/>
<path d="M156.915 282.777H164.079L165.008 280.65H150.547V284.195H155.588L156.915 282.777Z" fill="#FF4D6B"/>
<path d="M171.763 280.627H170.967V281.477H171.763V280.627Z" fill="#F7F7F7"/>
<path d="M176.704 280.627H175.908V281.477H176.704V280.627Z" fill="#F7F7F7"/>
<path d="M181.646 280.627H180.85V281.477H181.646V280.627Z" fill="#F7F7F7"/>
<path d="M332.851 239.682C332.513 239.682 332.208 239.615 331.937 239.48C331.666 239.345 331.448 239.161 331.285 238.926C331.121 238.692 331.032 238.424 331.017 238.124H331.709C331.736 238.392 331.857 238.613 332.072 238.788C332.29 238.961 332.549 239.047 332.851 239.047C333.093 239.047 333.309 238.991 333.497 238.877C333.687 238.764 333.836 238.608 333.944 238.41C334.054 238.21 334.109 237.984 334.109 237.732C334.109 237.474 334.052 237.245 333.938 237.043C333.827 236.839 333.673 236.678 333.477 236.561C333.281 236.444 333.057 236.384 332.805 236.382C332.624 236.38 332.439 236.408 332.248 236.466C332.058 236.522 331.901 236.594 331.778 236.682L331.109 236.602L331.467 233.694H334.535V234.329H332.066L331.859 236.071H331.893C332.015 235.975 332.166 235.895 332.349 235.831C332.532 235.768 332.722 235.736 332.92 235.736C333.282 235.736 333.604 235.823 333.886 235.996C334.171 236.167 334.394 236.402 334.556 236.7C334.719 236.998 334.801 237.338 334.801 237.721C334.801 238.097 334.716 238.434 334.547 238.73C334.38 239.024 334.149 239.257 333.855 239.428C333.561 239.597 333.226 239.682 332.851 239.682ZM337.873 239.682C337.439 239.682 337.068 239.564 336.763 239.327C336.457 239.089 336.223 238.744 336.062 238.292C335.9 237.838 335.82 237.29 335.82 236.648C335.82 236.009 335.9 235.464 336.062 235.012C336.225 234.559 336.46 234.212 336.766 233.974C337.073 233.734 337.442 233.613 337.873 233.613C338.304 233.613 338.672 233.734 338.978 233.974C339.285 234.212 339.52 234.559 339.682 235.012C339.845 235.464 339.927 236.009 339.927 236.648C339.927 237.29 339.846 237.838 339.684 238.292C339.523 238.744 339.289 239.089 338.984 239.327C338.678 239.564 338.308 239.682 337.873 239.682ZM337.873 239.047C338.304 239.047 338.638 238.84 338.877 238.424C339.115 238.009 339.235 237.417 339.235 236.648C339.235 236.136 339.18 235.701 339.07 235.341C338.962 234.982 338.807 234.708 338.603 234.519C338.401 234.331 338.158 234.236 337.873 234.236C337.446 234.236 337.113 234.447 336.872 234.868C336.632 235.287 336.512 235.88 336.512 236.648C336.512 237.159 336.566 237.594 336.673 237.951C336.781 238.309 336.936 238.581 337.138 238.768C337.341 238.954 337.587 239.047 337.873 239.047ZM342.949 239.682C342.515 239.682 342.145 239.564 341.839 239.327C341.533 239.089 341.3 238.744 341.138 238.292C340.977 237.838 340.896 237.29 340.896 236.648C340.896 236.009 340.977 235.464 341.138 235.012C341.302 234.559 341.536 234.212 341.842 233.974C342.15 233.734 342.519 233.613 342.949 233.613C343.38 233.613 343.748 233.734 344.054 233.974C344.362 234.212 344.596 234.559 344.758 235.012C344.921 235.464 345.003 236.009 345.003 236.648C345.003 237.29 344.922 237.838 344.761 238.292C344.599 238.744 344.366 239.089 344.06 239.327C343.754 239.564 343.384 239.682 342.949 239.682ZM342.949 239.047C343.38 239.047 343.715 238.84 343.953 238.424C344.192 238.009 344.311 237.417 344.311 236.648C344.311 236.136 344.256 235.701 344.146 235.341C344.039 234.982 343.883 234.708 343.679 234.519C343.477 234.331 343.234 234.236 342.949 234.236C342.523 234.236 342.189 234.447 341.949 234.868C341.708 235.287 341.588 235.88 341.588 236.648C341.588 237.159 341.642 237.594 341.75 237.951C341.857 238.309 342.012 238.581 342.214 238.768C342.418 238.954 342.663 239.047 342.949 239.047Z" fill="#F7F7F7"/>
<path d="M320.403 278.477H318.633L315.803 271.672H317.572L320.403 278.477Z" fill="#28385E"/>
<path d="M325.001 278.477H323.232L320.402 271.672H322.171L325.001 278.477Z" fill="#28385E"/>
<path d="M329.6 278.477H327.831L325.001 271.672H326.77L329.6 278.477Z" fill="#28385E"/>
<path d="M334.199 278.477H332.431L329.6 271.672H331.369L334.199 278.477Z" fill="#28385E"/>
<path d="M338.71 278.477H336.94L334.111 271.672H335.879L338.71 278.477Z" fill="#28385E"/>
<path d="M331.031 44.1945H302.269V49.6995H331.031V44.1945Z" fill="#A9CCEA"/>
<path d="M345.636 54.045H302.269V59.5489H345.636V54.045Z" fill="#A9CCEA"/>
<path d="M355.748 63.8955H302.269V69.4005H355.748V63.8955Z" fill="#A9CCEA"/>
<path d="M322.717 73.746H302.269V79.2511H322.717V73.746Z" fill="#A9CCEA"/>
<path d="M29.2612 110.536H0.499634V116.041H29.2612V110.536Z" fill="#2889DB"/>
<path d="M43.8662 120.387H0.499634V125.891H43.8662V120.387Z" fill="#A9CCEA"/>
<path d="M53.9781 130.236H0.499634V135.741H53.9781V130.236Z" fill="#A9CCEA"/>
<path d="M20.9473 140.088H0.499634V145.593H20.9473V140.088Z" fill="#A9CCEA"/>
<path d="M194.843 303.83H72.2493V320.836H194.843V303.83Z" stroke="#289DF2" stroke-width="1.1276" stroke-miterlimit="10"/>
<path d="M137.278 169.887H131.384V208.516H137.278V169.887Z" stroke="#289DF2" stroke-width="1.1276" stroke-miterlimit="10"/>
<path d="M374.007 278.549C385.082 276.64 392.612 265.498 390.826 253.662C389.04 241.826 378.614 233.779 367.538 235.687C356.463 237.596 348.933 248.738 350.719 260.574C352.505 272.41 362.931 280.457 374.007 278.549Z" fill="#FF4D6B"/>
<path d="M369.325 255.088L361.257 258.247L369.325 261.38V264.618L357.792 259.93V256.565L369.325 251.878V255.088Z" fill="#F9FBFC"/>
<path d="M371.961 251.877L383.494 256.564V259.929L371.961 264.617V261.379L380.029 258.246L371.961 255.087V251.877Z" fill="#F9FBFC"/>
<path d="M404.667 274.858C404.667 276.423 403.48 277.692 402.015 277.692C400.551 277.692 399.363 276.423 399.363 274.858C399.363 273.293 400.551 272.024 402.015 272.024C403.48 272.024 404.667 273.293 404.667 274.858Z" stroke="#FF4D6B" stroke-width="1.1276" stroke-miterlimit="10"/>
<path d="M161.837 69.5346H65.7658V80.2419H161.837V69.5346Z" stroke="#289DF2" stroke-width="1.1276" stroke-miterlimit="10"/>
<path d="M129.42 72.9987H69.8909V76.1478H129.42V72.9987Z" fill="#289DF2"/>
<path d="M217.829 153.092H147.495V156.871H217.829V153.092Z" fill="#284D89"/>
<path d="M179.371 153.092H147.495V156.871H179.371V153.092Z" fill="#2889DB"/>
<path d="M217.829 162.854H147.495V166.633H217.829V162.854Z" fill="#284D89"/>
<path d="M196.463 162.854H147.495V166.633H196.463V162.854Z" fill="#FF4D6B"/>
<path d="M217.829 172.616H147.495V176.396H217.829V172.616Z" fill="#284D89"/>
<path d="M161.836 172.616H147.495V176.396H161.836V172.616Z" fill="#1AE5FF"/>
<path d="M149.165 146.479H147.789V147.949H149.165V146.479Z" fill="#284D89"/>
<path d="M153.881 146.479H152.505V147.949H153.881V146.479Z" fill="#284D89"/>
<path d="M158.596 146.479H157.22V147.949H158.596V146.479Z" fill="#284D89"/>
<path d="M280.959 197.95H278.668V200.4H280.959V197.95Z" fill="white"/>
<path d="M288.82 197.95H286.527V200.4H288.82V197.95Z" fill="white"/>
<path d="M296.678 197.95H294.385V200.4H296.678V197.95Z" fill="white"/>
<path d="M316.05 100.62H311.752V105.212H316.05V100.62Z" fill="white"/>
<path d="M330.784 100.62H326.487V105.212H330.784V100.62Z" fill="white"/>
<path d="M345.519 100.62H341.221V105.212H345.519V100.62Z" fill="white"/>
<path d="M255.146 290.407H250.848V294.999H255.146V290.407Z" fill="white"/>
<path d="M269.88 290.407H265.583V294.999H269.88V290.407Z" fill="white"/>
<path d="M284.615 290.407H280.317V294.999H284.615V290.407Z" fill="white"/>
<path d="M72.8378 163.238H70.5463V165.688H72.8378V163.238Z" fill="white"/>
<path d="M80.697 163.238H78.4045V165.688H80.697V163.238Z" fill="white"/>
<path d="M88.5561 163.238H86.2635V165.688H88.5561V163.238Z" fill="white"/>
<path d="M391.898 160.23H353.784V164.219H391.898V160.23Z" fill="white"/>
<path d="M365.095 167.263H353.784V171.252H365.095V167.263Z" fill="#287DD1"/>
<path d="M46.3155 168.417H38.0643V159.6H30.4017V168.417H22.1505V176.606H30.4017V185.423H38.0643V176.606H46.3155V168.417Z" fill="#1AE5FF"/>
<path d="M24.235 192.981H19.2036V187.604H14.5318V192.981H9.49933V197.973H14.5318V203.35H19.2036V197.973H24.235V192.981Z" fill="#2889DB"/>
<path d="M161.948 188.286C154.822 188.286 149.044 194.46 149.044 202.075C149.044 209.692 154.822 215.865 161.948 215.865C169.075 215.865 174.852 209.691 174.852 202.075C174.852 194.46 169.074 188.286 161.948 188.286ZM161.948 209.262C158.234 209.262 155.224 206.044 155.224 202.075C155.224 198.106 158.235 194.889 161.948 194.889C165.662 194.889 168.673 198.106 168.673 202.075C168.673 206.044 165.661 209.262 161.948 209.262Z" fill="#284D89"/>
<path d="M153.164 200.716C154.363 200.716 155.413 199.954 155.959 198.812C157.07 196.484 159.335 194.889 161.948 194.889C164.563 194.889 166.826 196.484 167.938 198.812C168.483 199.954 169.534 200.716 170.733 200.716C172.991 200.716 174.537 198.188 173.543 196.02C171.445 191.439 167.042 188.286 161.949 188.286C156.856 188.286 152.453 191.439 150.355 196.021C149.361 198.188 150.905 200.716 153.164 200.716Z" fill="#289DF2"/>
<path d="M183.621 202.075C183.621 209.691 189.399 215.865 196.525 215.865C203.652 215.865 209.429 209.691 209.429 202.075C209.429 194.459 203.651 188.286 196.525 188.286C189.399 188.286 183.621 194.46 183.621 202.075ZM203.25 202.075C203.25 206.043 200.239 209.26 196.525 209.26C192.811 209.26 189.8 206.043 189.8 202.075C189.8 198.106 192.811 194.889 196.525 194.889C200.239 194.889 203.25 198.106 203.25 202.075Z" fill="#284D89"/>
<path d="M195.254 211.462C195.254 210.181 194.541 209.058 193.473 208.475C191.294 207.288 189.801 204.868 189.801 202.075C189.801 199.281 191.294 196.863 193.473 195.674C194.541 195.092 195.254 193.969 195.254 192.687C195.254 190.274 192.888 188.623 190.859 189.685C186.573 191.927 183.621 196.632 183.621 202.075C183.621 207.518 186.573 212.223 190.859 214.465C192.887 215.526 195.254 213.876 195.254 211.462Z" fill="#FF4D6B"/>
<path d="M125.097 147.634H101.522V208.098H125.097V147.634Z" stroke="#289DF2" stroke-width="1.1276" stroke-miterlimit="10"/>
<path d="M111.738 159.285H104.862V161.457H111.738V159.285Z" fill="#1AE5FF"/>
<path d="M111.738 164.13H104.862V166.302H111.738V164.13Z" fill="#1AE5FF"/>
<path d="M111.738 168.975H104.862V171.146H111.738V168.975Z" fill="#1AE5FF"/>
<path d="M111.738 194.169H104.862V196.34H111.738V194.169Z" fill="#1AE5FF"/>
<path d="M114.882 176.081H104.862V178.252H114.882V176.081Z" fill="#1AE5FF"/>
<path d="M114.882 180.925H104.862V183.097H114.882V180.925Z" fill="white"/>
<path d="M114.882 185.77H104.862V187.942H114.882V185.77Z" fill="white"/>
<path d="M46.904 223.213H17.0417V255.124H46.904V223.213Z" fill="#289DF2"/>
<path d="M31.1878 230.77H1.32544V262.681H31.1878V230.77Z" stroke="#289DF2" stroke-width="1.1276" stroke-miterlimit="10"/>
<path d="M384.825 315.587H372.251V329.024H384.825V315.587Z" stroke="#289DF2" stroke-width="1.1276" stroke-miterlimit="10"/>
<path d="M221.365 294.383H231.975L237.869 300.681H299.166L308.596 290.604H341.603" stroke="white" stroke-width="1.1276" stroke-miterlimit="10"/>
<path d="M218.271 297.847C219.98 297.847 221.365 296.366 221.365 294.54C221.365 292.714 219.98 291.234 218.271 291.234C216.562 291.234 215.177 292.714 215.177 294.54C215.177 296.366 216.562 297.847 218.271 297.847Z" stroke="white" stroke-width="1.1276" stroke-miterlimit="10"/>
<path d="M344.794 293.753C346.503 293.753 347.889 292.272 347.889 290.446C347.889 288.62 346.503 287.14 344.794 287.14C343.085 287.14 341.7 288.62 341.7 290.446C341.7 292.272 343.085 293.753 344.794 293.753Z" stroke="white" stroke-width="1.1276" stroke-miterlimit="10"/>
<path d="M386.396 116.562C386.396 118.881 384.637 120.761 382.467 120.761C380.297 120.761 378.537 118.881 378.537 116.562C378.537 114.243 380.297 112.363 382.467 112.363C384.637 112.363 386.396 114.243 386.396 116.562Z" fill="#289DF2"/>
<path d="M23.3286 280.317C23.3286 282.637 21.5693 284.517 19.3991 284.517C17.2289 284.517 15.4695 282.637 15.4695 280.317C15.4695 277.998 17.2289 276.118 19.3991 276.118C21.5703 276.118 23.3286 277.998 23.3286 280.317Z" fill="#FF4D6B"/>
<path d="M41.4043 295.853C41.4043 299.911 38.3257 303.201 34.5278 303.201C30.7299 303.201 27.6513 299.911 27.6513 295.853C27.6513 291.795 30.7299 288.505 34.5278 288.505C38.3257 288.505 41.4043 291.795 41.4043 295.853Z" fill="#FF4D6B"/>
<path d="M275.59 320.626H248.085V327.344H275.59V320.626Z" stroke="#289DF2" stroke-width="1.1276" stroke-miterlimit="10"/>
<path d="M308.399 333.222H248.085V339.94H308.399V333.222Z" stroke="#289DF2" stroke-width="1.1276" stroke-miterlimit="10"/>
<path d="M79.5868 327.06L72.9204 334.184" stroke="#289DF2" stroke-width="1.1276" stroke-miterlimit="10" stroke-linecap="round" stroke-linejoin="round"/>
<path d="M85.996 327.06L79.3297 334.184" stroke="#289DF2" stroke-width="1.1276" stroke-miterlimit="10" stroke-linecap="round" stroke-linejoin="round"/>
<path d="M92.4063 327.06L85.7399 334.184" stroke="#289DF2" stroke-width="1.1276" stroke-miterlimit="10" stroke-linecap="round" stroke-linejoin="round"/>
<path d="M98.8155 327.06L92.1491 334.184" stroke="#289DF2" stroke-width="1.1276" stroke-miterlimit="10" stroke-linecap="round" stroke-linejoin="round"/>
<path d="M105.226 327.06L98.5594 334.184" stroke="#289DF2" stroke-width="1.1276" stroke-miterlimit="10" stroke-linecap="round" stroke-linejoin="round"/>
</svg>
